<svg width="166" height="61" viewBox="0 0 166 61" fill="none" xmlns="http://www.w3.org/2000/svg">
<path d="M111.745 32.0168H109.601L111.745 21.3081V21.1134L113.792 32.0168H111.745ZM116.91 13.9091H111.745H106.873L100.149 46.912H107.458L108.627 39.9024H111.745H114.766L115.936 46.912H123.634L116.91 13.9091Z" fill="#C0C3CE"/>
<path d="M91.921 25.5026V13.9174H99.1324V46.9208H91.921V35.0432H87.0484V37.0708L79.7992 37.0651L79.8375 13.9174H87.0484V25.5026H91.921Z" fill="#C0C3CE"/>
<path d="M67.6007 46.5227V13.9087L74.7144 13.8113L74.5195 38.7342H86.9934V46.62L67.6007 46.5227Z" fill="#C0C3CE"/>
<path d="M47.1359 46.4249V13.7134H63.5079V21.6966H54.1525V26.0776H63.1179V34.3528H54.1525L54.2497 38.5391H63.7028L63.8 46.4249H47.1359Z" fill="#C0C3CE"/>
<path d="M35.1497 13.6161C36.6115 13.6161 37.7806 13.6161 38.6576 13.7132C41.1915 13.908 42.9454 15.0763 43.9202 17.3155L60.3893 0.959839L0.359863 1.05715V60.5411L26.1844 34.9367V13.6161H35.1497Z" fill="#C0C3CE"/>
<path d="M37.2935 38.4423C37.0014 38.9291 36.4164 39.2213 35.4418 39.3183C35.4418 39.3183 34.5647 39.4157 34.1749 39.4157H33.0057V33.0878H34.1749L35.3446 33.1852H35.5396C36.1239 33.1852 36.5137 33.3799 36.9035 33.5744C37.4885 34.0613 37.7805 35.0348 37.7805 36.3979C37.6834 37.3713 37.5856 38.0528 37.2935 38.4423ZM40.6066 29.9725L38.9503 29.6804L40.6066 29.2909C43.4331 28.4148 44.7972 26.0783 44.7972 22.2816C44.7972 20.2372 44.5051 18.582 43.9202 17.3164L37.4885 23.7417C37.4885 23.547 37.4885 23.2551 37.4885 23.0604C37.4885 21.9894 37.1956 21.1134 36.8064 20.6264C36.5137 20.3342 36.0267 20.0424 35.3446 19.945C35.0518 19.945 34.7598 19.945 34.3698 19.945H33.0057V26.0783H33.9799C34.3698 26.0783 34.7598 26.0783 35.0518 25.9809L26.1843 34.9374V46.3281H34.4676C34.7598 46.3281 35.0518 46.3281 35.3446 46.3281C36.5137 46.3281 37.6834 46.2307 38.7554 46.1333C42.0683 45.8415 44.1151 44.1862 44.7972 41.3631C45.0893 40.1945 45.1871 38.8317 45.1871 37.3713C45.1871 33.0878 43.628 30.654 40.6066 29.9725Z" fill="#C0C3CE"/>
<path d="M157.449 36.5925C157.059 37.6633 156.475 38.4421 155.695 38.6369C155.403 38.7342 155.11 38.8316 154.818 38.8316H153.161V21.5025H155.013C155.208 21.5025 155.695 21.5997 155.695 21.5997C155.89 21.697 156.085 21.7944 156.28 21.9891C156.767 22.3787 157.254 23.1574 157.644 24.423C158.034 25.5914 158.229 27.5384 158.229 30.2645C158.229 32.8928 157.936 35.0346 157.449 36.5925ZM165.635 27.3437C165.538 26.1754 165.343 25.0071 165.148 23.8388C164.563 21.4048 163.589 19.0682 162.225 17.0242C160.763 15.0768 158.619 14.0059 155.695 14.0059C155.598 14.0059 155.5 14.0059 155.403 14.0059H146.243H145.95V47.0093H154.623H154.916C155.11 47.0093 156.572 46.9122 157.059 46.8145C157.936 46.7175 158.911 46.328 159.886 45.8414C161.347 45.0623 162.712 43.5048 163.881 41.1682C165.148 38.8316 165.733 35.3267 165.733 30.4589C165.733 29.4854 165.733 28.5119 165.635 27.3437Z" fill="#C0C3CE"/>
<path d="M136.498 25.5917C136.498 25.8836 136.4 26.0783 136.4 26.3705C136.303 26.9545 136.108 27.4413 135.816 27.8309C135.524 28.3175 135.036 28.5122 134.354 28.5122H133.964H131.528V21.2108H133.964H134.257C134.939 21.2108 135.426 21.5029 135.913 21.9895C136.303 22.4761 136.498 23.4499 136.498 24.91C136.498 25.1047 136.498 25.2996 136.498 25.5917ZM144.001 46.6201C143.904 46.5228 143.904 46.4254 143.806 46.328C143.611 45.6466 143.416 44.8676 143.416 44.0888C143.222 41.7523 142.832 39.2213 142.637 37.274C142.539 36.2031 142.344 35.0348 141.955 33.9638C141.467 32.893 140.785 32.1144 139.616 31.6274V31.5301C139.811 31.5301 139.908 31.4327 140.006 31.3356C140.103 31.3356 140.2 31.2379 140.298 31.1408C141.078 30.5566 141.857 29.6804 142.442 28.4149C143.124 27.2466 143.416 25.4943 143.416 23.2552C143.416 20.3343 142.929 18.2899 141.955 16.9269C140.98 15.5642 139.811 14.688 138.641 14.2986C138.251 14.1038 137.765 14.0064 137.278 14.0064C136.888 13.9091 136.4 13.9091 136.011 13.9091H133.964H124.901H124.511V47.0093H131.138H131.528V35.8139C132.405 35.8139 132.307 35.7162 133.185 35.8139C133.477 35.9109 133.769 36.0083 133.964 36.2031C134.354 36.3979 134.646 36.6901 134.939 37.0792C135.426 37.6635 135.718 39.0265 135.718 40.9736C135.718 43.1153 135.816 43.6019 135.913 44.5757C136.011 45.5493 136.206 46.328 136.498 47.0093H143.806H144.099C144.001 46.8145 144.001 46.7175 144.001 46.6201Z" fill="#C0C3CE"/>
<path d="M37.4885 23.7421L43.9202 17.3165C42.9453 15.0771 41.1914 13.9088 38.6576 13.714C37.7805 13.6169 36.6114 13.6169 35.1497 13.6169H26.1843V34.9384L35.0518 25.9813C34.7598 26.0788 34.3698 26.0788 33.9798 26.0788H33.0057V19.9452H34.3698C35.5396 19.9452 36.3188 20.1397 36.8064 20.6266C37.1956 21.1136 37.4885 21.9897 37.4885 23.0607C37.4885 23.2554 37.4885 23.4502 37.4885 23.7421Z" fill="#FEFEFE"/>
</svg>
