<svg width="353" height="61" viewBox="0 0 353 61" fill="none" xmlns="http://www.w3.org/2000/svg">
<path fill-rule="evenodd" clip-rule="evenodd" d="M107.593 3.97949V22.9242C107.593 27.0489 106.5 30.1383 104.313 32.1924C102.126 34.2465 98.8124 35.2653 94.3723 35.2488C89.899 35.2488 86.5855 34.23 84.4317 32.1924C82.2779 30.1548 81.1844 27.0654 81.1512 22.9242V3.97949H87.6375V21.9096C87.4893 23.9386 88.0853 25.9523 89.315 27.5769C89.9546 28.2345 90.7309 28.7447 91.5895 29.0718C92.4482 29.3988 93.3683 29.5348 94.2853 29.4701C95.2166 29.5368 96.1513 29.4009 97.0246 29.0718C97.8979 28.7427 98.6889 28.2284 99.3426 27.5645C100.596 25.9553 101.207 23.9408 101.057 21.9096V3.97949H107.593Z" fill="#C0C3CE"/>
<path fill-rule="evenodd" clip-rule="evenodd" d="M114.403 34.3821V3.97949H121.187L134.719 21.7113C135.197 22.3775 135.613 23.0858 135.961 23.8272C136.425 24.7346 136.91 25.807 137.415 27.0444C137.266 26.1411 137.154 25.2502 137.08 24.3592C137.005 23.4683 136.98 22.3547 136.98 21.0307V3.97949H143.193V34.3821H136.769L122.865 16.3286C122.385 15.6636 121.969 14.9552 121.622 14.2127C121.162 13.297 120.678 12.2205 120.156 10.9584C120.305 11.8328 120.417 12.7154 120.491 13.6064C120.566 14.4973 120.603 15.6233 120.603 16.9844V34.3821H114.403Z" fill="#C0C3CE"/>
<path fill-rule="evenodd" clip-rule="evenodd" d="M181.353 19.2737C181.358 21.3979 180.935 23.5017 180.11 25.4607C179.307 27.3922 178.109 29.1366 176.594 30.5835C175.041 32.07 173.22 33.2499 171.226 34.0606C167.501 35.5723 163.347 35.6648 159.558 34.3205C157.76 33.6958 156.08 32.7757 154.588 31.5982C152.709 30.1392 151.195 28.2673 150.164 26.1288C149.135 23.9941 148.608 21.6539 148.623 19.286C148.617 17.1616 149.04 15.0577 149.866 13.099C150.684 11.1661 151.894 9.42211 153.42 7.97615C155.725 5.73216 158.639 4.20854 161.803 3.59293C164.966 2.97732 168.242 3.29657 171.226 4.51139C173.213 5.31551 175.027 6.49169 176.569 7.97615C178.086 9.42876 179.288 11.1767 180.098 13.1114C180.925 15.0697 181.347 17.1739 181.34 19.2984L181.353 19.2737ZM165.063 29.4327C166.349 29.4684 167.627 29.2271 168.811 28.7252C169.995 28.2234 171.056 27.4728 171.922 26.5248C173.674 24.5025 174.638 21.9202 174.638 19.2489C174.638 16.5776 173.674 13.9953 171.922 11.973C171.065 11.0173 170.01 10.258 168.83 9.74744C167.651 9.23687 166.374 8.98717 165.087 9.01556C163.793 8.98322 162.506 9.22961 161.316 9.73788C160.126 10.2462 159.06 11.0043 158.191 11.9606C156.429 13.9855 155.458 16.5753 155.458 19.2551C155.458 21.9348 156.429 24.5247 158.191 26.5496C159.072 27.4962 160.148 28.2435 161.344 28.7408C162.54 29.2382 163.829 29.4742 165.125 29.4327H165.063Z" fill="#C0C3CE"/>
<path fill-rule="evenodd" clip-rule="evenodd" d="M186.882 34.3823V3.9794H195.17C197.781 3.91371 200.39 4.14204 202.949 4.65999C204.744 5.08135 206.434 5.86001 207.919 6.94914C209.753 8.291 211.208 10.081 212.144 12.1462C213.131 14.3914 213.619 16.823 213.573 19.2736C213.621 21.7443 213.12 24.1951 212.107 26.4505C211.155 28.5176 209.677 30.3008 207.82 31.6229C206.419 32.6236 204.843 33.354 203.172 33.7759C200.721 34.2798 198.219 34.4999 195.717 34.4318L186.882 34.3823ZM193.406 28.9006H197.059C200.497 28.9006 202.982 28.1252 204.514 26.5743C206.047 25.0234 206.83 22.5486 206.863 19.1499C206.863 15.7924 206.08 13.3176 204.514 11.7255C202.949 10.1334 200.464 9.35382 197.059 9.38682H193.406V28.814V28.9006Z" fill="#C0C3CE"/>
<path fill-rule="evenodd" clip-rule="evenodd" d="M243.718 11.9235C242.524 10.8273 241.144 9.95153 239.642 9.33739C238.217 8.78408 236.699 8.50688 235.169 8.5207C233.74 8.45048 232.311 8.67224 230.971 9.17233C229.632 9.67242 228.409 10.4403 227.378 11.4286C225.537 13.5728 224.508 16.2911 224.47 19.1119C224.431 21.9327 225.385 24.6779 227.167 26.8713C228.126 27.8285 229.276 28.5743 230.544 29.0603C231.811 29.5463 233.167 29.7617 234.523 29.6926C236.22 29.7146 237.907 29.4165 239.493 28.814C241.053 28.1934 242.486 27.2915 243.718 26.1536V32.8479C242.351 33.6545 240.879 34.2706 239.344 34.6793C237.77 35.09 236.149 35.2939 234.523 35.2856C232.32 35.3668 230.123 35.0079 228.061 34.2301C226 33.4523 224.115 32.2713 222.519 30.7567C219.509 27.6889 217.823 23.5695 217.823 19.2799C217.823 14.9902 219.509 10.8709 222.519 7.80299C224.137 6.28794 226.042 5.10842 228.121 4.33304C230.201 3.55766 232.415 3.20191 234.635 3.2865C236.252 3.27996 237.865 3.45431 239.443 3.80622C241.024 4.1624 242.558 4.69796 244.016 5.40244L243.792 11.9359L243.718 11.9235Z" fill="#C0C3CE"/>
<path fill-rule="evenodd" clip-rule="evenodd" d="M57.878 15.1778C60.5669 20.606 61.1552 26.8299 59.5306 32.6624C58.4135 36.6759 56.3081 40.3482 53.4052 43.3464C50.5023 46.3445 46.8938 48.5735 42.9069 49.8314C38.92 51.0893 34.6809 51.3362 30.5739 50.5497C26.467 49.7632 22.6221 47.9683 19.3881 45.3276C16.154 42.6869 13.6331 39.284 12.0538 35.4276C10.4745 31.5711 9.88695 27.3831 10.3443 23.2433C10.8016 19.1034 12.2894 15.1428 14.6728 11.7205C17.0561 8.29814 20.2597 5.52243 23.9928 3.64505C27.5338 1.91565 31.4188 0.998108 35.3625 0.959839C40.0759 0.984771 44.6872 2.33026 48.6689 4.8424C52.6506 7.35454 55.8419 10.9319 57.878 15.1654V15.1778ZM35.8594 2.20964C35.9732 3.34938 35.9732 4.49753 35.8594 5.63727L35.9713 5.3403C36.1453 5.24131 36.2944 5.34032 36.3689 5.51356C36.4435 5.6868 36.4559 5.98377 36.3689 6.08276L36.7293 5.99613C39.5006 6.20062 42.1916 7.01638 44.6072 8.38433V8.32248C45.1043 8.09974 45.7255 7.77802 46.2101 8.21111C46.8066 7.98838 46.9184 8.70606 47.4527 8.80505C47.7813 8.97277 48.07 9.20867 48.2993 9.49683C48.5287 9.78498 48.6933 10.1187 48.7823 10.4756C48.8941 10.6983 49.242 10.8716 49.2917 11.1067C49.8038 10.291 50.4363 9.5568 51.168 8.9288L51.5905 8.75558C47.961 5.30684 43.3115 3.11542 38.3322 2.50661C37.4983 2.46052 36.6683 2.36134 35.8471 2.20964H35.8594ZM34.4678 2.321C29.6068 2.53425 24.9208 4.1889 21.0107 7.07268C20.2527 7.59239 19.5693 8.38433 18.7989 8.84217H18.9107C19.9107 9.63777 20.8342 10.5243 21.6692 11.4903V11.317C25.1543 8.03568 29.7131 6.11958 34.5051 5.92189L34.3932 5.61253V2.63036L34.5051 2.28388L34.4678 2.321ZM38.7547 4.20186L36.9529 4.96909C36.8038 4.96909 36.518 4.83296 36.4186 5.03095V5.24132C37.0772 6.08277 38.2328 5.61253 39.0653 5.45166C39.3491 5.53857 39.6517 5.54525 39.9391 5.47096C40.2265 5.39667 40.4875 5.24434 40.6931 5.03095V4.94432C40.4415 4.68701 40.1366 4.48732 39.7998 4.35911C39.4629 4.2309 39.102 4.17724 38.7422 4.20186H38.7547ZM35.8346 7.27067L35.9589 7.50578C35.9589 8.66895 35.9589 9.89399 35.9589 10.9829C36.4352 10.8941 36.924 10.8941 37.4003 10.9829C39.833 11.3057 42.1449 12.2334 44.1226 13.6805C43.8399 13.4458 43.636 13.1306 43.5386 12.7772H43.7001C43.7001 12.3936 43.3025 12.1956 43.2404 11.8491L43.5138 11.7378C43.9161 12.1155 44.2822 12.5298 44.6072 12.9752C44.8806 12.8638 45.1043 12.9752 45.3031 13.1855C45.5019 13.3959 45.4521 13.8537 45.7131 14.1012C45.7131 14.8313 46.6575 15.2396 46.6078 15.9821C46.6078 16.1553 46.8314 15.9821 46.9184 16.1058L47.6639 17.0215C47.6165 17.1061 47.603 17.2054 47.626 17.2995C47.6491 17.3936 47.707 17.4755 47.7882 17.5289C48.1362 17.6773 48.3226 17.2566 48.6581 17.3185C49.1427 17.5907 48.5835 17.9124 48.6581 18.2094C48.8444 18.2094 49.0805 18.0609 49.2296 18.2094C49.3787 18.3579 49.006 18.6673 48.8941 18.8405C48.7823 19.0138 49.1178 19.0509 49.3166 19.1127C49.3677 19.1178 49.4172 19.1342 49.4612 19.1606C49.5053 19.1869 49.5429 19.2227 49.5714 19.2653C49.5999 19.3079 49.6186 19.3563 49.6261 19.4069C49.6336 19.4576 49.6297 19.5092 49.6148 19.5582C50.2361 20.214 49.4284 20.907 49.7267 21.5876C49.8001 21.8027 49.8086 22.0345 49.7512 22.2544C49.6937 22.4743 49.5729 22.6727 49.4036 22.825C49.4036 23.3695 48.919 23.7036 48.7202 24.1738L48.0864 24.2975C47.7385 24.6316 48.3722 25.04 48.0864 25.2627H49.4781L49.329 25.1142C49.224 24.8244 49.1862 24.5146 49.2184 24.2082C49.2507 23.9017 49.3523 23.6065 49.5154 23.3447C49.6428 22.8484 49.8665 22.3818 50.174 21.9712C50.2609 21.9712 50.4225 21.7856 50.497 21.9712C50.5346 22.3949 50.4619 22.821 50.2858 23.2086C50.6018 23.8363 50.7392 24.538 50.6834 25.2379C51.926 25.1637 53.1685 25.1513 54.3366 25.1513L54.2248 24.9162C54.0947 22.6858 53.5468 20.4992 52.6094 18.4693C52.3485 18.4693 52.1621 18.6797 51.8514 18.6178L51.7023 18.3703C51.2725 17.8368 50.812 17.3286 50.3231 16.8483C49.6894 16.9101 49.4035 16.1801 48.8195 16.1058C48.2355 16.0316 48.658 15.0664 47.9249 15.2891C47.734 15.2293 47.5618 15.1216 47.4247 14.9765C47.2877 14.8313 47.1903 14.6534 47.1421 14.46C47.177 14.1289 47.1295 13.7942 47.0038 13.4856C46.8781 13.177 46.6781 12.904 46.4214 12.6906C45.974 12.5297 45.7876 13.1236 45.3403 13.0246C45.0918 12.9009 45.2037 12.5792 45.1291 12.3688C45.0545 12.1585 44.8309 12.0471 44.8681 11.7996C45.4521 11.02 44.1475 11.0324 44.4457 10.2776C44.3711 9.73312 43.812 9.52275 43.5262 9.04016C41.6108 8.15788 39.5693 7.57763 37.4749 7.32017C36.9643 7.33679 36.4549 7.26134 35.9713 7.09745L35.8346 7.27067ZM47.1421 7.27067C46.8811 7.51815 46.6574 7.04795 46.4214 7.33256L46.5083 7.69138C47.0427 7.877 47.0924 8.63181 47.7509 8.45858C47.9497 8.22347 47.6267 7.98839 47.6888 7.71616C47.6397 7.60177 47.5629 7.50121 47.4654 7.42349C47.3678 7.34577 47.2525 7.29328 47.1296 7.27067H47.1421ZM24.7136 10.6117C23.9432 11.1438 23.2224 11.8491 22.4272 12.3193C23.3181 13.0257 24.1493 13.8038 24.9123 14.6457L24.9993 14.8808C27.0749 12.9442 29.6606 11.6353 32.4548 11.1067C33.0985 10.9625 33.7605 10.9166 34.4181 10.9705C34.3329 9.77586 34.3329 8.5767 34.4181 7.38203C30.9267 7.55644 27.5496 8.67747 24.6514 10.6241L24.7136 10.6117ZM52.4851 9.47327C51.7172 10.4142 50.8869 11.303 50 12.1337L49.5776 12.2203C49.8385 12.2203 49.913 12.5915 50.087 12.7895C50.9941 13.2721 51.2426 14.2373 52.0378 14.7942C52.4852 15.7346 53.5165 16.4523 53.5538 17.5165C54.7033 19.9365 55.3499 22.5629 55.4549 25.2379L55.3555 25.3988L55.6413 25.2874L59.2448 25.2132C58.9963 24.8791 59.1081 24.3594 59.046 23.9758C58.5097 18.5659 56.1997 13.4824 52.4727 9.51039L52.4851 9.47327ZM18.1155 9.55989C14.6003 13.3155 12.3614 18.0778 11.7162 23.1715C11.5795 23.9139 11.7162 24.6811 11.5298 25.4483C12.8116 25.3408 14.1001 25.3408 15.3818 25.4483L15.2948 24.9534C15.4971 21.1217 16.79 17.4264 19.0225 14.2992C19.4966 13.5981 20.0559 12.9581 20.6876 12.3936C19.8799 11.6388 19.035 10.7602 18.2025 9.91875L18.1155 9.58463V9.55989ZM34.5548 12.1585L34.3435 12.2822C31.2626 12.5469 28.3465 13.7822 26.0183 15.8088C26.9488 16.5854 27.8365 17.4116 28.6774 18.2837L28.8637 18.0114C29.995 17.1223 31.2852 16.4547 32.666 16.0439C33.2791 15.8677 33.9178 15.7966 34.5548 15.8336C34.4109 14.6003 34.4109 13.3546 34.5548 12.1214V12.1585ZM35.8719 12.1585L35.9962 12.4307V15.8088L36.3192 15.7346C38.364 15.9579 40.3052 16.7466 41.9232 18.0114L42.0227 18.2713C42.6747 17.5011 43.3674 16.7658 44.0977 16.0687L44.719 15.7099L44.4208 15.5861C43.0912 14.4597 41.5671 13.5834 39.9227 12.9999C38.6102 12.5944 37.2623 12.3127 35.8968 12.1585H35.8719ZM21.5326 13.0865V13.3464L20.1781 15.0416C18.0383 18.0847 16.7985 21.6644 16.5995 25.3741L20.029 25.2998L20.3521 25.4236L20.203 25.0647C20.3985 21.5828 21.8093 18.2782 24.1917 15.7222C23.2452 14.9146 22.3605 14.0377 21.545 13.0989L21.5326 13.0865ZM45.4397 16.5513V16.6998C44.2966 17.9372 43.0291 19.1746 41.9232 20.3502L42.2712 20.709C42.2712 20.412 42.4824 20.1522 42.5073 19.8428C42.8055 19.4221 43.2528 19.6943 43.638 19.8428C44.233 19.8197 44.8288 19.8612 45.4149 19.9666C45.8622 20.1893 45.912 20.7585 46.322 20.9936L46.1977 21.4514C46.322 22.3919 46.7693 21.204 47.2539 21.4514C47.4528 21.5257 47.7012 21.4515 47.8503 21.7113C47.9995 21.9712 48.3971 22.0207 48.422 22.3919C48.422 22.5775 48.1858 22.627 48.0616 22.726C48.1734 23.0972 47.664 23.3323 47.8379 23.7283C48.571 23.8768 48.5959 23.0353 48.9314 22.6641C48.797 22.0055 48.5624 21.3713 48.2355 20.7833C47.8255 20.6966 47.577 20.2141 47.1669 20.1274C46.3593 19.8181 47.2788 19.3107 47.1669 18.89C46.6794 18.1005 46.1177 17.3589 45.4894 16.675L45.4397 16.5513ZM25.1112 16.675C23.4029 18.6382 22.2456 21.0159 21.7562 23.5674C21.7095 24.1934 21.6098 24.8143 21.458 25.4236C21.971 25.2876 22.5107 25.2876 23.0237 25.4236C22.7379 25.2627 23.0237 24.9038 22.8 24.7059C22.5764 24.5079 22.713 24.0129 23.0237 23.8149C23.0237 23.3076 23.5331 23.0477 23.5828 22.5775C23.6325 22.1073 24.3283 22.4043 24.6017 22.132C24.8751 21.8598 24.6017 21.8598 24.6017 21.7237C24.8502 21.3896 25.2354 21.4019 25.5336 21.2163C25.7384 20.8627 26.0236 20.5618 26.3662 20.3378C27.1118 20.3378 27.1366 19.3107 27.8449 19.2983C26.8675 18.504 25.9419 17.6485 25.0739 16.7369L25.1112 16.675ZM35.9092 17.0834C36.0117 17.9377 36.0697 18.7969 36.0831 19.6572L36.9778 19.9542C37.2387 19.5211 37.8103 19.4345 38.0713 19.0261C38.2328 18.8776 38.4192 19.0261 38.5435 19.1746C38.5637 19.5154 38.5129 19.8566 38.3944 20.1769C38.0589 20.8451 37.2636 20.9317 36.8038 21.4143C37.0896 21.5752 37.2636 21.2658 37.4872 21.2163C37.8214 21.2997 38.1159 21.4967 38.3198 21.7732C38.5435 21.8722 38.7671 21.7732 38.9535 21.6618C39.0902 20.6348 40.3949 20.7833 40.7801 19.8057L40.544 19.9047C40.4446 19.7686 40.196 19.8181 40.2085 19.6077C40.4193 19.3669 40.6719 19.1658 40.9541 19.0137C39.8612 18.2929 38.6622 17.746 37.4003 17.3927C36.8938 17.3229 36.3917 17.2238 35.8968 17.0958L35.9092 17.0834ZM29.1868 19.6819H29.4602C29.7584 19.9913 30.243 19.9171 30.4667 20.3254C30.6904 20.7338 30.2678 20.5234 30.2678 20.709L30.4667 20.8575C30.7028 20.9441 30.6531 20.7214 30.74 20.6224C31.0507 20.313 31.1004 20.9317 31.3986 20.9317C31.4471 20.8931 31.5028 20.8645 31.5626 20.8479C31.6224 20.8313 31.6849 20.8269 31.7464 20.835C31.808 20.8431 31.8672 20.8635 31.9206 20.895C31.974 20.9265 32.0205 20.9685 32.0572 21.0184C32.256 20.8451 32.6785 21.0184 32.7406 20.6842C33.1383 20.2759 32.9146 19.6448 33.4862 19.385C33.685 19.4963 33.4861 19.682 33.5483 19.8552C33.9335 20.0161 34.3808 19.5335 34.6914 19.9171C34.4718 19.0314 34.4088 18.1144 34.5051 17.2071C32.4882 17.3708 30.597 18.2488 29.1744 19.6819H29.1868ZM35.2382 21.7484C35.0393 21.5133 34.6045 21.6618 34.3435 21.7484C34.5921 21.9959 34.4926 22.4414 34.6417 22.7631C34.2598 23.2683 33.6923 23.6021 33.0636 23.6912C32.8897 23.8891 32.9394 24.3223 32.5542 24.2851C32.43 24.5574 31.9951 24.7182 32.169 25.1142C32.048 25.5839 31.9772 26.0651 31.9578 26.5496C31.2247 27.0075 31.4359 25.9433 31.0631 25.7082L30.9389 25.9185L30.5909 25.77H30.1933C30.0318 26.0423 29.7709 26.2774 29.8454 26.6486C29.92 27.0198 29.3981 26.7971 29.4478 27.0446C29.8664 27.0247 30.2823 26.9667 30.6904 26.8713C30.9886 26.9456 31.2246 26.7352 31.5104 26.7228L31.6844 27.0322H31.7714C31.8682 26.9712 31.9408 26.8787 31.9771 26.7705C32.0133 26.6623 32.0108 26.5449 31.9702 26.4382C31.9702 26.1784 32.2933 26.1784 32.4548 26.0918C32.6163 26.0051 32.5169 26.3269 32.5542 26.4506C33.101 26.661 32.4175 27.0693 32.3306 27.3663C32.2436 27.6633 32.3306 28.1459 31.8584 28.0593L31.7465 27.8489H31.6844C31.6832 27.962 31.7125 28.0734 31.7693 28.1714C31.8262 28.2693 31.9085 28.3503 32.0075 28.4058C32.3678 28.1211 32.3678 27.6385 32.8649 27.5767C33.1382 27.3044 32.753 26.8837 33.1506 26.661C33.7968 26.661 34.4926 26.3764 35.0021 26.9084C35.0021 27.1312 34.8779 27.2302 35.0643 27.4158C34.9684 27.7201 34.8121 28.0021 34.6045 28.2449L34.4802 28.7151C34.3062 29.4699 33.4364 29.1111 32.9145 29.3709C33.7083 29.9535 34.6927 30.2184 35.6731 30.1134C36.2074 30.1134 35.9837 29.4328 36.2571 29.1358C36.431 28.2573 37.2263 28.8636 37.711 28.6161C37.9256 28.2635 38.0691 27.8726 38.1334 27.4653C37.9835 27.3682 37.8697 27.2249 37.8091 27.0574C37.7485 26.8898 37.7445 26.7072 37.7979 26.5372C37.5866 26.2526 37.6115 25.7205 37.1518 25.671V25.3741C37.1518 25.1018 37.4127 25.0029 37.4872 24.8049C37.2014 24.6069 37.276 24.2109 37.3009 23.9634C36.8163 24.0995 36.7665 23.4685 36.3937 23.3323C36.3068 23.0477 35.9962 22.9982 35.7477 22.9487C35.1388 23.2333 35.0394 22.4909 34.5921 22.3176V22.0083C34.8157 21.8227 35.1139 22.0083 35.3873 22.0083L35.176 21.8969L35.2382 21.7484ZM24.378 24.8296C23.3716 25.1513 24.5396 25.9062 24.2911 26.5372C24.1544 26.8961 23.7816 26.5372 23.5082 26.7105L23.4089 27.3787C23.2598 27.7623 22.7751 27.4777 22.5391 27.7375C22.303 27.9974 22.539 28.2449 22.6882 28.4429C22.3402 29.2348 23.4834 29.4947 23.471 30.2124C23.8189 30.6578 23.471 31.3013 23.9183 31.7096C24.0301 32.5263 23.8064 33.6152 24.5147 34.1845L24.639 34.964C24.8005 35.4961 24.0053 35.36 24.1047 35.8302L24.3035 36.0035C25.2975 34.8441 26.373 33.7566 27.5218 32.7491L27.0496 32.2788C26.1386 30.992 25.4848 29.5426 25.1236 28.0098L24.7632 27.8242C24.7632 28.2201 24.5645 28.5418 24.5769 28.9254L24.465 29.0739C24.1917 29.0739 24.0302 28.8512 23.8065 28.7151C23.5828 28.579 23.6201 28.3562 23.8065 28.2449L24.0923 28.3315C24.2165 28.183 24.1668 27.9974 24.2289 27.8242C24.2911 27.6509 24.0053 27.2549 24.2289 26.9951C24.465 26.9951 24.639 27.2549 24.7384 27.4158C24.8378 27.5767 25.1609 27.2797 25.3597 27.2055C25.3597 26.9951 25.6579 26.7105 25.3597 26.5867C25.4861 26.1082 25.4861 25.6052 25.3597 25.1266C25.223 24.7058 24.7633 24.7801 24.4278 24.8296H24.378ZM47.7634 25.2503H47.403H47.7634ZM46.993 26.4877L47.3906 26.8713C47.7758 27.1312 47.5149 27.688 47.9249 27.9108C48.335 28.1335 48.5959 28.7274 48.8072 29.1482L48.9189 28.7893C49.0929 28.0964 49.0681 27.3292 49.2793 26.661C48.5177 26.7673 47.742 26.7082 47.0054 26.4877H46.993ZM55.5419 26.661L55.3307 26.5125L55.4549 26.8466C55.2662 30.8405 53.8862 34.6877 51.4911 37.8967C51.0728 38.4928 50.5754 39.0298 50.0124 39.493C51.0093 40.3276 51.9399 41.2377 52.7958 42.2153L52.9077 42.0297C56.7092 37.855 58.9093 32.4782 59.1205 26.8466L59.2696 26.5496L59.0957 26.6362H55.5295L55.5419 26.661ZM50.5716 26.5744C50.5735 27.3207 50.5111 28.0659 50.3852 28.8017L50.8077 29.2472C50.8618 29.3383 50.8814 29.4457 50.8632 29.55C50.845 29.6543 50.7901 29.7487 50.7083 29.8164C50.6239 29.8733 50.5244 29.9037 50.4225 29.9037C50.3206 29.9037 50.2211 29.8733 50.1367 29.8164C49.6715 31.5041 48.9328 33.1049 47.9498 34.5557C47.5397 35.0754 47.1421 35.7931 46.5953 36.0777L47.7385 37.0677V36.8202C47.7385 36.6717 47.8255 36.4984 47.9995 36.5232C48.5462 36.5232 48.5586 37.0924 48.8817 37.3894C48.8196 37.872 49.2296 38.2432 49.0929 38.6268C52.1213 35.3952 53.8849 31.1889 54.0632 26.7724L54.2372 26.5744C53.1189 26.6857 51.926 26.5744 50.7704 26.5744L50.497 26.4877L50.5716 26.5744ZM21.4207 26.5744L21.6071 26.8713C21.7681 27.6859 21.8265 28.5172 21.7811 29.3462C21.9178 29.1111 21.9551 28.7893 22.2533 28.6285C22.2533 28.4057 21.955 28.3439 21.9923 28.1211C22.2284 27.6633 21.9923 26.8837 22.6136 26.7105C22.4125 26.7914 22.1949 26.8236 21.9788 26.8042C21.7627 26.7849 21.5544 26.7145 21.371 26.5991L21.4207 26.5744ZM15.3942 26.5744L15.0587 26.6981H11.5919C11.7619 30.5245 12.8074 34.2617 14.6486 37.6245C15.6477 39.2551 16.7606 40.814 17.9788 42.2896L20.464 39.7157L20.7622 39.6043C20.3278 39.2364 19.9361 38.8214 19.5941 38.3669C19.3762 38.3103 19.1717 38.2111 18.9926 38.0751C18.8134 37.9392 18.6631 37.7692 18.5504 37.575L18.4012 37.0924L18.2521 37.278C17.8172 37.4884 17.6557 37.0429 17.3575 36.8573C17.0593 36.6717 17.1587 35.9045 16.6368 36.053C16.438 36.053 16.3759 35.8178 16.2516 35.6817C15.7546 35.6817 15.6303 35.1992 15.3694 34.9393L15.2078 35.261C14.7108 35.3847 14.5368 34.7784 14.2013 34.5186L13.928 34.63C13.7759 34.5009 13.6521 34.3419 13.5645 34.1631C13.4768 33.9842 13.4271 33.7893 13.4185 33.5905C13.0084 33.1326 13.1948 32.3531 13.2694 31.8458C13.344 31.6849 13.5552 31.6106 13.5304 31.4127C13.5055 31.2147 13.9156 31.128 14.1765 31.1157L14.425 31.3508C14.5741 31.2394 14.9469 31.3508 14.8102 30.9919C15.0527 30.8232 15.3356 30.7207 15.6303 30.6949C15.7912 30.9682 15.9785 31.2251 16.1895 31.4622L16.0155 31.1899C15.6996 29.9488 15.5 28.6812 15.4191 27.4034V27.2178C15.3986 26.9873 15.3986 26.7554 15.4191 26.5249L15.3942 26.5744ZM20.2776 26.5744L20.0042 26.6981C18.8435 26.7338 17.6817 26.7007 16.5249 26.5991L16.674 26.8095L16.9475 29.0987C17.1765 29.9552 17.3386 30.8281 17.4321 31.7096C17.5688 31.5116 17.4321 31.1404 17.8173 31.1157C17.6806 30.8311 18.0782 30.596 17.8173 30.3608C17.848 29.7455 18.0993 29.1616 18.5256 28.7151C19.1717 28.7151 19.2089 27.8613 19.855 27.8242C20.1905 27.8242 20.3894 28.2449 20.5136 28.4058C20.3473 28.1343 20.2374 27.8322 20.1904 27.5176C20.1435 27.2031 20.1604 26.8823 20.2402 26.5744H20.2776ZM26.7017 28.1087C27.0496 28.7522 27.2484 29.4947 27.5964 30.1381C27.9443 30.7816 28.317 31.1528 28.5531 31.722C28.8678 31.2793 29.2212 30.8652 29.6093 30.4846C29.6251 30.4008 29.6233 30.3147 29.604 30.2317C29.5848 30.1486 29.5485 30.0704 29.4975 30.002C29.3856 29.7421 29.4975 29.3586 29.2862 29.1358C28.9632 29.2472 29.3981 29.5813 29.2862 29.7545L28.988 29.606C28.8484 29.5733 28.7198 29.5046 28.6151 29.4069C28.5105 29.3092 28.4334 29.1859 28.3916 29.0492C28.6277 28.9007 28.3916 28.8388 28.2673 28.7151L28.0312 28.777H27.8449C27.8449 28.0716 27.0372 28.5047 26.739 28.1211L26.7017 28.1087ZM30.6282 29.0987C30.5312 29.4092 30.3507 29.6874 30.1063 29.903C30.4045 29.705 30.6282 29.3091 31.001 29.2843L30.5785 29.0739L30.6282 29.0987ZM40.4943 30.1134C40.4884 30.3285 40.5588 30.5388 40.6931 30.7073C41.1777 30.6331 40.9665 31.3013 41.4138 31.2518C41.6623 31.1652 41.4138 30.9548 41.5008 30.8063C41.4262 30.4227 41.0535 30.3856 40.8174 30.1629L40.8795 29.9649C40.6807 29.8659 40.5937 29.9649 40.4943 30.1134ZM47.5646 30.1134C47.2042 30.1134 46.7693 30.299 46.4462 30.0515L46.2723 30.2C46.148 30.3856 46.0237 30.6207 45.738 30.5341C45.4522 30.4475 45.5143 30.2 45.4397 30.0144L45.3776 30.4104C45.1686 30.6683 44.9855 30.9459 44.8309 31.2394C44.5824 31.524 44.1475 31.425 43.8741 31.6601C43.8741 32.2541 43.1658 32.1303 42.7806 32.316L42.8925 32.4645C42.9837 32.5 43.0835 32.5072 43.1789 32.4851C43.2743 32.463 43.3607 32.4127 43.4268 32.3407C43.9487 32.4768 43.8368 31.8086 44.1475 31.5983C44.4084 31.5983 44.6445 31.3384 44.9303 31.5116C45.1849 31.871 45.2916 32.3138 45.2285 32.7491C44.9303 33.0584 45.0794 33.541 44.8681 33.8998C44.8681 34.2958 44.4208 34.4938 44.4829 34.9022C44.3897 34.9822 44.2809 35.0421 44.1633 35.0783C44.0457 35.1145 43.9219 35.1262 43.7995 35.1125C42.7922 34.7366 41.7392 34.4953 40.6682 34.3948L40.5191 34.63C40.9664 34.8651 41.5132 34.8774 41.9853 35.0754C42.4575 35.2734 42.706 35.7065 43.2279 35.5456C43.7498 35.3848 44.4705 35.6941 44.7315 35.2115C44.7315 34.7661 45.0794 34.432 45.2782 33.9741H45.4273C45.6758 34.234 45.6634 34.6176 45.7753 34.9022C46.1232 34.531 46.409 34.1226 46.7072 33.7266C47.5556 32.5753 48.1755 31.2734 48.5338 29.8906C48.1954 29.8974 47.8602 29.9558 47.5397 30.0639L47.5646 30.1134ZM31.8211 30.1134C31.1236 31.0029 30.3503 31.831 29.5099 32.5882C30.7951 33.6579 32.3435 34.367 33.9956 34.6423C34.095 34.3082 33.9956 33.8875 34.1199 33.5905C34.2441 33.2935 34.5921 33.3307 34.8282 33.3925L34.9773 33.0584C34.6169 32.9842 34.7784 32.5882 34.6542 32.3655C34.5299 32.1427 34.8779 32.2665 34.8282 32.0932C34.5796 31.8952 34.9524 31.6725 34.7412 31.4622L35.0145 31.2518C34.2193 31.6725 33.3867 31.1652 32.6785 30.8558C32.3554 30.6578 31.8833 30.4722 31.8087 30.0762L31.8211 30.1134ZM39.0778 32.2912C39.0778 32.3902 38.9038 32.5634 39.0778 32.6377C39.376 32.3283 40.0221 32.3284 40.0469 31.8829C39.8646 31.8707 39.6819 31.9013 39.5135 31.9722C39.3452 32.0431 39.196 32.1524 39.0778 32.2912ZM40.4943 33.2317C40.1091 33.2317 39.9103 33.541 39.6121 33.7637C39.3138 33.9865 39.0901 33.3802 38.8043 33.541L38.9287 33.64V34.0112C38.5062 34.3825 38.3074 33.8132 37.9097 33.8504V34.0112L37.7606 34.1721C37.5121 33.7637 37.0027 33.9246 36.7541 33.5534C36.5926 33.4667 36.4435 33.5534 36.3192 33.6771C36.1949 33.8009 35.8346 33.6771 35.934 33.9617C35.6234 34.0731 35.5861 34.4072 35.3625 34.6176C34.9773 34.5557 34.8033 34.9888 34.4305 34.9764L34.5423 35.1868C34.7685 35.2864 35.0195 35.3166 35.263 35.2734C35.6358 34.6794 36.2695 35.1744 36.7914 34.9517C37.1145 34.9517 36.8908 35.36 37.1269 35.4838C37.6364 35.3229 38.0216 35.9292 38.444 35.558C38.444 34.9641 39.0777 35.0135 39.4381 34.8651C40.0097 34.531 40.6807 34.0855 40.5813 33.3306L40.4943 33.2193V33.2317ZM28.4413 33.5781C27.6935 34.4985 26.8616 35.3477 25.9561 36.1148C26.3413 36.1148 26.5526 36.5603 26.8881 36.7459C28.7717 38.1664 30.9562 39.1398 33.2749 39.592L32.6785 39.3074C32.2187 38.8124 31.585 38.2061 31.5726 37.5007C32.0199 37.3522 31.9702 36.8573 32.1194 36.5232C32.4686 36.1521 32.9241 35.8972 33.424 35.7931C32.1815 36.3252 31.0631 35.3848 30.007 34.9022C29.4726 34.5062 28.7644 34.1844 28.4537 33.5905L28.4413 33.5781ZM45.8374 37.0429L45.7504 36.7954C45.6222 37.0745 45.4256 37.317 45.1788 37.5007C45.1788 37.7111 45.1788 38.0081 45.3652 38.1442C45.8622 38.3051 46.5084 38.6268 46.6078 39.2084C46.409 39.7528 45.3652 40.2478 45.9989 40.8418C46.2102 41.1387 45.7007 41.2625 45.8001 41.51L45.974 41.2625C46.7665 40.7116 47.5105 40.0949 48.1982 39.4187H48.2977C48.1486 39.3569 47.9622 39.5054 47.7882 39.4187C47.6413 39.3407 47.5227 39.2187 47.4492 39.0699C47.3756 38.9212 47.3508 38.7532 47.3782 38.5897L45.8374 37.0058V37.0429ZM25.7449 37.5131V37.4389V37.5874V37.5255V37.5131ZM26.1425 38.0452C26.0664 38.0086 25.9998 37.9549 25.9481 37.8883C25.8964 37.8218 25.8608 37.7441 25.8443 37.6616L26.1425 38.0452ZM26.2295 38.1566C26.304 38.4535 26.7141 38.6391 26.5899 39.0104C26.4656 39.3816 25.9437 39.3569 25.5834 39.3445C24.8875 39.2331 24.3408 39.7652 23.6698 39.8395C22.9988 39.9137 22.8497 39.295 22.2781 39.3445C25.598 42.397 29.8714 44.2189 34.3808 44.5045L34.7287 44.7396L34.5796 44.3189V41.0398L34.2814 41.1635C31.3536 41.0063 28.544 39.9614 26.2295 38.1689V38.1566ZM49.242 40.5695L49.1799 40.2726C48.7103 40.9142 48.1296 41.4672 47.4652 41.9059C46.6575 42.7226 45.3279 42.8959 44.9179 44.0591C44.483 44.455 44.3214 45.0861 43.6753 45.2965C43.4516 45.9028 42.8179 45.8657 42.4327 46.2988C41.3765 47.2392 40.7055 45.7048 39.7487 45.5068L37.8352 45.8533C37.1891 45.9577 36.5304 45.9577 35.8843 45.8533C35.9716 47.1511 35.9716 48.4533 35.8843 49.7512L36.1204 49.6026C41.972 49.3664 47.5408 47.033 51.8017 43.032L49.1675 40.5571L49.242 40.5695ZM21.5077 40.5695V40.718L18.9355 43.2919C22.6685 46.6206 27.308 48.7735 32.2685 49.4789C33.1023 49.533 33.9321 49.6363 34.7536 49.7883L34.5672 49.4789V46.1132L34.6914 45.9275L34.3062 46.0265C29.5157 45.8176 24.9657 43.8776 21.5077 40.5695ZM35.7601 41.4357L35.9589 41.7203C36.0213 42.7423 36.0213 43.7671 35.9589 44.7891C36.9451 44.5743 37.9461 44.4337 38.9535 44.3684C38.7418 44.3211 38.5505 44.2085 38.4068 44.0467C37.8228 44.0467 37.5494 43.4032 37.363 42.9454C37.1766 42.4875 37.4996 42.3391 37.6363 42.0544C37.3878 41.5347 36.6175 41.9183 36.1577 41.7327C36.0335 41.6337 35.9464 41.4728 35.7725 41.4481L35.7601 41.4357Z" fill="#C0C3CE"/>
<path fill-rule="evenodd" clip-rule="evenodd" d="M58.7601 5.68686C60.4165 7.28469 61.5326 9.35634 61.9535 11.6144L62.2518 12.3074C59.5581 10.369 57.2598 7.93728 55.4797 5.14237L53.3922 3.05103C55.2188 3.83064 57.1821 4.28851 58.7477 5.68686H58.7601Z" fill="#C0C3CE"/>
<path fill-rule="evenodd" clip-rule="evenodd" d="M12.3001 8.92917C10.9979 10.2897 9.60282 11.559 8.125 12.7281C8.87055 11.1813 8.89545 9.34991 9.96407 7.92684C11.48 5.31582 14.2758 4.38774 16.7609 3.41016C15.0604 5.07251 13.5631 6.92919 12.3001 8.94156V8.92917Z" fill="#C0C3CE"/>
<path fill-rule="evenodd" clip-rule="evenodd" d="M65.2464 11.676C65.8305 14.2871 64.973 16.8363 65.5198 19.4722C64.0908 16.6631 61.059 15.3513 58.9714 13.1115C57.8507 11.7871 57.1424 10.1657 56.9336 8.4462C58.1762 11.3172 61.3572 11.9483 63.1465 14.3614C63.6589 14.9503 64.078 15.6139 64.3891 16.329H64.4512C63.5591 13.971 62.8406 11.5516 62.3015 9.08968C61.9032 7.98327 61.1694 7.02756 60.2016 6.35486C61.4393 6.72074 62.5574 7.40726 63.4416 8.34432C64.3257 9.28137 64.9442 10.4354 65.234 11.6884L65.2464 11.676Z" fill="#C0C3CE"/>
<path fill-rule="evenodd" clip-rule="evenodd" d="M10.0262 6.78821C7.54107 8.48349 7.71504 11.5152 6.93221 14.0396C6.67127 14.9676 6.23639 15.8338 6.02515 16.7867H6.08727C6.54347 15.6583 7.23848 14.6411 8.12504 13.8044C9.87708 12.1834 12.4865 11.1811 13.3439 8.79285C13.3439 12.1092 10.5233 14.7325 7.85171 16.6011C6.72959 17.5079 5.79311 18.6212 5.09322 19.8802C5.09322 19.0388 5.21746 18.1974 5.15533 17.3064C4.86954 14.4108 4.6583 11.1192 6.70856 8.94133C7.54902 7.88246 8.71411 7.12633 10.0262 6.78821Z" fill="#C0C3CE"/>
<path fill-rule="evenodd" clip-rule="evenodd" d="M66.812 12.2575C67.9166 13.874 68.5956 15.741 68.7867 17.6869C68.9777 19.6329 68.6747 21.5956 67.9055 23.3945C67.3066 24.8735 66.8894 26.4191 66.6629 27.9978C66.5511 27.7256 66.5262 27.3543 66.4268 27.045C65.5446 23.6915 62.3635 21.3032 61.0464 18.1477C60.614 17.112 60.2932 16.0335 60.0896 14.9304C61.4937 17.5043 64.9357 18.8283 65.8676 21.6745C66.1503 22.4483 66.3543 23.2484 66.4765 24.0627L66.5883 23.9761C66.2114 21.0281 66.2448 18.0425 66.6877 15.1036C66.791 13.5995 66.4266 12.1002 65.644 10.8097C66.2031 11.1314 66.4641 11.7501 66.8865 12.2451L66.812 12.2575Z" fill="#C0C3CE"/>
<path fill-rule="evenodd" clip-rule="evenodd" d="M4.7328 11.3169C2.83166 14.1879 4.40971 17.8137 4.32273 21.0931L4.07428 24.4342L4.1985 24.5209C4.31033 24.1372 4.33517 23.7536 4.40972 23.3576C4.86947 20.6599 7.20556 18.7418 9.26824 16.8732C9.71007 16.4197 10.0676 15.8918 10.3244 15.314C10.1409 16.6763 9.7513 18.0031 9.16881 19.2492C7.57831 22.3676 4.60858 24.9169 4.07428 28.4808C3.80091 25.0654 1.47726 22.5161 1.71335 18.9027C1.72965 16.1324 2.7488 13.461 4.5837 11.3788L4.7328 11.3169Z" fill="#C0C3CE"/>
<path fill-rule="evenodd" clip-rule="evenodd" d="M68.8871 31.6235C67.5699 33.4673 65.9794 35.2122 64.7741 37.0931C65.0457 35.509 64.9523 33.8841 64.5008 32.3413C63.4003 29.2746 62.6704 26.0883 62.3263 22.8498V21.6123C63.0967 25.0401 66.464 27.3914 66.2528 31.2151C66.2516 32.0751 66.1217 32.9301 65.8676 33.752L66.0167 33.5787C66.3781 31.6732 66.8891 29.7988 67.545 27.973C68.6509 25.498 70.0302 22.8993 69.4587 19.8428C70.2303 21.7302 70.5725 23.7643 70.4607 25.7991C70.349 27.8339 69.7861 29.8188 68.8125 31.6111L68.8871 31.6235Z" fill="#C0C3CE"/>
<path fill-rule="evenodd" clip-rule="evenodd" d="M3.81377 30.4354C4.05513 31.7211 4.37889 32.99 4.78302 34.2345L4.90725 34.1726C3.66467 30.5839 5.46641 27.2675 7.31785 24.4708C7.75056 23.6953 8.06864 22.8617 8.26222 21.9958C8.32981 23.7318 8.17948 25.4695 7.81483 27.1685C7.3675 29.297 6.68409 31.3388 6.11251 33.3559C5.7871 34.7074 5.7575 36.1128 6.02559 37.4767L5.83918 37.3282C4.47234 34.8532 1.77591 32.8733 0.980663 30.1384C0.203686 27.8637 -0.0219408 25.4382 0.322138 23.0601C0.484149 22.1326 0.742323 21.2244 1.09253 20.35C0.334557 24.2233 2.95641 27.0324 3.82621 30.3983L3.81377 30.4354Z" fill="#C0C3CE"/>
<path fill-rule="evenodd" clip-rule="evenodd" d="M63.718 37.5131C63.6373 39.1284 63.1129 40.6908 62.202 42.0298H62.3511C63.4445 40.3912 64.6267 38.8131 65.8925 37.3027C68.067 35.2237 70.2788 33.0706 70.5645 30.1749C71.2977 35.0134 68.5765 39.2579 64.5381 41.9926C62.8854 43.0816 61.1955 44.084 59.5677 45.3214V45.1729C62.0529 41.1141 60.8104 35.5579 62.3263 31.103L62.8854 29.6057C62.5623 32.3776 63.7801 34.7412 63.6931 37.5254L63.718 37.5131Z" fill="#C0C3CE"/>
<path fill-rule="evenodd" clip-rule="evenodd" d="M10.0263 43.0448C10.3614 43.9384 10.7429 44.8141 11.1694 45.6682C7.44167 43.1933 2.37198 40.7184 0.719355 36.115C0.078837 34.3927 -0.138466 32.5427 0.085628 30.7197C0.396272 34.8281 4.83225 37.0184 6.89493 40.4214C7.33276 41.1626 7.85385 41.8517 8.44815 42.4756C8.34875 42.0425 7.93874 41.6589 7.78963 41.2381C7.06325 39.726 6.78312 38.0394 6.98192 36.3749C7.18073 34.2712 8.07537 32.316 7.73988 30.101C9.54161 33.999 8.98247 38.8498 10.0138 43.0695L10.0263 43.0448Z" fill="#C0C3CE"/>
<path fill-rule="evenodd" clip-rule="evenodd" d="M58.1761 46.0763C57.5193 47.2188 56.6799 48.2469 55.6909 49.1204C56.0016 49.1204 56.2998 48.8358 56.5856 48.6378C59.2695 45.9649 62.7985 45.2225 65.6689 43.0569C66.8629 42.1695 67.8048 40.9883 68.4025 39.6292C67.8557 44.0345 63.4322 48.1923 59.282 49.5288C57.1448 50.0856 54.8336 50.296 52.7585 51.0013C56.2998 47.982 56.101 43.292 58.4619 39.7405C59.159 38.6963 59.9097 37.6885 60.7109 36.7212C59.282 39.6045 59.9032 43.3168 58.2258 46.101L58.1761 46.0763Z" fill="#C0C3CE"/>
<path fill-rule="evenodd" clip-rule="evenodd" d="M13.5552 42.3514C14.7977 45.4079 15.2823 48.8727 18.1651 51.1868C15.0462 50.1721 11.3806 50.4567 8.63452 48.5387C7.0768 47.636 5.72168 46.4245 4.65302 44.9792C3.58436 43.534 2.82489 41.8857 2.42163 40.1364C4.49674 44.8139 9.69068 45.1976 13.1823 48.0437C13.7962 48.5945 14.4816 49.0607 15.2202 49.4296C14.3454 48.7153 13.5758 47.8822 12.9339 46.9547C10.896 44.121 11.6043 40.1735 10.0883 37.1294C11.4855 38.7127 12.6601 40.4778 13.58 42.3762L13.5552 42.3514Z" fill="#C0C3CE"/>
<path fill-rule="evenodd" clip-rule="evenodd" d="M50.6213 51.4464C49.8171 51.8268 48.9866 52.1494 48.1361 52.4116C49.2307 52.3218 50.3182 52.1606 51.3916 51.929C55.517 51.2855 60.2388 51.929 63.1216 48.4516C61.8137 50.9569 59.5896 52.8662 56.9087 53.7852C52.6964 55.3692 48.4716 53.4263 44.4829 52.7705L43.7125 52.6839C45.6679 52.3635 47.5054 51.5402 49.0432 50.2955C51.1331 48.0757 53.4067 46.0349 55.8401 44.1947C53.9762 46.5707 53.7774 49.9614 50.7082 51.4835L50.6213 51.4464Z" fill="#C0C3CE"/>
<path fill-rule="evenodd" clip-rule="evenodd" d="M21.7188 50.3327C23.3172 51.6334 25.2341 52.4876 27.2731 52.8076C26.7885 52.9809 26.1548 52.9314 25.6205 53.0675C21.9797 53.9585 17.9414 55.4187 14.0645 54.1193C11.3574 53.235 9.08529 51.3656 7.70251 48.8849C11.0326 52.5972 16.4006 51.3598 20.8987 52.3869C21.5041 52.5606 22.1328 52.6399 22.7626 52.622C22.2407 52.2879 21.52 52.325 20.9236 52.028C17.4444 50.7906 16.9349 47.0782 15.0586 44.6033C17.4377 46.358 19.6655 48.3076 21.7188 50.4317V50.3327Z" fill="#C0C3CE"/>
<path fill-rule="evenodd" clip-rule="evenodd" d="M48.8569 55.4183C50.2497 55.9258 51.7413 56.1061 53.2156 55.9451C54.6899 55.7842 56.1069 55.2862 57.3561 54.4902C56.1772 55.9234 54.6254 57.0064 52.8704 57.621C49.1426 59.0193 45.2037 57.621 42.2837 55.3441C41.0411 54.6016 40.0595 53.525 38.5559 53.624C38.0295 53.5904 37.5009 53.6406 36.9903 53.7725C39.9122 55.1391 42.5834 56.9837 44.8931 59.2296C44.4516 59.6804 43.9736 60.0943 43.4641 60.4671C41.2641 57.9143 38.6209 55.7766 35.6607 54.1561C35.0903 54.2872 34.5477 54.5176 34.0578 54.8367C31.589 56.3375 29.4126 58.2701 27.6336 60.5414L26.1302 59.3039C28.4182 56.9702 31.1073 55.0633 34.0702 53.6735C31.2247 52.7825 29.3733 55.1584 27.1988 56.3588C25.8862 57.2995 24.3667 57.9138 22.7671 58.1506C21.1675 58.3874 19.5343 58.2397 18.0037 57.7199C16.2897 57.1355 14.7687 56.0957 13.605 54.7129C14.8963 55.503 16.3546 55.9826 17.8644 56.1136C19.3742 56.2447 20.894 56.0236 22.303 55.4678C26.0307 53.8839 29.7585 51.8792 34.1821 52.8444C34.8655 52.8444 35.5489 53.5374 36.195 52.9558C39.5057 52.1738 42.9888 52.6134 45.999 54.1932L48.919 55.3564L48.8569 55.4183Z" fill="#C0C3CE"/>
<path fill-rule="evenodd" clip-rule="evenodd" d="M83.6738 45.0491V51.3351C83.6738 53.6986 84.7176 54.7009 86.1589 54.7009C87.6003 54.7009 88.7186 53.6614 88.7186 51.3351V45.0491H90.0854V51.2361C90.0854 54.4781 88.3955 55.8021 86.1092 55.8021C83.8229 55.8021 82.3815 54.5647 82.3815 51.2856V45.0986L83.6738 45.0491Z" fill="#C0C3CE"/>
<path fill-rule="evenodd" clip-rule="evenodd" d="M92.3346 50.0851C92.3346 49.2808 92.3346 48.6497 92.3346 48.0186H93.5772L93.6642 49.256C93.9125 48.8198 94.2744 48.4585 94.7118 48.2102C95.1492 47.9619 95.6459 47.8358 96.1493 47.8453C97.1931 47.8453 98.8084 48.4764 98.8084 51.0875V55.6166H97.4416V51.236C97.4416 49.9985 96.9943 48.9714 95.702 48.9714C95.2857 48.9851 94.8843 49.1286 94.5543 49.3817C94.2243 49.6349 93.9825 49.9848 93.8629 50.3821C93.8007 50.5908 93.7714 50.8079 93.776 51.0256V55.6166H92.3967V50.0728L92.3346 50.0851Z" fill="#C0C3CE"/>
<path fill-rule="evenodd" clip-rule="evenodd" d="M101.641 46.6326C101.465 46.6302 101.293 46.5759 101.148 46.4765C101.002 46.3771 100.89 46.2371 100.824 46.0741C100.758 45.9111 100.742 45.7324 100.778 45.5603C100.814 45.3883 100.9 45.2307 101.026 45.1074C101.151 44.984 101.311 44.9003 101.484 44.8669C101.657 44.8336 101.836 44.8519 101.999 44.9197C102.162 44.9875 102.301 45.1017 102.399 45.2479C102.496 45.3942 102.549 45.5659 102.549 45.7416C102.552 45.8596 102.531 45.977 102.487 46.0866C102.444 46.1962 102.378 46.2959 102.294 46.3793C102.21 46.4627 102.11 46.5282 102 46.5718C101.89 46.6153 101.772 46.636 101.654 46.6326H101.641ZM100.983 55.6291V47.9939H102.35V55.592L100.983 55.6291Z" fill="#C0C3CE"/>
<path fill-rule="evenodd" clip-rule="evenodd" d="M106.276 46.2119V47.9939H108.19V49.0457H106.227V53.1418C106.227 54.0822 106.487 54.6144 107.245 54.6144C107.514 54.6244 107.783 54.591 108.041 54.5153L108.103 55.5672C107.702 55.6986 107.282 55.7614 106.86 55.7528C106.587 55.7655 106.313 55.7202 106.058 55.6199C105.803 55.5197 105.573 55.3667 105.382 55.1712C104.968 54.5881 104.779 53.8769 104.847 53.1665V49.021H103.679V47.9939H104.847V46.6326L106.189 46.2119H106.276Z" fill="#C0C3CE"/>
<path fill-rule="evenodd" clip-rule="evenodd" d="M110.464 52.0652C110.441 52.4109 110.491 52.7575 110.611 53.0826C110.732 53.4077 110.919 53.7041 111.161 53.9526C111.404 54.201 111.696 54.396 112.019 54.5249C112.342 54.6538 112.688 54.7138 113.036 54.701C113.751 54.7197 114.462 54.589 115.123 54.3173L115.372 55.2949C114.586 55.626 113.74 55.7904 112.887 55.7775C112.379 55.8062 111.871 55.7256 111.397 55.5413C110.923 55.3569 110.495 55.073 110.141 54.709C109.788 54.345 109.517 53.9094 109.347 53.4318C109.178 52.9543 109.114 52.4459 109.159 51.9414C109.159 49.6397 110.514 47.833 112.713 47.833C115.198 47.833 115.819 50.011 115.819 51.4093C115.839 51.6275 115.839 51.847 115.819 52.0652H110.464ZM114.465 51.0752C114.503 50.802 114.484 50.5239 114.407 50.2588C114.331 49.9938 114.199 49.7476 114.021 49.5364C113.843 49.3252 113.623 49.1537 113.374 49.0329C113.125 48.9121 112.853 48.8448 112.576 48.8354C112.008 48.8787 111.477 49.133 111.088 49.5478C110.699 49.9626 110.481 50.5077 110.476 51.0752H114.465Z" fill="#C0C3CE"/>
<path fill-rule="evenodd" clip-rule="evenodd" d="M123.995 44.4795V53.6615C123.995 54.3421 123.995 55.1093 124.058 55.6291H122.815V54.305C122.576 54.7716 122.208 55.1605 121.755 55.4258C121.301 55.6911 120.781 55.8217 120.255 55.8023C118.441 55.8023 117.012 54.2431 117.012 51.9414C117.012 49.3922 118.565 47.8578 120.392 47.8578C120.84 47.8271 121.288 47.9178 121.688 48.1205C122.089 48.3231 122.427 48.6301 122.666 49.0086V44.4795H123.995ZM122.629 51.1247C122.649 50.9272 122.649 50.7281 122.629 50.5307C122.53 50.0821 122.28 49.6806 121.921 49.3926C121.561 49.1046 121.114 48.9473 120.653 48.9467C119.236 48.9467 118.391 50.1842 118.391 51.8672C118.391 53.5501 119.162 54.6886 120.616 54.6886C121.089 54.6821 121.546 54.5157 121.911 54.2167C122.277 53.9176 122.53 53.5037 122.629 53.0427C122.65 52.8453 122.65 52.6462 122.629 52.4488V51.1247Z" fill="#C0C3CE"/>
<path fill-rule="evenodd" clip-rule="evenodd" d="M129.624 55.6291V45.0365H131.128L134.47 50.3947C135.175 51.497 135.801 52.6464 136.347 53.8348C136.222 52.4241 136.198 51.1371 136.198 49.5037V45.0613H137.44V55.6538H136.061L132.731 50.2833C132.002 49.148 131.351 47.9657 130.78 46.7442C130.854 48.0806 130.867 49.3428 130.867 51.1124V55.6291H129.624Z" fill="#C0C3CE"/>
<path fill-rule="evenodd" clip-rule="evenodd" d="M145.107 53.8107C145.102 54.419 145.139 55.0269 145.219 55.63H143.976L143.852 54.6646C143.586 55.0237 143.237 55.3136 142.835 55.5097C142.432 55.7058 141.989 55.8022 141.541 55.7908C141.243 55.8096 140.945 55.767 140.665 55.6657C140.385 55.5643 140.129 55.4064 139.914 55.2019C139.698 54.9974 139.527 54.7506 139.411 54.4771C139.295 54.2037 139.238 53.9093 139.242 53.6126C139.242 51.7809 140.857 50.7661 143.777 50.7908V50.6299C143.809 50.3961 143.786 50.1582 143.712 49.9342C143.638 49.7101 143.513 49.5058 143.348 49.3366C143.183 49.1674 142.982 49.0378 142.759 48.9574C142.536 48.877 142.298 48.8479 142.063 48.8725C141.362 48.8656 140.675 49.0636 140.087 49.4418L139.776 48.5136C140.53 48.0755 141.389 47.8489 142.261 47.8577C144.585 47.8577 145.144 49.4418 145.144 50.9641V53.8107H145.107ZM143.765 51.7067C142.274 51.7067 140.571 51.9418 140.571 53.4146C140.56 53.5843 140.583 53.7546 140.64 53.9149C140.697 54.0752 140.787 54.2221 140.903 54.3463C141.02 54.4706 141.161 54.5696 141.318 54.6371C141.474 54.7046 141.643 54.7393 141.814 54.7389C142.214 54.7531 142.609 54.641 142.941 54.4188C143.273 54.1966 143.527 53.8755 143.665 53.5013L143.728 53.0557V51.7067H143.765Z" fill="#C0C3CE"/>
<path fill-rule="evenodd" clip-rule="evenodd" d="M148.897 46.2119V47.9938H150.86V49.0456H148.897V53.1415C148.897 54.0819 149.158 54.614 149.928 54.614C150.197 54.6241 150.465 54.5906 150.723 54.515V55.5668C150.323 55.6982 149.902 55.761 149.481 55.7524C149.207 55.7635 148.934 55.7175 148.68 55.6174C148.425 55.5172 148.194 55.3651 148.002 55.1708C147.592 54.5864 147.403 53.8763 147.468 53.1662V49.0208H146.3V47.9938H147.468V46.6326L148.81 46.2119H148.897Z" fill="#C0C3CE"/>
<path fill-rule="evenodd" clip-rule="evenodd" d="M153.059 46.6326C152.883 46.6302 152.711 46.5759 152.566 46.4765C152.42 46.3771 152.307 46.2371 152.242 46.0741C152.176 45.9111 152.16 45.7324 152.196 45.5603C152.232 45.3883 152.318 45.2307 152.443 45.1074C152.569 44.984 152.729 44.9003 152.902 44.8669C153.075 44.8336 153.254 44.8519 153.417 44.9197C153.58 44.9875 153.719 45.1017 153.816 45.2479C153.914 45.3942 153.966 45.5659 153.966 45.7416C153.972 45.8611 153.952 45.9804 153.908 46.0918C153.864 46.2032 153.798 46.3042 153.712 46.3882C153.626 46.4722 153.524 46.5373 153.412 46.5794C153.299 46.6215 153.179 46.6397 153.059 46.6326ZM152.401 55.6291V47.9939H153.78V55.592L152.401 55.6291Z" fill="#C0C3CE"/>
<path fill-rule="evenodd" clip-rule="evenodd" d="M159.136 55.803C158.633 55.8048 158.136 55.7024 157.676 55.5024C157.216 55.3024 156.802 55.0091 156.462 54.6412C156.122 54.2733 155.863 53.8388 155.7 53.3655C155.538 52.8922 155.477 52.3904 155.52 51.8921C155.475 51.3782 155.538 50.8606 155.705 50.3723C155.872 49.8841 156.14 49.4358 156.49 49.0562C156.841 48.6766 157.267 48.374 157.742 48.1676C158.217 47.9612 158.729 47.8557 159.247 47.8576C159.745 47.8527 160.238 47.9509 160.696 48.1459C161.153 48.3409 161.565 48.6285 161.905 48.9903C162.245 49.3522 162.506 49.7806 162.671 50.2482C162.836 50.7157 162.901 51.2123 162.863 51.7065C162.91 52.2214 162.848 52.7404 162.682 53.2301C162.516 53.7199 162.248 54.1697 161.898 54.5507C161.547 54.9316 161.12 55.2354 160.644 55.4425C160.168 55.6497 159.655 55.7555 159.136 55.7534V55.803ZM159.136 54.7634C160.44 54.7634 161.422 53.5258 161.422 51.7931C161.422 50.5555 160.788 48.8848 159.16 48.8848C157.533 48.8848 156.862 50.3946 156.862 51.8426C156.862 53.5134 157.794 54.7634 159.123 54.7634H159.136Z" fill="#C0C3CE"/>
<path fill-rule="evenodd" clip-rule="evenodd" d="M164.59 50.0852C164.59 49.2807 164.59 48.6495 164.59 48.0183H165.833L165.92 49.2559C166.167 48.8188 166.529 48.4566 166.967 48.2081C167.404 47.9597 167.902 47.8342 168.405 47.845C169.449 47.845 171.064 48.4762 171.064 51.0877V55.6176H169.697V51.2362C169.697 49.9985 169.25 48.9713 167.958 48.9713C167.541 48.985 167.14 49.1285 166.81 49.3817C166.48 49.6348 166.238 49.9848 166.119 50.3822C166.059 50.5914 166.029 50.8082 166.032 51.0258V55.6176H164.665V50.0728L164.59 50.0852Z" fill="#C0C3CE"/>
<path fill-rule="evenodd" clip-rule="evenodd" d="M173.052 54.1811C173.608 54.5064 174.235 54.6893 174.879 54.7132C175.861 54.7132 176.333 54.2183 176.333 53.5748C176.333 52.9312 175.935 52.56 174.941 52.1763C173.574 51.6813 172.928 50.9388 172.928 50.0354C172.94 49.7147 173.018 49.3999 173.157 49.1104C173.296 48.821 173.494 48.5632 173.738 48.3531C173.981 48.143 174.266 47.9851 174.573 47.8891C174.881 47.7932 175.205 47.7613 175.525 47.7955C176.17 47.7781 176.807 47.941 177.364 48.2658L177.041 49.2558C176.577 48.9733 176.045 48.8195 175.5 48.8103C174.68 48.8103 174.258 49.2806 174.258 49.8498C174.258 50.4191 174.693 50.7779 175.674 51.1492C176.917 51.6442 177.662 52.3001 177.662 53.451C177.662 54.7999 176.619 55.7404 174.854 55.7404C174.111 55.751 173.379 55.5675 172.729 55.2082L173.065 54.1687L173.052 54.1811Z" fill="#C0C3CE"/>
<path fill-rule="evenodd" clip-rule="evenodd" d="M186.857 55.8022C184.062 55.8022 182.136 53.6367 182.136 50.4317C182.136 47.2267 184.198 44.8756 186.994 44.8756C189.79 44.8756 191.728 47.0906 191.728 50.2337C191.728 53.8595 189.529 55.8022 186.87 55.8022H186.857ZM186.857 54.6886C189.007 54.6886 190.225 52.6962 190.225 50.2956C190.225 48.1796 189.131 45.9893 186.882 45.9893C184.633 45.9893 183.502 48.1053 183.502 50.407C183.502 52.7086 184.745 54.7009 186.857 54.7009V54.6886Z" fill="#C0C3CE"/>
<path fill-rule="evenodd" clip-rule="evenodd" d="M193.816 55.6292V49.0827H192.772V47.9937H193.816V47.6348C193.78 47.1562 193.84 46.6753 193.994 46.2204C194.147 45.7655 194.391 45.346 194.711 44.9866C195.198 44.5226 195.85 44.2691 196.525 44.2812C196.925 44.2779 197.322 44.3536 197.693 44.5039L197.519 45.5682C197.236 45.4482 196.931 45.3891 196.624 45.3949C195.468 45.3949 195.17 46.4344 195.17 47.5977V47.9937H196.997V49.0456H195.17V55.592L193.816 55.6292Z" fill="#C0C3CE"/>
<path fill-rule="evenodd" clip-rule="evenodd" d="M198.364 55.6292V49.0827H197.32V47.9937H198.364V47.6348C198.327 47.1572 198.386 46.6771 198.538 46.2225C198.689 45.7678 198.93 45.3478 199.246 44.9866C199.738 44.5219 200.394 44.2685 201.073 44.2812C201.473 44.2779 201.87 44.3536 202.241 44.504L202.067 45.5682C201.784 45.4475 201.479 45.3884 201.172 45.395C200.029 45.395 199.706 46.4345 199.706 47.5977V47.9937H201.532V49.0456H199.718V55.592L198.364 55.6292Z" fill="#C0C3CE"/>
<path fill-rule="evenodd" clip-rule="evenodd" d="M203.446 46.6326C203.269 46.6302 203.098 46.5759 202.952 46.4765C202.807 46.3771 202.694 46.2371 202.628 46.0741C202.562 45.9111 202.546 45.7324 202.582 45.5603C202.618 45.3883 202.704 45.2307 202.83 45.1074C202.956 44.984 203.115 44.9003 203.288 44.8669C203.461 44.8336 203.641 44.8519 203.803 44.9197C203.966 44.9875 204.105 45.1017 204.203 45.2479C204.301 45.3942 204.353 45.5659 204.353 45.7416C204.356 45.8585 204.336 45.9749 204.293 46.0837C204.25 46.1925 204.185 46.2915 204.103 46.3747C204.02 46.458 203.922 46.5237 203.813 46.568C203.705 46.6124 203.588 46.6343 203.471 46.6326H203.446ZM202.787 55.6291V47.9939H204.154V55.592L202.787 55.6291Z" fill="#C0C3CE"/>
<path fill-rule="evenodd" clip-rule="evenodd" d="M211.808 55.4183C211.126 55.7115 210.39 55.859 209.646 55.8514C209.135 55.8709 208.626 55.7818 208.153 55.5903C207.679 55.3987 207.252 55.109 206.899 54.7403C206.546 54.3716 206.277 53.9324 206.108 53.4519C205.939 52.9714 205.874 52.4606 205.919 51.9534C205.89 51.4156 205.975 50.8779 206.169 50.3749C206.362 49.8719 206.659 49.415 207.041 49.0336C207.423 48.6522 207.881 48.3548 208.385 48.1608C208.89 47.9667 209.429 47.8802 209.969 47.907C210.626 47.8953 211.277 48.0351 211.871 48.3153L211.56 49.3671C211.068 49.1186 210.521 48.9953 209.969 49.0083C209.598 49.0048 209.229 49.0792 208.889 49.2268C208.548 49.3745 208.242 49.592 207.991 49.8651C207.74 50.1383 207.55 50.461 207.433 50.8123C207.315 51.1636 207.274 51.5355 207.31 51.9039C207.273 52.2668 207.314 52.6334 207.43 52.9796C207.545 53.3257 207.733 53.6436 207.98 53.9124C208.228 54.1812 208.53 54.3948 208.866 54.5392C209.203 54.6835 209.566 54.7554 209.932 54.75C210.511 54.755 211.084 54.6325 211.61 54.3912L211.846 55.4306L211.808 55.4183Z" fill="#C0C3CE"/>
<path fill-rule="evenodd" clip-rule="evenodd" d="M214.095 52.0652C214.072 52.4109 214.122 52.7575 214.242 53.0826C214.362 53.4077 214.55 53.7041 214.792 53.9526C215.035 54.201 215.327 54.396 215.65 54.5249C215.973 54.6538 216.319 54.7138 216.667 54.701C217.382 54.7201 218.093 54.5894 218.754 54.3173L219.003 55.2949C218.217 55.6267 217.371 55.7911 216.518 55.7775C216.01 55.8062 215.502 55.7256 215.028 55.5413C214.554 55.3569 214.126 55.073 213.772 54.709C213.419 54.345 213.148 53.9094 212.978 53.4318C212.809 52.9543 212.745 52.4459 212.79 51.9414C212.79 49.6397 214.157 47.833 216.344 47.833C218.829 47.833 219.45 50.011 219.45 51.4093C219.47 51.6275 219.47 51.847 219.45 52.0652H214.095ZM218.108 51.0752C218.145 50.8024 218.124 50.525 218.047 50.2607C217.969 49.9964 217.838 49.7511 217.66 49.5403C217.482 49.3296 217.262 49.158 217.014 49.0366C216.766 48.9153 216.496 48.8467 216.22 48.8354C215.651 48.8787 215.12 49.133 214.731 49.5478C214.342 49.9626 214.124 50.5077 214.12 51.0752H218.108Z" fill="#C0C3CE"/>
<path fill-rule="evenodd" clip-rule="evenodd" d="M227.477 55.803C226.975 55.8048 226.478 55.7024 226.018 55.5024C225.558 55.3024 225.144 55.0091 224.804 54.6412C224.464 54.2733 224.204 53.8388 224.042 53.3655C223.88 52.8922 223.818 52.3904 223.861 51.8921C223.817 51.3782 223.88 50.8606 224.047 50.3723C224.214 49.8841 224.481 49.4358 224.832 49.0562C225.183 48.6766 225.609 48.374 226.084 48.1676C226.558 47.9612 227.071 47.8557 227.589 47.8576C228.087 47.8527 228.58 47.9509 229.037 48.1459C229.495 48.3409 229.907 48.6285 230.247 48.9903C230.587 49.3522 230.847 49.7806 231.012 50.2482C231.177 50.7157 231.243 51.2123 231.205 51.7065C231.252 52.2214 231.19 52.7404 231.024 53.2301C230.857 53.7199 230.59 54.1697 230.239 54.5507C229.888 54.9316 229.461 55.2354 228.986 55.4425C228.51 55.6497 227.996 55.7555 227.477 55.7534V55.803ZM227.477 54.7634C228.782 54.7634 229.764 53.5258 229.764 51.7931C229.764 50.5555 229.13 48.8848 227.502 48.8848C225.874 48.8848 225.191 50.3946 225.191 51.8426C225.191 53.5134 226.135 54.7634 227.452 54.7634H227.477Z" fill="#C0C3CE"/>
<path fill-rule="evenodd" clip-rule="evenodd" d="M232.969 50.0851C232.969 49.2808 232.969 48.6497 232.969 48.0186H234.212L234.299 49.256C234.547 48.8198 234.909 48.4585 235.347 48.2102C235.784 47.9619 236.281 47.8358 236.784 47.8453C237.828 47.8453 239.443 48.4764 239.443 51.0875V55.6166H238.064V51.236C238.064 49.9985 237.617 48.9714 236.324 48.9714C235.908 48.9851 235.507 49.1286 235.177 49.3817C234.847 49.6349 234.605 49.9848 234.485 50.3821C234.424 50.591 234.395 50.808 234.398 51.0256V55.6166H233.032V50.0728L232.969 50.0851Z" fill="#C0C3CE"/>
<path fill-rule="evenodd" clip-rule="evenodd" d="M244.96 45.1853C245.919 45.0408 246.886 44.9663 247.856 44.9625C249.387 44.8341 250.91 45.2996 252.105 46.2618C252.614 46.756 253.01 47.353 253.267 48.0126C253.524 48.6722 253.637 49.3791 253.596 50.0856C253.63 50.8353 253.514 51.5842 253.256 52.2893C252.998 52.9944 252.603 53.6417 252.093 54.194C250.799 55.289 249.126 55.8355 247.433 55.716C246.603 55.7299 245.773 55.6886 244.948 55.5923V45.1729L244.96 45.1853ZM246.327 54.5652C246.78 54.624 247.237 54.6447 247.694 54.627C250.602 54.627 252.167 52.9936 252.167 50.1351C252.167 47.6602 250.788 46.0515 247.918 46.0515C247.384 46.0416 246.851 46.0872 246.327 46.1876V54.5528V54.5652Z" fill="#C0C3CE"/>
<path fill-rule="evenodd" clip-rule="evenodd" d="M255.348 50.3944C255.348 49.5034 255.348 48.7238 255.286 48.0184H256.529L256.591 49.5158C256.719 49.0522 256.991 48.6409 257.368 48.3408C257.746 48.0407 258.209 47.8672 258.691 47.8452H259.064V49.0827C258.902 49.0722 258.74 49.0722 258.579 49.0827C258.11 49.1022 257.665 49.2915 257.326 49.6151C256.987 49.9386 256.779 50.3742 256.74 50.8399C256.723 51.0582 256.723 51.2775 256.74 51.4958V55.5547H255.373V50.3202L255.348 50.3944Z" fill="#C0C3CE"/>
<path fill-rule="evenodd" clip-rule="evenodd" d="M266.706 53.5622C266.706 54.3417 266.706 55.0347 266.706 55.6287H265.463L265.388 54.3913C265.139 54.8266 264.777 55.1871 264.34 55.4353C263.902 55.6834 263.406 55.81 262.903 55.8019C261.661 55.8019 260.294 55.1337 260.294 52.4733V47.9939H261.673V52.1887C261.673 53.6364 262.12 54.6635 263.351 54.6635C263.74 54.6586 264.12 54.5384 264.441 54.318C264.761 54.0976 265.009 53.7872 265.152 53.4261C265.24 53.2015 265.282 52.9617 265.277 52.7208V47.9939H266.656V53.5251L266.706 53.5622Z" fill="#C0C3CE"/>
<path fill-rule="evenodd" clip-rule="evenodd" d="M275.428 54.5151C275.504 55.1388 275.449 55.7715 275.265 56.3725C275.081 56.9735 274.772 57.5295 274.36 58.0047C273.582 58.6333 272.602 58.9587 271.601 58.9204C270.731 58.938 269.872 58.7199 269.116 58.2894L269.452 57.2251C270.114 57.639 270.882 57.8538 271.663 57.8439C273.067 57.8439 274.148 57.1014 274.148 55.171V54.3419C273.895 54.7417 273.54 55.0672 273.118 55.2847C272.697 55.5022 272.224 55.6039 271.75 55.5793C271.291 55.5564 270.84 55.4408 270.427 55.2396C270.013 55.0384 269.645 54.7557 269.344 54.4087C269.043 54.0617 268.816 53.6575 268.676 53.2207C268.537 52.7838 268.488 52.3233 268.532 51.867C268.532 49.2807 270.197 47.8453 271.949 47.8453C272.424 47.815 272.898 47.9213 273.315 48.1517C273.731 48.382 274.072 48.7267 274.298 49.1446V48.0185H275.54C275.54 48.5506 275.54 49.1694 275.54 50.0974V54.5028L275.428 54.5151ZM274.061 51.0131C274.069 50.8043 274.044 50.5955 273.987 50.3944C273.879 49.9682 273.63 49.5903 273.281 49.3212C272.932 49.0521 272.502 48.9071 272.061 48.9095C270.756 48.9095 269.812 50.0355 269.812 51.8051C269.812 53.2777 270.57 54.5399 272.036 54.5399C272.465 54.5404 272.883 54.4019 273.226 54.1451C273.569 53.8884 273.819 53.5274 273.937 53.1168C274.014 52.8768 274.052 52.6262 274.049 52.3743V51.0131H274.061Z" fill="#C0C3CE"/>
<path fill-rule="evenodd" clip-rule="evenodd" d="M277.491 54.1811C278.043 54.5044 278.666 54.6872 279.305 54.7132C280.287 54.7132 280.759 54.2183 280.759 53.5747C280.759 52.9312 280.361 52.56 279.367 52.1763C278 51.6813 277.354 50.9388 277.354 50.0354C277.366 49.7147 277.444 49.3998 277.583 49.1104C277.723 48.821 277.92 48.5632 278.164 48.3531C278.407 48.143 278.692 47.9851 278.999 47.8891C279.307 47.7932 279.631 47.7613 279.951 47.7955C280.596 47.7768 281.234 47.9398 281.79 48.2658L281.467 49.2558C281.003 48.9733 280.471 48.8195 279.926 48.8103C279.119 48.8103 278.684 49.2805 278.684 49.8498C278.684 50.4191 279.119 50.7779 280.1 51.1492C281.343 51.6442 282.076 52.3001 282.076 53.451C282.076 54.7999 281.045 55.7404 279.268 55.7404C278.529 55.7512 277.8 55.5676 277.155 55.2082L277.479 54.1687L277.491 54.1811Z" fill="#C0C3CE"/>
<path fill-rule="evenodd" clip-rule="evenodd" d="M292.464 53.8107C292.457 54.419 292.494 55.0271 292.576 55.63H291.333L291.209 54.6646C290.945 55.0228 290.598 55.3121 290.198 55.5082C289.798 55.7043 289.356 55.8012 288.91 55.7908C288.613 55.8096 288.315 55.767 288.035 55.6657C287.755 55.5643 287.499 55.4064 287.283 55.2019C287.067 54.9974 286.896 54.7506 286.781 54.4772C286.665 54.2037 286.608 53.9094 286.612 53.6127C286.612 51.781 288.227 50.7661 291.147 50.7909V50.63C291.178 50.3961 291.156 50.1582 291.082 49.9342C291.007 49.7102 290.883 49.5059 290.718 49.3367C290.553 49.1675 290.351 49.0378 290.129 48.9574C289.906 48.877 289.668 48.848 289.432 48.8725C288.728 48.8661 288.037 49.064 287.444 49.4419L287.133 48.5136C287.887 48.075 288.746 47.8483 289.619 47.8577C291.942 47.8577 292.501 49.4418 292.501 50.9641V53.8107H292.464ZM291.134 51.7067C289.631 51.7067 287.941 51.9419 287.941 53.4146C287.929 53.5843 287.952 53.7546 288.009 53.9149C288.067 54.0752 288.156 54.2221 288.273 54.3463C288.389 54.4706 288.53 54.5696 288.687 54.6371C288.844 54.7046 289.013 54.7393 289.184 54.7389C289.583 54.7512 289.977 54.6384 290.309 54.4164C290.641 54.1944 290.895 53.8744 291.035 53.5013L291.097 53.0557V51.7067H291.134Z" fill="#C0C3CE"/>
<path fill-rule="evenodd" clip-rule="evenodd" d="M294.663 50.0852C294.663 49.2807 294.663 48.6495 294.663 48.0183H295.906L295.993 49.2559C296.24 48.8188 296.602 48.4566 297.04 48.2081C297.477 47.9597 297.975 47.8342 298.478 47.845C299.522 47.845 301.137 48.4762 301.137 51.0877V55.6176H299.758V51.2362C299.758 49.9985 299.311 48.9713 298.018 48.9713C297.604 48.9857 297.204 49.1297 296.876 49.3829C296.548 49.6362 296.309 49.9858 296.192 50.3822C296.125 50.5901 296.091 50.8074 296.092 51.0258V55.6176H294.726V50.0728L294.663 50.0852Z" fill="#C0C3CE"/>
<path fill-rule="evenodd" clip-rule="evenodd" d="M309.811 44.4795V53.6615C309.811 54.3421 309.81 55.1093 309.873 55.6291H308.63L308.568 54.305C308.329 54.7716 307.961 55.1605 307.508 55.4258C307.054 55.6911 306.534 55.8217 306.008 55.8023C304.182 55.8023 302.765 54.2431 302.765 51.9414C302.765 49.3922 304.331 47.8578 306.145 47.8578C306.593 47.8271 307.041 47.9178 307.441 48.1205C307.842 48.3231 308.18 48.6301 308.419 49.0086V44.4795H309.811ZM308.444 51.1247C308.466 50.9273 308.466 50.728 308.444 50.5307C308.345 50.0821 308.095 49.6806 307.736 49.3926C307.376 49.1046 306.929 48.9473 306.468 48.9467C305.051 48.9467 304.206 50.1842 304.206 51.8672C304.206 53.5501 304.964 54.6886 306.431 54.6886C306.904 54.6844 307.363 54.5187 307.729 54.2193C308.095 53.9199 308.347 53.5047 308.444 53.0427C308.468 52.8455 308.468 52.6461 308.444 52.4488V51.1247Z" fill="#C0C3CE"/>
<path fill-rule="evenodd" clip-rule="evenodd" d="M322.758 55.2949C321.882 55.6622 320.937 55.8353 319.987 55.8022C319.28 55.8348 318.574 55.7165 317.916 55.4552C317.258 55.1939 316.664 54.7956 316.173 54.2871C315.683 53.7786 315.307 53.1716 315.071 52.5067C314.835 51.8418 314.745 51.1343 314.806 50.4317C314.759 49.6975 314.869 48.9618 315.128 48.2727C315.386 47.5836 315.788 46.9564 316.306 46.4322C316.824 45.9079 317.447 45.4983 318.135 45.2301C318.823 44.9619 319.56 44.8411 320.298 44.8756C321.152 44.8399 322.002 45.0008 322.783 45.3458L322.435 46.4596C321.777 46.1584 321.059 46.0103 320.335 46.0264C317.85 46.0264 316.235 47.6104 316.235 50.3946C316.235 53.1788 317.713 54.6638 320.248 54.6638C321.013 54.6748 321.771 54.5229 322.472 54.2183L322.733 55.3196L322.758 55.2949Z" fill="#C0C3CE"/>
<path fill-rule="evenodd" clip-rule="evenodd" d="M324.398 50.3944C324.398 49.5034 324.398 48.7238 324.336 48.0184H325.579V49.5158C325.708 49.0503 325.982 48.6375 326.361 48.3372C326.741 48.0369 327.207 47.8646 327.691 47.8452H328.064V49.0827C327.903 49.072 327.741 49.072 327.579 49.0827C327.11 49.1022 326.665 49.2915 326.326 49.6151C325.988 49.9386 325.779 50.3742 325.74 50.8399C325.726 51.0583 325.726 51.2774 325.74 51.4958V55.5547H324.398V50.3202V50.3944Z" fill="#C0C3CE"/>
<path fill-rule="evenodd" clip-rule="evenodd" d="M330.226 46.6327C330.009 46.6071 329.808 46.5028 329.662 46.3398C329.517 46.1767 329.437 45.9661 329.437 45.748C329.437 45.5298 329.517 45.3192 329.662 45.1562C329.808 44.9931 330.009 44.8888 330.226 44.8632C330.342 44.8597 330.458 44.8801 330.566 44.9232C330.674 44.9662 330.772 45.031 330.853 45.1135C330.935 45.196 330.999 45.2943 331.04 45.4025C331.082 45.5106 331.101 45.6261 331.096 45.7418C331.099 45.8586 331.079 45.975 331.036 46.0838C330.993 46.1926 330.928 46.2916 330.846 46.3749C330.763 46.4581 330.665 46.5238 330.556 46.5682C330.448 46.6125 330.331 46.6345 330.214 46.6327H330.226ZM329.567 55.6292V47.994H330.947V55.592L329.567 55.6292Z" fill="#C0C3CE"/>
<path fill-rule="evenodd" clip-rule="evenodd" d="M333.208 50.0854C333.208 49.2809 333.208 48.6498 333.146 48.0186H334.389L334.451 49.2562C334.677 48.8237 335.02 48.4632 335.442 48.2159C335.864 47.9686 336.347 47.8445 336.837 47.8578C337.307 47.8552 337.766 48.0011 338.148 48.2746C338.529 48.5481 338.814 48.9351 338.961 49.3799C339.168 48.9891 339.461 48.6505 339.819 48.3899C340.287 48.0203 340.874 47.8314 341.471 47.8578C342.478 47.8578 343.956 48.5137 343.956 51.162V55.642H342.614V51.3353C342.614 49.8626 342.068 48.9963 340.987 48.9963C340.62 49.0129 340.266 49.1401 339.973 49.3611C339.681 49.582 339.462 49.8864 339.347 50.2339C339.279 50.459 339.242 50.692 339.235 50.9269V55.642H337.893V51.0878C337.893 49.8502 337.358 48.9963 336.315 48.9963C335.921 49.0214 335.545 49.1686 335.24 49.4172C334.935 49.6658 334.715 50.0033 334.612 50.3824C334.538 50.5974 334.5 50.8232 334.501 51.0506V55.642H333.159V50.0977L333.208 50.0854Z" fill="#C0C3CE"/>
<path fill-rule="evenodd" clip-rule="evenodd" d="M346.988 52.0652C346.965 52.4109 347.016 52.7575 347.136 53.0826C347.256 53.4077 347.443 53.7041 347.686 53.9526C347.928 54.201 348.221 54.396 348.543 54.5249C348.866 54.6538 349.213 54.7138 349.561 54.701C350.276 54.7194 350.987 54.5887 351.648 54.3173L351.897 55.2949C351.111 55.6267 350.265 55.7911 349.411 55.7775C348.904 55.8062 348.396 55.7256 347.922 55.5413C347.448 55.3569 347.02 55.073 346.666 54.709C346.312 54.345 346.041 53.9094 345.872 53.4318C345.702 52.9543 345.638 52.4459 345.684 51.9414C345.684 49.6397 347.038 47.833 349.237 47.833C351.723 47.833 352.344 50.011 352.344 51.4093C352.364 51.6275 352.364 51.847 352.344 52.0652H346.988ZM350.99 51.0752C351.028 50.802 351.008 50.5239 350.932 50.2588C350.856 49.9938 350.724 49.7476 350.546 49.5364C350.368 49.3252 350.147 49.1537 349.898 49.0329C349.649 48.9121 349.378 48.8448 349.101 48.8354C348.533 48.8787 348.001 49.133 347.613 49.5478C347.224 49.9626 347.005 50.5077 347.001 51.0752H350.99Z" fill="#C0C3CE"/>
</svg>
