<svg id="Слой_1" data-name="Слой 1" xmlns="http://www.w3.org/2000/svg" viewBox="0 0 264 232"><defs><style>.cls-1{fill:#ffc20e;}</style></defs><title>yellow</title><path class="cls-1" d="M264,74.25c-.83-27.71-24.11-55.35-50.74-66.8S156.45.79,122.18,2.16,49.47,1.5,26.35,20.31-4.71,78.82,2.68,113.91s30.17,65.7,59.38,87.94,64.8,36.26,92.51,27.51,47.41-40.32,68-70S264.81,102,264,74.25Zm-56.49,78.37c-17.17,24.64-33.64,50.91-56.68,58.18S98,206.44,73.72,187.92,30.45,144,24.23,114.76,24.64,52.56,44,36.9s51.3-14,79.86-15.1,53.64-5.12,75.88,4.4S241.29,58.72,242,81.77,224.71,128,207.49,152.62Z" transform="translate(0 0)"/></svg>