<svg width="264" height="260" viewBox="0 0 264 260" fill="none" xmlns="http://www.w3.org/2000/svg">
<path d="M252.847 23.1665C271.363 46.543 263.112 91.9284 254.601 128.849C246.09 165.769 237.384 194.16 218.868 217.601C200.351 241.043 172.025 259.536 143.243 259.991C114.462 260.447 85.2257 242.866 58.4583 219.424C31.6909 195.983 7.45736 166.681 1.48018 131.388C-4.497 96.0958 7.84717 54.8126 34.5496 31.5013C61.3169 8.12484 102.508 2.78538 145.777 0.701687C189.047 -1.38201 234.33 -0.144812 252.847 23.1665Z" fill="#EB3450"/>
<path d="M232.723 41.246C248.155 60.6665 241.278 98.3713 234.185 129.044C227.092 159.716 219.837 183.302 204.405 202.776C188.974 222.251 165.366 237.614 141.379 237.993C117.393 238.371 93.0274 223.766 70.7194 204.291C48.4113 184.817 28.215 160.473 23.2336 131.153C18.2522 101.833 28.5399 67.5366 50.7937 48.1703C73.1018 28.7499 107.43 24.314 143.491 22.5829C179.552 20.8519 217.292 21.8797 232.723 41.246Z" fill="white"/>
</svg>
