<svg id="Слой_1" data-name="Слой 1" xmlns="http://www.w3.org/2000/svg" viewBox="0 0 34 25.08"><defs><style>.cls-1{fill:#fff;}</style></defs><title>chat-icon</title><path class="cls-1" d="M16,21.54" transform="translate(-2 -2.54)"/><path class="cls-1" d="M32.5,27.12V23.54h-4l3.11,3.89A.5.5,0,0,0,32.5,27.12Z" transform="translate(-2 -2.54)"/><path class="cls-1" d="M33,11.54H26v3a5,5,0,0,1-5,5H17v2a3,3,0,0,0,3,3H33a3,3,0,0,0,3-3v-7A3,3,0,0,0,33,11.54Z" transform="translate(-2 -2.54)"/><path class="cls-1" d="M24,11.54v-6a3,3,0,0,0-3-3H5a3,3,0,0,0-3,3v9a3,3,0,0,0,3,3H21a3,3,0,0,0,3-3Z" transform="translate(-2 -2.54)"/><path class="cls-1" d="M6,20.64v-4.1h4.5L6.89,21A.5.5,0,0,1,6,20.64Z" transform="translate(-2 -2.54)"/></svg>