<svg width="16" height="17" viewBox="0 0 16 17" fill="none" xmlns="http://www.w3.org/2000/svg">
<path d="M15.6443 13.9443L12.3463 10.6452C13.1411 9.49746 13.5387 8.21793 13.5387 6.80732C13.5387 5.89033 13.3607 5.01334 13.0048 4.17654C12.6491 3.3396 12.1683 2.61822 11.5625 2.01224C10.9568 1.40625 10.2357 0.925251 9.39928 0.569413C8.56254 0.213475 7.68593 0.0355225 6.76928 0.0355225C5.8527 0.0355225 4.97602 0.213475 4.13952 0.569413C3.30289 0.925251 2.58177 1.40625 1.976 2.01224C1.37016 2.61822 0.889407 3.33974 0.533665 4.17654C0.177888 5.01344 0 5.89033 0 6.80732C0 7.72423 0.177888 8.60092 0.533665 9.43796C0.889374 10.2748 1.37016 10.996 1.976 11.602C2.58177 12.2082 3.30302 12.689 4.13952 13.0451C4.97612 13.4009 5.8527 13.5788 6.76928 13.5788C8.17969 13.5788 9.45855 13.1811 10.606 12.386L13.904 15.6756C14.1348 15.9192 14.4229 16.0411 14.7693 16.0411C15.1026 16.0411 15.3913 15.9192 15.6347 15.6756C15.8782 15.432 16 15.1434 16 14.81C16.0001 14.4703 15.8815 14.1816 15.6443 13.9443ZM9.81258 9.85137C8.96965 10.6947 7.95529 11.1164 6.76928 11.1164C5.58347 11.1164 4.56912 10.6946 3.72612 9.85137C2.88312 9.00814 2.46164 7.99355 2.46164 6.80711C2.46164 5.62088 2.88322 4.60599 3.72612 3.76285C4.56895 2.91952 5.58347 2.49792 6.76928 2.49792C7.95516 2.49792 8.96951 2.91969 9.81258 3.76285C10.6556 4.60599 11.0771 5.62088 11.0771 6.80711C11.0771 7.99355 10.6555 9.00814 9.81258 9.85137Z" fill="white"/>
</svg>
