<svg width="194" height="40" viewBox="0 0 194 40" fill="none" xmlns="http://www.w3.org/2000/svg">
<path d="M53.9453 17.1745H56.7294V13.378H58.8445C61.6828 13.378 63.9607 11.8594 63.9607 8.93075C63.9607 6.3094 62.1348 4.51964 59.1157 4.51964H53.9453V17.1745ZM56.7294 10.9013V7.03253H58.8807C60.2727 7.03253 61.1405 7.70143 61.1405 8.94883C61.1405 10.0697 60.327 10.9013 58.9349 10.9013H56.7294Z" fill="#5DB9E0"/>
<path d="M72.1677 17.3914C76.0726 17.3914 78.9109 14.4446 78.9109 10.8471C78.9109 7.21331 76.1088 4.3027 72.2038 4.3027C68.2989 4.3027 65.4606 7.24947 65.4606 10.8471C65.4606 14.4808 68.2628 17.3914 72.1677 17.3914ZM72.2038 14.8243C69.9621 14.8243 68.3712 13.0165 68.3712 10.8471C68.3712 8.6415 69.926 6.86982 72.1677 6.86982C74.4094 6.86982 76.0003 8.67766 76.0003 10.8471C76.0003 13.0526 74.4456 14.8243 72.2038 14.8243Z" fill="#5DB9E0"/>
<path d="M81.3806 17.1745H84.1104V8.96691L87.6357 14.3181H87.708L91.2694 8.91267V17.1745H94.0354V4.51964H91.0344L87.708 9.87082L84.3816 4.51964H81.3806V17.1745Z" fill="#5DB9E0"/>
<path d="M103.222 17.3914C107.127 17.3914 109.965 14.4446 109.965 10.8471C109.965 7.21331 107.163 4.3027 103.258 4.3027C99.3534 4.3027 96.5151 7.24947 96.5151 10.8471C96.5151 14.4808 99.3172 17.3914 103.222 17.3914ZM103.258 14.8243C101.017 14.8243 99.4257 13.0165 99.4257 10.8471C99.4257 8.6415 100.98 6.86982 103.222 6.86982C105.464 6.86982 107.055 8.67766 107.055 10.8471C107.055 13.0526 105.5 14.8243 103.258 14.8243Z" fill="#5DB9E0"/>
<path d="M118.527 17.3914C120.841 17.3914 122.631 16.4875 123.933 15.3847V9.8889H118.437V12.2933H121.239V14.1011C120.534 14.6073 119.63 14.8604 118.618 14.8604C116.376 14.8604 114.785 13.1611 114.785 10.8471C114.785 8.65958 116.394 6.86982 118.419 6.86982C119.883 6.86982 120.751 7.33986 121.727 8.15338L123.481 6.03822C122.161 4.91737 120.787 4.3027 118.509 4.3027C114.677 4.3027 111.875 7.24947 111.875 10.8471C111.875 14.6254 114.586 17.3914 118.527 17.3914Z" fill="#5DB9E0"/>
<path d="M131.891 17.3733C135.289 17.3733 137.441 15.4932 137.441 11.6606V4.51964H134.657V11.769C134.657 13.7757 133.626 14.8062 131.927 14.8062C130.227 14.8062 129.197 13.7396 129.197 11.6787V4.51964H126.413V11.751C126.413 15.4751 128.492 17.3733 131.891 17.3733Z" fill="#5DB9E0"/>
<path d="M143.223 17.1745H146.007V7.08676H149.858V4.51964H139.372V7.08676H143.223V17.1745Z" fill="#5DB9E0"/>
<path d="M149.8 17.1745H152.729V14.2819H149.8V17.1745Z" fill="#5DB9E0"/>
<path d="M155.371 17.1745H161.391C164.247 17.1745 166.128 16.0174 166.128 13.7034C166.128 11.9679 165.224 11.1182 163.759 10.5578C164.663 10.0516 165.423 9.25616 165.423 7.82797C165.423 6.92406 165.133 6.219 164.555 5.6405C163.832 4.91737 162.693 4.51964 161.246 4.51964H155.371V17.1745ZM158.083 9.63581V6.96022H160.831C162.006 6.96022 162.657 7.43025 162.657 8.26185C162.657 9.23808 161.879 9.63581 160.65 9.63581H158.083ZM158.083 14.7339V11.9498H161.301C162.729 11.9498 163.362 12.4741 163.362 13.3238C163.362 14.3 162.62 14.7339 161.391 14.7339H158.083Z" fill="#5DB9E0"/>
<path d="M171.432 17.1745H174.216V12.1306L179.079 4.51964H175.915L172.842 9.59965L169.823 4.51964H166.569L171.432 12.1848V17.1745Z" fill="#5DB9E0"/>
<path d="M56.8873 36.3193C58.9618 36.3193 60.4804 34.6652 60.4804 32.7127C60.4804 30.7874 58.9483 29.2281 57.1178 29.2281C55.6264 29.2281 54.7044 29.9196 54.2163 30.7467C54.3247 29.4044 54.8129 28.618 56.2636 28.2519L60.0601 27.3163L59.8567 26.435L55.9518 27.357C53.5112 27.94 53.335 30.1094 53.335 32.3738C53.335 34.8143 54.7586 36.3193 56.8873 36.3193ZM56.9145 35.3838C55.5044 35.3838 54.4061 34.2042 54.4061 32.7398C54.4061 31.2755 55.4366 30.0959 56.8873 30.0959C58.2975 30.0959 59.3957 31.2755 59.3957 32.7398C59.3957 34.2042 58.3653 35.3838 56.9145 35.3838Z" fill="#5DB9E0"/>
<path d="M65.4356 36.3193C66.7644 36.3193 67.6186 35.7906 68.3236 35.0041L67.6728 34.4211C67.1033 35.0177 66.4254 35.4109 65.4627 35.4109C64.2289 35.4109 63.1442 34.5567 62.995 33.0788H68.5541C68.5677 32.9161 68.5677 32.8076 68.5677 32.7127C68.5677 30.6518 67.3745 28.9976 65.3 28.9976C63.3611 28.9976 61.9374 30.6247 61.9374 32.6585C61.9374 34.8414 63.5103 36.3193 65.4356 36.3193ZM62.995 32.2382C63.1442 30.8823 64.0662 29.8789 65.2729 29.8789C66.6559 29.8789 67.3881 30.9636 67.5101 32.2382H62.995Z" fill="#5DB9E0"/>
<path d="M72.619 36.3193C74.3545 36.3193 75.3985 35.3296 75.3985 34.2042C75.3985 33.2822 74.8697 32.7534 74.0969 32.4822C74.6935 32.2382 75.2223 31.7365 75.2223 30.8687C75.2223 29.784 74.2596 28.9976 72.6868 28.9976C71.6563 28.9976 70.7072 29.3095 69.975 29.8789L70.4903 30.6111C71.1004 30.123 71.9275 29.9061 72.619 29.9061C73.4867 29.9061 74.1376 30.2993 74.1376 30.9501C74.1376 31.6823 73.5003 32.1568 72.5783 32.1568H71.6292V33.011H72.5647C73.7037 33.011 74.3274 33.4585 74.3274 34.1635C74.3274 34.977 73.5003 35.4109 72.5919 35.4109C71.7512 35.4109 70.9513 35.0991 70.2462 34.5025L69.7174 35.2753C70.5716 35.9668 71.5072 36.3193 72.619 36.3193Z" fill="#5DB9E0"/>
<path d="M80.5335 36.3193C82.6486 36.3193 84.2079 34.6381 84.2079 32.6585C84.2079 30.6518 82.6622 28.9976 80.5606 28.9976C78.4454 28.9976 76.8997 30.6789 76.8997 32.6585C76.8997 34.6652 78.4319 36.3193 80.5335 36.3193ZM80.5606 35.3838C79.0827 35.3838 77.9709 34.1635 77.9709 32.6585C77.9709 31.1535 79.0149 29.9196 80.5335 29.9196C82.0114 29.9196 83.1367 31.1535 83.1367 32.6585C83.1367 34.1635 82.0792 35.3838 80.5606 35.3838Z" fill="#5DB9E0"/>
<path d="M86.0991 36.1566H87.1431V30.0688H91.1294V36.1566H92.1734V29.1468H86.0991V36.1566Z" fill="#5DB9E0"/>
<path d="M96.5952 36.3058C97.829 36.3058 98.629 35.7363 99.1171 35.1126V36.1566H100.148V31.8721C100.148 30.9772 99.9035 30.2993 99.4154 29.8112C98.9137 29.3095 98.1409 29.0383 97.1511 29.0383C96.1206 29.0383 95.3749 29.2824 94.602 29.6349L94.9139 30.4891C95.5647 30.1908 96.2155 29.9874 97.0426 29.9874C98.3578 29.9874 99.1171 30.6382 99.1171 31.8856V32.1026C98.4934 31.9263 97.8697 31.8043 96.9748 31.8043C95.1986 31.8043 93.9783 32.5907 93.9783 34.0957C93.9783 35.5601 95.28 36.3058 96.5952 36.3058ZM96.7985 35.4651C95.8494 35.4651 95.0359 34.9499 95.0359 34.0686C95.0359 33.2008 95.7816 32.6314 97.0833 32.6314C97.9375 32.6314 98.6154 32.7805 99.1306 32.9297V33.5805C99.1306 34.6923 98.0866 35.4651 96.7985 35.4651Z" fill="#5DB9E0"/>
<path d="M105.518 36.3193C106.833 36.3193 107.674 35.7499 108.379 34.9635L107.688 34.3262C107.132 34.9228 106.467 35.3838 105.572 35.3838C104.108 35.3838 102.996 34.1771 102.996 32.6585C102.996 31.1263 104.081 29.9196 105.505 29.9196C106.454 29.9196 107.105 30.3671 107.66 30.9501L108.325 30.245C107.674 29.5535 106.847 28.9976 105.518 28.9976C103.471 28.9976 101.925 30.6789 101.925 32.6585C101.925 34.6516 103.471 36.3193 105.518 36.3193Z" fill="#5DB9E0"/>
<path d="M110.105 36.1566H111.149V33.0924H115.189V36.1566H116.234V29.1468H115.189V32.1704H111.149V29.1468H110.105V36.1566Z" fill="#5DB9E0"/>
<path d="M121.766 36.3193C123.881 36.3193 125.44 34.6381 125.44 32.6585C125.44 30.6518 123.895 28.9976 121.793 28.9976C119.678 28.9976 118.132 30.6789 118.132 32.6585C118.132 34.6652 119.664 36.3193 121.766 36.3193ZM121.793 35.3838C120.315 35.3838 119.203 34.1635 119.203 32.6585C119.203 31.1535 120.247 29.9196 121.766 29.9196C123.244 29.9196 124.369 31.1535 124.369 32.6585C124.369 34.1635 123.311 35.3838 121.793 35.3838Z" fill="#5DB9E0"/>
<path d="M130.491 36.3193C131.806 36.3193 132.646 35.7499 133.352 34.9635L132.66 34.3262C132.104 34.9228 131.44 35.3838 130.545 35.3838C129.081 35.3838 127.969 34.1771 127.969 32.6585C127.969 31.1263 129.053 29.9196 130.477 29.9196C131.426 29.9196 132.077 30.3671 132.633 30.9501L133.297 30.245C132.646 29.5535 131.819 28.9976 130.491 28.9976C128.443 28.9976 126.898 30.6789 126.898 32.6585C126.898 34.6516 128.443 36.3193 130.491 36.3193Z" fill="#5DB9E0"/>
<path d="M136.772 36.1566H137.83V30.0688H140.338V29.1468H134.264V30.0688H136.772V36.1566Z" fill="#5DB9E0"/>
<path d="M141.857 36.1566H144.894C146.494 36.1566 147.538 35.2753 147.538 33.8788C147.538 32.4009 146.29 31.7772 144.772 31.7772H142.901V29.1468H141.857V36.1566ZM142.901 35.2346V32.672H144.758C145.829 32.672 146.48 33.0924 146.48 33.9059C146.48 34.7872 145.843 35.2346 144.799 35.2346H142.901Z" fill="#5DB9E0"/>
<path d="M153.217 36.1566H156.729C158.275 36.1566 159.278 35.4245 159.278 34.2449C159.278 33.2551 158.573 32.7398 157.733 32.5093C158.316 32.2653 158.899 31.8178 158.899 30.8959C158.899 29.8383 158.004 29.1468 156.607 29.1468H153.217V36.1566ZM154.262 35.2618V32.9975H156.458C157.597 32.9975 158.207 33.4042 158.207 34.0822C158.207 34.8143 157.597 35.2618 156.594 35.2618H154.262ZM154.262 32.1568V30.0417H156.444C157.353 30.0417 157.841 30.4484 157.841 31.0314C157.841 31.7636 157.258 32.1568 156.417 32.1568H154.262Z" fill="#5DB9E0"/>
<path d="M168.386 36.3193C169.701 36.3193 170.542 35.7499 171.247 34.9635L170.556 34.3262C170 34.9228 169.335 35.3838 168.44 35.3838C166.976 35.3838 165.864 34.1771 165.864 32.6585C165.864 31.1263 166.949 29.9196 168.373 29.9196C169.322 29.9196 169.973 30.3671 170.528 30.9501L171.193 30.245C170.542 29.5535 169.715 28.9976 168.386 28.9976C166.339 28.9976 164.793 30.6789 164.793 32.6585C164.793 34.6516 166.339 36.3193 168.386 36.3193Z" fill="#5DB9E0"/>
<path d="M176.037 36.3193C177.366 36.3193 178.22 35.7906 178.925 35.0041L178.274 34.4211C177.705 35.0177 177.027 35.4109 176.064 35.4109C174.831 35.4109 173.746 34.5567 173.597 33.0788H179.156C179.169 32.9161 179.169 32.8076 179.169 32.7127C179.169 30.6518 177.976 28.9976 175.902 28.9976C173.963 28.9976 172.539 30.6247 172.539 32.6585C172.539 34.8414 174.112 36.3193 176.037 36.3193ZM173.597 32.2382C173.746 30.8823 174.668 29.8789 175.875 29.8789C177.258 29.8789 177.99 30.9636 178.112 32.2382H173.597Z" fill="#5DB9E0"/>
<path d="M182.692 36.1566H183.749V30.0688H186.258V29.1468H180.183V30.0688H182.692V36.1566Z" fill="#5DB9E0"/>
<path d="M187.776 36.1566H188.78L192.956 30.6111V36.1566H194V29.1468H192.983L188.82 34.6923V29.1468H187.776V36.1566Z" fill="#5DB9E0"/>
<path opacity="0.7" d="M24.4057 27.5694C24.4057 34.3089 18.9423 39.7723 12.2029 39.7723C5.46341 39.7723 0 34.3089 0 27.5694C0 20.83 5.46341 15.3665 12.2029 15.3665C18.9423 15.3665 24.4057 20.83 24.4057 27.5694Z" fill="white"/>
<path opacity="0.7" d="M42.4848 27.5694C42.4848 34.3089 37.0214 39.7723 30.282 39.7723C23.5425 39.7723 18.0791 34.3089 18.0791 27.5694C18.0791 20.83 23.5425 15.3665 30.282 15.3665C37.0214 15.3665 42.4848 20.83 42.4848 27.5694Z" fill="white"/>
<path opacity="0.7" d="M33.4448 12.2029C33.4448 18.9423 27.9814 24.4057 21.2419 24.4057C14.5025 24.4057 9.03906 18.9423 9.03906 12.2029C9.03906 5.46341 14.5025 0 21.2419 0C27.9814 0 33.4448 5.46341 33.4448 12.2029Z" fill="white"/>
<path opacity="0.7" d="M24.4057 27.5694C24.4057 34.3089 18.9423 39.7723 12.2029 39.7723C5.46341 39.7723 0 34.3089 0 27.5694C0 20.83 5.46341 15.3665 12.2029 15.3665C18.9423 15.3665 24.4057 20.83 24.4057 27.5694Z" fill="#2FBFC3"/>
<path opacity="0.7" d="M42.4848 27.5694C42.4848 34.3089 37.0214 39.7723 30.282 39.7723C23.5425 39.7723 18.0791 34.3089 18.0791 27.5694C18.0791 20.83 23.5425 15.3665 30.282 15.3665C37.0214 15.3665 42.4848 20.83 42.4848 27.5694Z" fill="#5DB9E0"/>
<path opacity="0.7" d="M33.4448 12.2029C33.4448 18.9423 27.9814 24.4057 21.2419 24.4057C14.5025 24.4057 9.03906 18.9423 9.03906 12.2029C9.03906 5.46341 14.5025 0 21.2419 0C27.9814 0 33.4448 5.46341 33.4448 12.2029Z" fill="#B2D66E"/>
</svg>
