<?xml version="1.0" encoding="utf-8"?>
<!-- Generator: Adobe Illustrator 23.0.6, SVG Export Plug-In . SVG Version: 6.00 Build 0)  -->
<svg version="1.1" id="Слой_1" xmlns="http://www.w3.org/2000/svg" xmlns:xlink="http://www.w3.org/1999/xlink" x="0px" y="0px"
	 viewBox="0 0 488 48" style="enable-background:new 0 0 488 48;" xml:space="preserve">
<style type="text/css">
	.st0{fill:#5DB9E0;}
	.st1{opacity:0.7;fill:#FFFFFF;enable-background:new    ;}
	.st2{opacity:0.7;fill:#2FBFC3;enable-background:new    ;}
	.st3{opacity:0.7;fill:#5DB9E0;enable-background:new    ;}
	.st4{opacity:0.7;fill:#B2D66E;enable-background:new    ;}
</style>
<path class="st0" d="M59.3,40.1h3.1v-4.2h2.3c3.1,0,5.7-1.7,5.7-4.9c0-2.9-2-4.9-5.4-4.9h-5.7V40.1z M62.4,33.1v-4.3h2.4
	c1.5,0,2.5,0.7,2.5,2.1c0,1.2-0.9,2.2-2.4,2.2H62.4z"/>
<path class="st0" d="M79.5,40.3c4.3,0,7.5-3.3,7.5-7.2c0-4-3.1-7.2-7.4-7.2s-7.5,3.3-7.5,7.2C72.1,37.1,75.2,40.3,79.5,40.3z
	 M79.5,37.5c-2.5,0-4.2-2-4.2-4.4c0-2.4,1.7-4.4,4.2-4.4c2.5,0,4.2,2,4.2,4.4C83.7,35.5,82,37.5,79.5,37.5z"/>
<path class="st0" d="M89.7,40.1h3V31l3.9,5.9h0.1l3.9-6v9.1h3.1v-14h-3.3L96.7,32L93,26.1h-3.3V40.1z"/>
<path class="st0" d="M113.9,40.3c4.3,0,7.5-3.3,7.5-7.2c0-4-3.1-7.2-7.4-7.2s-7.5,3.3-7.5,7.2C106.4,37.1,109.5,40.3,113.9,40.3z
	 M113.9,37.5c-2.5,0-4.2-2-4.2-4.4c0-2.4,1.7-4.4,4.2-4.4s4.2,2,4.2,4.4C118.1,35.5,116.4,37.5,113.9,37.5z"/>
<path class="st0" d="M130.8,40.3c2.6,0,4.5-1,6-2.2V32h-6.1v2.7h3.1v2c-0.8,0.6-1.8,0.8-2.9,0.8c-2.5,0-4.2-1.9-4.2-4.4
	c0-2.4,1.8-4.4,4-4.4c1.6,0,2.6,0.5,3.7,1.4l1.9-2.3c-1.5-1.2-3-1.9-5.5-1.9c-4.2,0-7.3,3.3-7.3,7.2
	C123.4,37.2,126.4,40.3,130.8,40.3z"/>
<path class="st0" d="M145.6,40.3c3.8,0,6.1-2.1,6.1-6.3v-7.9h-3.1v8c0,2.2-1.1,3.4-3,3.4c-1.9,0-3-1.2-3-3.5v-7.9h-3.1v8
	C139.5,38.2,141.8,40.3,145.6,40.3z"/>
<path class="st0" d="M158.1,40.1h3.1V28.9h4.3v-2.8h-11.6v2.8h4.3V40.1z"/>
<path class="st0" d="M165.4,40.1h3.2v-3.2h-3.2V40.1z"/>
<path class="st0" d="M171.5,40.1h6.7c3.2,0,5.2-1.3,5.2-3.8c0-1.9-1-2.9-2.6-3.5c1-0.6,1.8-1.4,1.8-3c0-1-0.3-1.8-1-2.4
	c-0.8-0.8-2.1-1.2-3.7-1.2h-6.5V40.1z M174.5,31.7v-3h3c1.3,0,2,0.5,2,1.4c0,1.1-0.9,1.5-2.2,1.5H174.5z M174.5,37.4v-3.1h3.6
	c1.6,0,2.3,0.6,2.3,1.5c0,1.1-0.8,1.6-2.2,1.6H174.5z"/>
<path class="st0" d="M189.3,40.1h3.1v-5.6l5.4-8.4h-3.5l-3.4,5.6l-3.3-5.6h-3.6l5.4,8.5V40.1z"/>
<path class="st0" d="M219.8,39c3.1,0,5.3-2.4,5.3-5.3c0-2.8-2.3-5.1-5-5.1c-2.2,0-3.6,1-4.3,2.2c0.2-2,0.9-3.1,3-3.7l5.6-1.4
	l-0.3-1.3l-5.8,1.4c-3.6,0.9-3.9,4.1-3.9,7.4C214.6,36.7,216.7,39,219.8,39z M219.9,37.6c-2.1,0-3.7-1.7-3.7-3.9s1.5-3.9,3.7-3.9
	c2.1,0,3.7,1.7,3.7,3.9S222,37.6,219.9,37.6z"/>
<path class="st0" d="M232.4,39c2,0,3.2-0.8,4.3-1.9l-1-0.9c-0.8,0.9-1.8,1.5-3.3,1.5c-1.8,0-3.4-1.3-3.6-3.4h8.2c0-0.2,0-0.4,0-0.5
	c0-3-1.8-5.5-4.8-5.5c-2.9,0-5,2.4-5,5.4C227.3,36.8,229.6,39,232.4,39z M228.8,32.9c0.2-2,1.6-3.5,3.4-3.5c2,0,3.1,1.6,3.3,3.5
	H228.8z"/>
<path class="st0" d="M243,39c2.6,0,4.1-1.5,4.1-3.1c0-1.4-0.8-2.1-1.9-2.5c0.9-0.4,1.7-1.1,1.7-2.4c0-1.6-1.4-2.8-3.7-2.8
	c-1.5,0-2.9,0.5-4,1.3l0.8,1.1c0.9-0.7,2.1-1,3.1-1c1.3,0,2.2,0.6,2.2,1.5c0,1.1-0.9,1.8-2.3,1.8h-1.4v1.3h1.4
	c1.7,0,2.6,0.7,2.6,1.7c0,1.2-1.2,1.8-2.6,1.8c-1.2,0-2.4-0.5-3.5-1.3l-0.8,1.1C240,38.4,241.4,39,243,39z"/>
<path class="st0" d="M254.7,39c3.1,0,5.4-2.5,5.4-5.4c0-3-2.3-5.4-5.4-5.4c-3.1,0-5.4,2.5-5.4,5.4C249.3,36.5,251.6,39,254.7,39z
	 M254.7,37.6c-2.2,0-3.8-1.8-3.8-4s1.5-4,3.8-4c2.2,0,3.8,1.8,3.8,4S257,37.6,254.7,37.6z"/>
<path class="st0" d="M262.9,38.7h1.5v-9h5.9v9h1.5V28.4h-9V38.7z"/>
<path class="st0" d="M278.4,38.9c1.8,0,3-0.8,3.7-1.8v1.5h1.5v-6.3c0-1.3-0.4-2.3-1.1-3c-0.7-0.7-1.9-1.1-3.3-1.1
	c-1.5,0-2.6,0.4-3.8,0.9l0.5,1.3c1-0.4,1.9-0.7,3.1-0.7c1.9,0,3.1,1,3.1,2.8v0.3c-0.9-0.3-1.8-0.4-3.2-0.4c-2.6,0-4.4,1.2-4.4,3.4
	C274.5,37.8,276.4,38.9,278.4,38.9z M278.7,37.7c-1.4,0-2.6-0.8-2.6-2.1c0-1.3,1.1-2.1,3-2.1c1.3,0,2.3,0.2,3,0.4v1
	C282.1,36.6,280.6,37.7,278.7,37.7z"/>
<path class="st0" d="M291.5,39c1.9,0,3.2-0.8,4.2-2l-1-0.9c-0.8,0.9-1.8,1.6-3.1,1.6c-2.2,0-3.8-1.8-3.8-4c0-2.3,1.6-4,3.7-4
	c1.4,0,2.4,0.7,3.2,1.5l1-1c-1-1-2.2-1.8-4.1-1.8c-3,0-5.3,2.5-5.3,5.4C286.2,36.5,288.5,39,291.5,39z"/>
<path class="st0" d="M298.3,38.7h1.5v-4.5h6v4.5h1.5V28.4h-1.5v4.5h-6v-4.5h-1.5V38.7z"/>
<path class="st0" d="M315.5,39c3.1,0,5.4-2.5,5.4-5.4c0-3-2.3-5.4-5.4-5.4c-3.1,0-5.4,2.5-5.4,5.4C310.2,36.5,312.4,39,315.5,39z
	 M315.6,37.6c-2.2,0-3.8-1.8-3.8-4s1.5-4,3.8-4c2.2,0,3.8,1.8,3.8,4S317.8,37.6,315.6,37.6z"/>
<path class="st0" d="M328.4,39c1.9,0,3.2-0.8,4.2-2l-1-0.9c-0.8,0.9-1.8,1.6-3.1,1.6c-2.2,0-3.8-1.8-3.8-4c0-2.3,1.6-4,3.7-4
	c1.4,0,2.4,0.7,3.2,1.5l1-1c-1-1-2.2-1.8-4.1-1.8c-3,0-5.3,2.5-5.3,5.4C323.1,36.5,325.4,39,328.4,39z"/>
<path class="st0" d="M337.6,38.7h1.6v-9h3.7v-1.4h-9v1.4h3.7V38.7z"/>
<path class="st0" d="M345.1,38.7h4.5c2.4,0,3.9-1.3,3.9-3.4c0-2.2-1.8-3.1-4.1-3.1h-2.8v-3.9h-1.5V38.7z M346.7,37.4v-3.8h2.7
	c1.6,0,2.5,0.6,2.5,1.8c0,1.3-0.9,2-2.5,2H346.7z"/>
<path class="st0" d="M427,38.1h5.2c2.3,0,3.8-1.1,3.8-2.8c0-1.5-1-2.2-2.3-2.6c0.9-0.4,1.7-1,1.7-2.4c0-1.6-1.3-2.6-3.4-2.6h-5V38.1
	z M428.5,36.7v-3.3h3.2c1.7,0,2.6,0.6,2.6,1.6c0,1.1-0.9,1.7-2.4,1.7H428.5z M428.5,32.2V29h3.2c1.3,0,2.1,0.6,2.1,1.5
	c0,1.1-0.9,1.7-2.1,1.7H428.5z"/>
<path class="st0" d="M449.4,38.3c1.9,0,3.2-0.8,4.2-2l-1-0.9c-0.8,0.9-1.8,1.6-3.1,1.6c-2.2,0-3.8-1.8-3.8-4c0-2.3,1.6-4,3.7-4
	c1.4,0,2.4,0.7,3.2,1.5l1-1c-1-1-2.2-1.8-4.1-1.8c-3,0-5.3,2.5-5.3,5.4C444.1,35.8,446.4,38.3,449.4,38.3z"/>
<path class="st0" d="M460.7,38.3c2,0,3.2-0.8,4.3-1.9l-1-0.9c-0.8,0.9-1.8,1.5-3.3,1.5c-1.8,0-3.4-1.3-3.6-3.4h8.2
	c0-0.2,0-0.4,0-0.5c0-3-1.8-5.5-4.8-5.5c-2.9,0-5,2.4-5,5.4C455.5,36.1,457.8,38.3,460.7,38.3z M457.1,32.3c0.2-2,1.6-3.5,3.4-3.5
	c2,0,3.1,1.6,3.3,3.5H457.1z"/>
<path class="st0" d="M470.5,38.1h1.6v-9h3.7v-1.4h-9v1.4h3.7V38.1z"/>
<path class="st0" d="M478,38.1h1.5l6.2-8.2v8.2h1.5V27.7h-1.5l-6.1,8.2v-8.2H478V38.1z"/>
<path class="st0" d="M208.7,26.1h1v14h-1V26.1z"/>
<path class="st1" d="M27.7,32.6c0,7.5-6,13.5-13.5,13.5c-7.5,0-13.5-6-13.5-13.5s6-13.5,13.5-13.5C21.6,19.1,27.7,25.1,27.7,32.6z"
	/>
<path class="st1" d="M47.7,32.6c0,7.5-6,13.5-13.5,13.5s-13.5-6-13.5-13.5s6-13.5,13.5-13.5S47.7,25.1,47.7,32.6z"/>
<path class="st1" d="M37.7,15.6c0,7.5-6,13.5-13.5,13.5s-13.5-6-13.5-13.5c0-7.5,6-13.5,13.5-13.5S37.7,8.1,37.7,15.6z"/>
<path class="st2" d="M27.7,32.6c0,7.5-6,13.5-13.5,13.5c-7.5,0-13.5-6-13.5-13.5s6-13.5,13.5-13.5C21.6,19.1,27.7,25.1,27.7,32.6z"
	/>
<path class="st3" d="M47.7,32.6c0,7.5-6,13.5-13.5,13.5s-13.5-6-13.5-13.5s6-13.5,13.5-13.5S47.7,25.1,47.7,32.6z"/>
<path class="st4" d="M37.7,15.6c0,7.5-6,13.5-13.5,13.5s-13.5-6-13.5-13.5c0-7.5,6-13.5,13.5-13.5S37.7,8.1,37.7,15.6z"/>
<path class="st0" d="M360.7,41v-3.9h1.1c0.9-1.7,1.4-4.1,1.4-7.2v-1.8h7.4v9h1.6l-0.2,3.9h-1.3v-2.6h-8.4L362,41H360.7z M363.5,37.1
	h5.6v-7.6h-4.3v1.4C364.7,33.5,364.3,35.6,363.5,37.1z"/>
<path class="st0" d="M378.8,38.7c-1.5,0-2.7-0.5-3.7-1.5c-1-1-1.5-2.3-1.5-3.9c0-1.5,0.5-2.8,1.4-3.8c0.9-1.1,2.1-1.6,3.5-1.6
	c1.5,0,2.7,0.5,3.5,1.6c0.9,1,1.3,2.3,1.3,3.9c0,0.2,0,0.4,0,0.5h-8.2c0.1,1.1,0.5,1.9,1.2,2.5c0.7,0.6,1.5,0.9,2.5,0.9
	c1.2,0,2.3-0.5,3.3-1.5l1,0.9C381.9,38,380.5,38.7,378.8,38.7z M375.2,32.7h6.7c-0.1-1-0.4-1.8-1-2.5c-0.6-0.7-1.3-1-2.3-1
	c-0.9,0-1.6,0.3-2.3,1C375.7,30.8,375.3,31.7,375.2,32.7z"/>
<path class="st0" d="M388.6,38.4v-9h-3.7v-1.4h9v1.4h-3.7v9H388.6z"/>
<path class="st0" d="M400.6,38.7c-1.5,0-2.7-0.5-3.7-1.5c-1-1-1.5-2.3-1.5-3.9c0-1.5,0.5-2.8,1.4-3.8c0.9-1.1,2.1-1.6,3.5-1.6
	c1.5,0,2.7,0.5,3.5,1.6c0.9,1,1.3,2.3,1.3,3.9c0,0.2,0,0.4,0,0.5H397c0.1,1.1,0.5,1.9,1.2,2.5c0.7,0.6,1.5,0.9,2.5,0.9
	c1.2,0,2.3-0.5,3.3-1.5l1,0.9C403.7,38,402.3,38.7,400.6,38.7z M397,32.7h6.7c-0.1-1-0.4-1.8-1-2.5c-0.6-0.7-1.3-1-2.3-1
	c-0.9,0-1.6,0.3-2.3,1C397.5,30.8,397.1,31.7,397,32.7z"/>
<path class="st0" d="M407.9,38.4V28.1h1.5v8.2l6.1-8.2h1.5v10.3h-1.5v-8.2l-6.2,8.2H407.9z M414.3,25.9c-0.5,0.5-1.1,0.7-1.9,0.7
	c-0.7,0-1.4-0.2-1.9-0.7c-0.5-0.5-0.8-1-0.9-1.8l1.1-0.2c0.3,0.9,0.9,1.4,1.8,1.4c0.9,0,1.5-0.5,1.8-1.4l1.1,0.2
	C415.2,24.9,414.9,25.5,414.3,25.9z"/>
</svg>
