<?xml version="1.0" encoding="utf-8"?>
<!-- Generator: Adobe Illustrator 23.0.6, SVG Export Plug-In . SVG Version: 6.00 Build 0)  -->
<svg version="1.1" id="Слой_1" xmlns="http://www.w3.org/2000/svg" xmlns:xlink="http://www.w3.org/1999/xlink" x="0px" y="0px"
	 viewBox="0 0 194 46" style="enable-background:new 0 0 194 46;" xml:space="preserve">
<style type="text/css">
	.st0{fill:#5DB9E0;}
	.st1{opacity:0.7;fill:#FFFFFF;enable-background:new    ;}
	.st2{opacity:0.7;fill:#2FBFC3;enable-background:new    ;}
	.st3{opacity:0.7;fill:#5DB9E0;enable-background:new    ;}
	.st4{opacity:0.7;fill:#B2D66E;enable-background:new    ;}
</style>
<path class="st0" d="M53.9,17.5h2.8v-3.8h2.1c2.8,0,5.1-1.5,5.1-4.4c0-2.6-1.8-4.4-4.8-4.4h-5.2V17.5z M56.6,11.2V7.3h2.2
	C60.2,7.3,61,8,61,9.3c0,1.1-0.8,2-2.2,2H56.6z"/>
<path class="st0" d="M72.1,17.7c3.9,0,6.7-2.9,6.7-6.5c0-3.6-2.8-6.5-6.7-6.5c-3.9,0-6.7,2.9-6.7,6.5C65.4,14.8,68.2,17.7,72.1,17.7
	z M72.1,15.1c-2.2,0-3.8-1.8-3.8-4c0-2.2,1.6-4,3.8-4s3.8,1.8,3.8,4C75.9,13.4,74.4,15.1,72.1,15.1z"/>
<path class="st0" d="M81.3,17.5H84V9.3l3.5,5.4h0.1l3.6-5.4v8.3h2.8V4.8h-3l-3.3,5.4l-3.3-5.4h-3V17.5z"/>
<path class="st0" d="M103.1,17.7c3.9,0,6.7-2.9,6.7-6.5c0-3.6-2.8-6.5-6.7-6.5c-3.9,0-6.7,2.9-6.7,6.5
	C96.4,14.8,99.2,17.7,103.1,17.7z M103.2,15.1c-2.2,0-3.8-1.8-3.8-4c0-2.2,1.6-4,3.8-4s3.8,1.8,3.8,4
	C107,13.4,105.4,15.1,103.2,15.1z"/>
<path class="st0" d="M118.4,17.7c2.3,0,4.1-0.9,5.4-2v-5.5h-5.5v2.4h2.8v1.8c-0.7,0.5-1.6,0.8-2.6,0.8c-2.2,0-3.8-1.7-3.8-4
	c0-2.2,1.6-4,3.6-4c1.5,0,2.3,0.5,3.3,1.3l1.8-2.1c-1.3-1.1-2.7-1.7-5-1.7c-3.8,0-6.6,2.9-6.6,6.5C111.8,14.9,114.5,17.7,118.4,17.7
	z"/>
<path class="st0" d="M131.8,17.7c3.4,0,5.5-1.9,5.5-5.7V4.8h-2.8v7.2c0,2-1,3-2.7,3c-1.7,0-2.7-1.1-2.7-3.1V4.8h-2.8v7.2
	C126.3,15.8,128.4,17.7,131.8,17.7z"/>
<path class="st0" d="M143.1,17.5h2.8V7.4h3.9V4.8h-10.5v2.6h3.9V17.5z"/>
<path class="st0" d="M149.7,17.5h2.9v-2.9h-2.9V17.5z"/>
<path class="st0" d="M155.3,17.5h6c2.9,0,4.7-1.2,4.7-3.5c0-1.7-0.9-2.6-2.4-3.1c0.9-0.5,1.7-1.3,1.7-2.7c0-0.9-0.3-1.6-0.9-2.2
	c-0.7-0.7-1.9-1.1-3.3-1.1h-5.9V17.5z M158,9.9V7.3h2.7c1.2,0,1.8,0.5,1.8,1.3c0,1-0.8,1.4-2,1.4H158z M158,15v-2.8h3.2
	c1.4,0,2.1,0.5,2.1,1.4c0,1-0.7,1.4-2,1.4H158z"/>
<path class="st0" d="M171.3,17.5h2.8v-5l4.9-7.6h-3.2l-3.1,5.1l-3-5.1h-3.3l4.9,7.7V17.5z"/>
<path class="st0" d="M57.8,32.7c2.1,0,3.6-1.7,3.6-3.6c0-1.9-1.5-3.5-3.4-3.5c-1.5,0-2.4,0.7-2.9,1.5c0.1-1.3,0.6-2.1,2-2.5l3.8-0.9
	l-0.2-0.9l-3.9,0.9c-2.4,0.6-2.6,2.8-2.6,5C54.2,31.2,55.7,32.7,57.8,32.7z M57.8,31.8c-1.4,0-2.5-1.2-2.5-2.6c0-1.5,1-2.6,2.5-2.6
	c1.4,0,2.5,1.2,2.5,2.6C60.3,30.6,59.3,31.8,57.8,31.8z"/>
<path class="st0" d="M66.3,32.7c1.3,0,2.2-0.5,2.9-1.3l-0.7-0.6c-0.6,0.6-1.2,1-2.2,1c-1.2,0-2.3-0.9-2.5-2.3h5.6c0-0.2,0-0.3,0-0.4
	c0-2.1-1.2-3.7-3.3-3.7c-1.9,0-3.4,1.6-3.4,3.7C62.8,31.3,64.4,32.7,66.3,32.7z M63.9,28.7c0.1-1.4,1.1-2.4,2.3-2.4
	c1.4,0,2.1,1.1,2.2,2.4H63.9z"/>
<path class="st0" d="M73.5,32.7c1.7,0,2.8-1,2.8-2.1c0-0.9-0.5-1.5-1.3-1.7c0.6-0.2,1.1-0.7,1.1-1.6c0-1.1-1-1.9-2.5-1.9
	c-1,0-2,0.3-2.7,0.9l0.5,0.7c0.6-0.5,1.4-0.7,2.1-0.7c0.9,0,1.5,0.4,1.5,1c0,0.7-0.6,1.2-1.6,1.2h-0.9v0.9h0.9
	c1.1,0,1.8,0.4,1.8,1.2c0,0.8-0.8,1.2-1.7,1.2c-0.8,0-1.6-0.3-2.3-0.9l-0.5,0.8C71.5,32.4,72.4,32.7,73.5,32.7z"/>
<path class="st0" d="M81.4,32.7c2.1,0,3.7-1.7,3.7-3.7c0-2-1.5-3.7-3.6-3.7c-2.1,0-3.7,1.7-3.7,3.7C77.8,31.1,79.3,32.7,81.4,32.7z
	 M81.5,31.8c-1.5,0-2.6-1.2-2.6-2.7s1-2.7,2.6-2.7c1.5,0,2.6,1.2,2.6,2.7S83,31.8,81.5,31.8z"/>
<path class="st0" d="M87,32.6h1v-6.1h4v6.1h1v-7H87V32.6z"/>
<path class="st0" d="M97.5,32.7c1.2,0,2-0.6,2.5-1.2v1h1v-4.3c0-0.9-0.2-1.6-0.7-2.1c-0.5-0.5-1.3-0.8-2.3-0.8c-1,0-1.8,0.2-2.5,0.6
	l0.3,0.9c0.7-0.3,1.3-0.5,2.1-0.5c1.3,0,2.1,0.7,2.1,1.9v0.2c-0.6-0.2-1.2-0.3-2.1-0.3c-1.8,0-3,0.8-3,2.3
	C94.9,32,96.2,32.7,97.5,32.7z M97.7,31.9c-0.9,0-1.8-0.5-1.8-1.4c0-0.9,0.7-1.4,2-1.4c0.9,0,1.5,0.1,2,0.3V30
	C100,31.1,99,31.9,97.7,31.9z"/>
<path class="st0" d="M106.4,32.7c1.3,0,2.2-0.6,2.9-1.4l-0.7-0.6c-0.6,0.6-1.2,1.1-2.1,1.1c-1.5,0-2.6-1.2-2.6-2.7
	c0-1.5,1.1-2.7,2.5-2.7c0.9,0,1.6,0.4,2.2,1l0.7-0.7c-0.7-0.7-1.5-1.2-2.8-1.2c-2,0-3.6,1.7-3.6,3.7
	C102.8,31.1,104.4,32.7,106.4,32.7z"/>
<path class="st0" d="M111,32.6h1v-3.1h4v3.1h1v-7h-1v3h-4v-3h-1V32.6z"/>
<path class="st0" d="M122.7,32.7c2.1,0,3.7-1.7,3.7-3.7c0-2-1.5-3.7-3.6-3.7c-2.1,0-3.7,1.7-3.7,3.7C119,31.1,120.6,32.7,122.7,32.7
	z M122.7,31.8c-1.5,0-2.6-1.2-2.6-2.7s1-2.7,2.6-2.7c1.5,0,2.6,1.2,2.6,2.7S124.2,31.8,122.7,31.8z"/>
<path class="st0" d="M131.4,32.7c1.3,0,2.2-0.6,2.9-1.4l-0.7-0.6c-0.6,0.6-1.2,1.1-2.1,1.1c-1.5,0-2.6-1.2-2.6-2.7
	c0-1.5,1.1-2.7,2.5-2.7c0.9,0,1.6,0.4,2.2,1l0.7-0.7c-0.7-0.7-1.5-1.2-2.8-1.2c-2,0-3.6,1.7-3.6,3.7
	C127.8,31.1,129.3,32.7,131.4,32.7z"/>
<path class="st0" d="M137.7,32.6h1.1v-6.1h2.5v-0.9h-6.1v0.9h2.5V32.6z"/>
<path class="st0" d="M142.8,32.6h3c1.6,0,2.6-0.9,2.6-2.3c0-1.5-1.2-2.1-2.8-2.1h-1.9v-2.6h-1V32.6z M143.8,31.7v-2.6h1.9
	c1.1,0,1.7,0.4,1.7,1.2c0,0.9-0.6,1.3-1.7,1.3H143.8z"/>
<path class="st0" d="M54.1,43.5h3.5c1.5,0,2.5-0.7,2.5-1.9c0-1-0.7-1.5-1.5-1.7c0.6-0.2,1.2-0.7,1.2-1.6c0-1.1-0.9-1.7-2.3-1.7h-3.4
	V43.5z M55.2,42.6v-2.3h2.2c1.1,0,1.7,0.4,1.7,1.1c0,0.7-0.6,1.2-1.6,1.2H55.2z M55.2,39.5v-2.1h2.2c0.9,0,1.4,0.4,1.4,1
	c0,0.7-0.6,1.1-1.4,1.1H55.2z"/>
<path class="st0" d="M69.3,43.6c1.3,0,2.2-0.6,2.9-1.4l-0.7-0.6c-0.6,0.6-1.2,1.1-2.1,1.1c-1.5,0-2.6-1.2-2.6-2.7
	c0-1.5,1.1-2.7,2.5-2.7c0.9,0,1.6,0.4,2.2,1l0.7-0.7c-0.7-0.7-1.5-1.2-2.8-1.2c-2,0-3.6,1.7-3.6,3.7C65.7,42,67.2,43.6,69.3,43.6z"
	/>
<path class="st0" d="M76.9,43.6c1.3,0,2.2-0.5,2.9-1.3l-0.7-0.6c-0.6,0.6-1.2,1-2.2,1c-1.2,0-2.3-0.9-2.5-2.3h5.6c0-0.2,0-0.3,0-0.4
	c0-2.1-1.2-3.7-3.3-3.7c-1.9,0-3.4,1.6-3.4,3.7C73.4,42.2,75,43.6,76.9,43.6z M74.5,39.5c0.1-1.4,1.1-2.4,2.3-2.4
	c1.4,0,2.1,1.1,2.2,2.4H74.5z"/>
<path class="st0" d="M83.6,43.5h1.1v-6.1h2.5v-0.9h-6.1v0.9h2.5V43.5z"/>
<path class="st0" d="M88.7,43.5h1l4.2-5.5v5.5h1v-7h-1L89.7,42v-5.5h-1V43.5z"/>
<path class="st1" d="M30.3,30.9c0,6.7-6.5,13.2-13.2,13.2c-6.7,0-11.2-6.5-11.2-13.2c0-6.7,5.5-12.2,12.2-12.2
	C24.8,18.7,30.3,24.1,30.3,30.9z"/>
<path class="st1" d="M48.4,30.9c0,6.7-6.5,13.2-13.2,13.2c-6.7,0-11.2-6.5-11.2-13.2c0-6.7,5.5-12.2,12.2-12.2
	C42.9,18.7,48.4,24.1,48.4,30.9z"/>
<path class="st1" d="M39.4,15.5c0,6.7-5.5,12.2-12.2,12.2c-6.7,0-12.2-5.5-12.2-12.2c0-6.7,5.5-12.2,12.2-12.2
	C33.9,3.3,39.4,8.8,39.4,15.5z"/>
<path class="st2" d="M30.3,30.9c0,6.7-6.5,13.2-13.2,13.2c-6.7,0-11.2-6.5-11.2-13.2c0-6.7,5.5-12.2,12.2-12.2
	C24.8,18.7,30.3,24.1,30.3,30.9z"/>
<path class="st3" d="M48.4,30.9c0,6.7-6.5,13.2-13.2,13.2c-6.7,0-11.2-6.5-11.2-13.2c0-6.7,5.5-12.2,12.2-12.2
	C42.9,18.7,48.4,24.1,48.4,30.9z"/>
<path class="st4" d="M39.4,15.5c0,6.7-5.5,12.2-12.2,12.2c-6.7,0-12.2-5.5-12.2-12.2c0-6.7,5.5-12.2,12.2-12.2
	C33.9,3.3,39.4,8.8,39.4,15.5z"/>
<path class="st0" d="M152.2,34.2v-2.7h0.8c0.6-1.1,1-2.8,1-4.8v-1.2h5.1v6.1h1.1l-0.2,2.7h-0.9v-1.7h-5.8l-0.2,1.7H152.2z
	 M154.1,31.6h3.8v-5.1h-3v1C155,29.2,154.7,30.5,154.1,31.6z"/>
<path class="st0" d="M164.7,32.6c-1,0-1.9-0.3-2.5-1c-0.7-0.7-1-1.6-1-2.6c0-1,0.3-1.9,1-2.6c0.7-0.7,1.5-1.1,2.4-1.1
	c1,0,1.8,0.4,2.4,1.1c0.6,0.7,0.9,1.6,0.9,2.6c0,0.1,0,0.3,0,0.4h-5.7c0.1,0.7,0.3,1.3,0.8,1.7c0.5,0.4,1,0.6,1.7,0.6
	c0.9,0,1.6-0.3,2.3-1l0.7,0.6C166.9,32.2,165.9,32.6,164.7,32.6z M162.2,28.6h4.6c-0.1-0.7-0.3-1.2-0.7-1.7
	c-0.5-0.6-1.3-0.8-2.4-0.6C162.9,26.8,162.3,27.6,162.2,28.6z"/>
<path class="st0" d="M171.5,32.5v-6.1h-2.6v-0.9h6.2v0.9h-2.6v6.1H171.5z"/>
<path class="st0" d="M179.8,32.6c-1,0-1.9-0.3-2.5-1c-0.7-0.7-1-1.6-1-2.6c0-1,0.3-1.9,1-2.6c0.7-0.7,1.5-1.1,2.4-1.1
	c1,0,1.8,0.4,2.4,1.1c0.6,0.7,0.9,1.6,0.9,2.6c0,0.1,0,0.3,0,0.4h-5.7c0.1,0.7,0.3,1.3,0.8,1.7c0.5,0.4,1,0.6,1.7,0.6
	c0.9,0,1.6-0.3,2.3-1l0.7,0.6C182,32.2,181,32.6,179.8,32.6z M177.3,28.6h4.6c-0.1-0.7-0.3-1.2-0.7-1.7c-0.5-0.6-1.3-0.8-2.4-0.6
	C178,26.8,177.4,27.6,177.3,28.6z"/>
<path class="st0" d="M184.9,32.5v-7h1.1V31l4.2-5.5h1v7h-1.1V27l-4.3,5.5H184.9z M189.3,24.1c-0.4,0.3-0.8,0.5-1.3,0.5
	c-0.5,0-0.9-0.2-1.3-0.5c-0.4-0.3-0.6-0.7-0.7-1.2l0.7-0.1c0.2,0.6,0.6,0.9,1.2,0.9c0.6,0,1-0.3,1.2-0.9l0.7,0.1
	C189.9,23.4,189.7,23.7,189.3,24.1z"/>
</svg>
