<svg width="47" height="44" viewBox="0 0 47 44" fill="none" xmlns="http://www.w3.org/2000/svg">
<path d="M20.6554 3.71653C21.8189 1.42782 25.1811 1.42782 26.3446 3.71653L30.531 11.9507C30.9931 12.8595 31.8863 13.4895 32.9195 13.6352L42.2804 14.9557C44.8824 15.3226 45.9213 18.4265 44.0386 20.2081L37.2649 26.6174C36.5173 27.3248 36.1761 28.3441 36.3525 29.343L37.9516 38.3932C38.3961 40.9088 35.6761 42.8271 33.3489 41.6395L24.9761 37.3665C24.0521 36.8949 22.9479 36.8949 22.0239 37.3665L13.6511 41.6395C11.3239 42.8271 8.60393 40.9088 9.04839 38.3932L10.6474 29.343C10.8239 28.3441 10.4828 27.3248 9.73512 26.6174L2.96144 20.2081C1.07868 18.4265 2.1176 15.3226 4.71952 14.9557L14.0805 13.6352C15.1137 13.4895 16.0069 12.8595 16.469 11.9507L20.6554 3.71653Z" stroke="#FFC005" stroke-width="3"/>
</svg>
