<svg width="38" height="39" viewBox="0 0 38 39" fill="none" xmlns="http://www.w3.org/2000/svg">
<path fill-rule="evenodd" clip-rule="evenodd" d="M38 19.54C38 30.0334 29.4934 38.54 19 38.54C8.50659 38.54 0 30.0334 0 19.54C0 9.04663 8.50659 0.540039 19 0.540039C29.4934 0.540039 38 9.04663 38 19.54ZM12.6433 11.846H25.3568C27.8511 11.846 29.8732 13.8681 29.8732 16.3624V22.7179C29.8732 25.2122 27.8512 27.2343 25.3568 27.2343H12.6433C10.149 27.2343 8.12695 25.2122 8.12695 22.7179V16.3624C8.12695 13.8681 10.149 11.846 12.6433 11.846ZM16.356 22.6854L22.3024 19.8493C22.4812 19.7641 22.4844 19.5105 22.3073 19.4209L16.3609 16.4076C16.2022 16.3271 16.0143 16.4425 16.0143 16.6206V22.4701C16.0143 22.6456 16.1974 22.761 16.356 22.6854Z" fill="white"/>
</svg>
