<svg width="38" height="39" viewBox="0 0 38 39" fill="none" xmlns="http://www.w3.org/2000/svg">
<path fill-rule="evenodd" clip-rule="evenodd" d="M38 19.54C38 30.0334 29.4934 38.54 19 38.54C8.50659 38.54 0 30.0334 0 19.54C0 9.04663 8.50659 0.540039 19 0.540039C29.4934 0.540039 38 9.04663 38 19.54ZM14.6041 8.66431H23.3957C26.9685 8.66431 29.8753 11.571 29.8754 15.1439V23.9355C29.8754 27.5084 26.9685 30.4152 23.3957 30.4152H14.6041C11.0312 30.4152 8.12448 27.5082 8.12448 23.9355V15.1439C8.12448 11.571 11.0312 8.66431 14.6041 8.66431ZM23.3957 28.227C25.7658 28.227 27.6872 26.3057 27.6872 23.9356V15.144C27.6872 12.7739 25.7658 10.8524 23.3957 10.8524H14.6041C12.234 10.8524 10.3127 12.7739 10.3127 15.144V23.9356C10.3127 26.3057 12.234 28.227 14.6041 28.227H23.3957ZM18.9996 13.9141C15.8977 13.9141 13.374 16.4378 13.374 19.5397C13.374 22.6414 15.8977 25.1651 18.9996 25.1651C22.1015 25.1651 24.625 22.6416 24.625 19.5397C24.625 16.4378 22.1015 13.9141 18.9996 13.9141ZM18.9996 22.977C17.1012 22.977 15.5621 21.4382 15.5621 19.5397C15.5621 17.6412 17.1012 16.1022 18.9996 16.1022C20.8981 16.1022 22.4369 17.6411 22.4369 19.5397C22.4369 21.4381 20.8981 22.977 18.9996 22.977ZM24.636 15.3047C25.3805 15.3047 25.9841 14.7011 25.9841 13.9567C25.9841 13.212 25.3807 12.6086 24.636 12.6086C23.8916 12.6086 23.288 13.2122 23.288 13.9567C23.288 14.7011 23.8916 15.3047 24.636 15.3047Z" fill="white"/>
</svg>
