<svg width="38" height="39" viewBox="0 0 38 39" fill="none" xmlns="http://www.w3.org/2000/svg">
<path fill-rule="evenodd" clip-rule="evenodd" d="M19 38.54C29.4934 38.54 38 30.0334 38 19.54C38 9.04663 29.4934 0.540039 19 0.540039C8.50659 0.540039 0 9.04663 0 19.54C0 30.0334 8.50659 38.54 19 38.54ZM15.7556 20.9758H19.154C18.5575 22.6622 16.9418 23.8713 15.0507 23.8575C12.7558 23.8405 10.858 22.0047 10.7691 19.7114C10.6736 17.2533 12.6457 15.2228 15.0829 15.2228C16.1974 15.2228 17.2144 15.6475 17.9811 16.3433C18.1628 16.5081 18.4391 16.5093 18.6178 16.341L19.866 15.1665C20.0613 14.9828 20.0619 14.6724 19.8672 14.4882C18.6513 13.336 17.0202 12.618 15.2215 12.583C11.3851 12.5079 8.1513 15.6535 8.12465 19.4906C8.09756 23.3566 11.2233 26.499 15.0829 26.499C18.7949 26.499 21.8271 23.5926 22.0301 19.9317C22.0355 19.8858 22.0391 18.3345 22.0391 18.3345H15.7557C15.4981 18.3345 15.2894 18.5433 15.2894 18.8008V20.5096C15.2894 20.7671 15.4981 20.9758 15.7556 20.9758ZM27.7971 16.8199V18.4896H29.4668C29.6924 18.4896 29.8754 18.6726 29.8754 18.8983V20.3034C29.8754 20.5289 29.6924 20.712 29.4668 20.712H27.7971V22.3815C27.7971 22.6072 27.6143 22.7901 27.3886 22.7901H25.9833C25.7575 22.7901 25.5747 22.6072 25.5747 22.3815V20.712H23.9054C23.6795 20.712 23.4964 20.5289 23.4964 20.3034V18.8983C23.4964 18.6724 23.6797 18.4896 23.9054 18.4896H25.5747V16.8199C25.5747 16.5942 25.7576 16.4114 25.9833 16.4114H27.3886C27.6143 16.4114 27.7971 16.5942 27.7971 16.8199Z" fill="white"/>
</svg>
