<svg width="16" height="16" viewBox="0 0 16 16" fill="none" xmlns="http://www.w3.org/2000/svg">
<path d="M0.670153 2.01042C0.300038 1.64031 0.300038 1.04023 0.670154 0.670117C1.04027 0.300001 1.64035 0.300001 2.01046 0.670116L15.3298 13.9895C15.7 14.3596 15.7 14.9597 15.3298 15.3298C14.9597 15.6999 14.3597 15.6999 13.9895 15.3298L0.670153 2.01042Z" fill="#C0C3CE"/>
<path d="M13.9896 0.670153C14.3597 0.300038 14.9598 0.300038 15.3299 0.670154C15.7 1.04027 15.7 1.64035 15.3299 2.01046L2.0105 15.3298C1.64038 15.7 1.04031 15.7 0.670193 15.3298C0.300077 14.9597 0.300077 14.3597 0.670192 13.9895L13.9896 0.670153Z" fill="#C0C3CE"/>
</svg>
