<svg width="40" height="40" viewBox="0 0 40 40" fill="none" xmlns="http://www.w3.org/2000/svg">
<path fill-rule="evenodd" clip-rule="evenodd" d="M20 40C31.0457 40 40 31.0457 40 20C40 8.9543 31.0457 0 20 0C8.9543 0 0 8.9543 0 20C0 31.0457 8.9543 40 20 40ZM30.9965 12.6471C31.8145 12.6471 31.9846 13.0699 31.8145 13.6443C31.4745 15.2206 28.1702 19.8713 28.1656 19.8759C27.8807 20.3355 27.7658 20.5653 28.1656 21.08C28.1956 21.1223 28.3482 21.2782 28.5787 21.5139C29.5487 22.5053 31.8996 24.9082 32.3155 26.204C32.5406 26.9669 32.15 27.3529 31.378 27.3529H28.6712C27.9483 27.3529 27.5834 26.9473 26.7937 26.0691C26.4588 25.6967 26.0476 25.2394 25.5002 24.6921C23.8917 23.1434 23.2024 22.9412 22.8026 22.9412C22.0691 22.9412 22.0709 23.1499 22.0882 25.0915C22.0913 25.4368 22.0949 25.837 22.0949 26.3006C22.0949 26.9669 21.8835 27.3529 20.1601 27.3529C17.2925 27.3529 14.1399 25.6112 11.9019 22.3989C8.54248 17.693 7.62336 14.1314 7.62336 13.4145C7.62336 13.0101 7.77961 12.6471 8.55167 12.6471H11.2585C11.9524 12.6471 12.2144 12.9504 12.4809 13.6994C13.8044 17.5597 16.0379 20.9329 16.957 20.9329C17.3017 20.9329 17.4579 20.7721 17.4579 19.8989V15.9099C17.3954 14.7733 16.9991 14.2815 16.7056 13.9174C16.5245 13.6926 16.3826 13.5165 16.3826 13.2675C16.3826 12.9688 16.6399 12.6471 17.0719 12.6471H21.3274C21.8973 12.6471 22.0903 12.955 22.0903 13.6443V19.0074C22.0903 19.5818 22.3522 19.784 22.5223 19.784C22.8669 19.784 23.1565 19.5818 23.786 18.9522C25.7346 16.7739 27.1133 13.4145 27.1133 13.4145C27.2833 13.0101 27.6004 12.6471 28.2897 12.6471H30.9965Z" fill="white"/>
</svg>
