<svg width="40" height="40" viewBox="0 0 40 40" fill="none" xmlns="http://www.w3.org/2000/svg">
<path fill-rule="evenodd" clip-rule="evenodd" d="M40 20C40 31.0457 31.0457 40 20 40C8.95431 40 0 31.0457 0 20C0 8.95431 8.95431 0 20 0C31.0457 0 40 8.95431 40 20ZM26.0736 12.1415H23.8586C22.1214 12.1415 21.786 12.9688 21.786 14.1774V17.0588H25.706L25.1683 21.2408H21.786V31.7647H17.4661V21.2408H13.9413V17.0588H17.4661V13.7638C17.4661 10.1838 19.6536 8.23529 22.8475 8.23529C24.3779 8.23529 25.6922 8.35018 26.0736 8.40074V12.1415Z" fill="white"/>
</svg>
