<svg width="40" height="40" viewBox="0 0 40 40" fill="none" xmlns="http://www.w3.org/2000/svg">
<path fill-rule="evenodd" clip-rule="evenodd" d="M20 40C31.0457 40 40 31.0457 40 20C40 8.9543 31.0457 0 20 0C8.9543 0 0 8.9543 0 20C0 31.0457 8.9543 40 20 40ZM20.4331 8.25194C25.6996 8.27492 28.0617 9.98908 28.6454 10.5268C30.5847 12.2133 31.6601 15.945 30.934 21.8549C30.2982 27.067 26.6657 27.9918 25.4434 28.3029C25.3229 28.3336 25.2258 28.3583 25.1573 28.3806C24.8265 28.4863 21.9266 29.2124 18.1491 28.8953C17.7309 29.3779 17.1794 30.0121 16.7796 30.444C16.6585 30.5743 16.5451 30.703 16.4367 30.826C15.891 31.4454 15.4721 31.921 14.8356 31.7216C14.2014 31.5286 14.2382 30.5681 14.2382 30.5681L14.2428 28.1968H14.2382C8.71891 26.6435 8.79704 20.9174 8.86137 17.8613C8.92571 14.8053 9.51854 12.3374 11.2005 10.6554C14.2244 7.8797 20.4331 8.25194 20.4331 8.25194ZM24.8219 26.6435C25.8613 26.4009 28.7503 25.7268 29.2842 21.4229C29.8954 16.4918 29.059 13.1279 27.4184 11.7216C26.922 11.2712 24.7897 9.92933 20.3366 9.91095C20.3366 9.91095 15.0654 9.56628 12.5057 11.8871C11.081 13.2933 10.5985 15.3843 10.548 17.9348C10.5462 18.0226 10.5442 18.1131 10.5422 18.2061C10.4843 20.8166 10.3826 25.4059 14.9 26.6573C14.9 26.6573 14.8816 30.2786 14.8816 30.5957C14.877 31.0782 15.1435 31.1012 15.3871 30.8576C16.1316 30.1086 18.5213 27.2271 18.5213 27.2271C21.7244 27.4339 24.275 26.7997 24.5507 26.7124C24.6147 26.6918 24.707 26.6703 24.8219 26.6435ZM22.3035 17.7372C22.3219 18.1325 22.9147 18.1049 22.8963 17.7097C22.832 16.3907 22.1196 15.6554 20.8375 15.5865C20.4469 15.5635 20.4101 16.1564 20.8053 16.1793C21.7796 16.2345 22.2529 16.7262 22.3035 17.7372ZM20.3458 14.5847C22.6573 14.7547 23.8752 16.2804 23.8292 18.229C23.82 18.6196 24.4174 18.638 24.422 18.2428C24.4726 16.0185 23.0526 14.1848 20.3871 13.9918C19.9965 13.9643 19.9551 14.5571 20.3458 14.5847ZM25.3963 18.8494C25.3963 19.2446 25.9937 19.24 25.9891 18.8448C25.957 14.8098 23.2318 12.4707 19.8448 12.4477C19.4542 12.4477 19.4542 13.036 19.8448 13.0405C22.8733 13.0635 25.3687 15.104 25.3963 18.8494ZM25.4698 23.3622V23.353C25.6904 22.9303 25.6169 22.5304 25.2952 22.2685C24.7253 21.7308 23.866 21.138 23.1904 20.7565C22.6895 20.4762 22.1794 20.6508 21.968 20.9266L21.5268 21.478C21.3016 21.7584 20.8834 21.7216 20.8834 21.7216C17.8274 20.9404 17.0094 17.8475 17.0094 17.8475C17.0094 17.8475 16.9726 17.4293 17.2529 17.2042L17.8044 16.763C18.0801 16.5516 18.2548 16.0415 17.9744 15.5405C17.8136 15.2602 17.5057 14.7593 17.2759 14.4468C17.0323 14.1113 16.4625 13.4312 16.4625 13.4312C16.1913 13.1049 15.7869 13.0314 15.3641 13.2519H15.3549C14.4772 13.7483 13.5167 14.6766 13.8246 15.6325C13.8246 15.6325 14.0406 16.4229 15.0195 18.1922C15.4836 19.0378 15.9616 19.7409 16.4349 20.3337C16.9588 21.0001 17.6389 21.694 18.3834 22.2823C19.8264 23.4312 22.1105 24.6076 23.0801 24.8788L23.0893 24.8926C24.0452 25.2005 24.9735 24.2354 25.4698 23.3622Z" fill="white"/>
</svg>
