<svg width="362" height="350" viewBox="0 0 362 350" fill="none" xmlns="http://www.w3.org/2000/svg">
<path d="M254.402 55.0273C287.977 70.3537 331.795 75.9609 350.488 98.4645C369.182 120.968 362.752 160.368 347.946 191.918C333.141 223.468 309.886 247.168 285.21 262.12C260.534 276.998 234.363 282.979 205.873 300.025C177.309 316.996 146.502 344.957 113.526 349.368C80.5505 353.779 45.481 334.64 24.3944 305.857C3.30782 277.073 -3.72104 238.57 1.81231 205.001C7.34567 171.358 25.516 142.649 38.3773 110.202C51.2386 77.8299 58.7161 41.7195 80.5505 21.0102C102.31 0.300918 138.277 -5.082 167.888 4.78669C197.573 14.6554 220.903 39.7009 254.402 55.0273Z" fill="white"/>
</svg>
