<svg width="264" height="232" viewBox="0 0 264 232" fill="none" xmlns="http://www.w3.org/2000/svg">
<path d="M62.0592 201.855C32.8506 179.609 10.1381 149.051 2.68155 113.907C-4.70514 78.8162 3.1641 39.1406 26.3487 20.3143C49.4725 1.49695 87.9115 3.52904 122.18 2.15846C156.45 0.787766 186.548 -3.98571 213.239 7.45135C239.867 18.8974 263.148 46.545 263.977 74.2523C264.806 101.96 243.251 129.779 222.585 159.415C201.979 189.041 182.22 220.616 154.571 229.36C126.86 238.115 91.2066 224.11 62.0592 201.855Z" fill="#FFC20E"/>
<path d="M73.716 187.923C49.3755 169.416 30.4484 143.995 24.2346 114.759C18.0791 85.5669 24.6368 52.5609 43.9573 36.8994C63.227 21.2453 95.2596 22.9358 123.817 21.7956C152.375 20.6553 177.457 16.6843 199.699 26.1987C221.889 35.7207 241.29 58.7206 241.981 81.7702C242.671 104.82 224.709 127.963 207.487 152.617C190.316 177.263 173.85 203.529 150.809 210.804C127.716 218.087 98.0055 206.437 73.716 187.923Z" fill="white"/>
</svg>
