<svg width="34" height="34" viewBox="0 0 34 34" fill="none" xmlns="http://www.w3.org/2000/svg">
<path fill-rule="evenodd" clip-rule="evenodd" d="M17 34C26.3888 34 34 26.3888 34 17C34 7.61116 26.3888 0 17 0C7.61116 0 0 7.61116 0 17C0 26.3888 7.61116 34 17 34ZM26.3472 10.75C27.0425 10.75 27.187 11.1094 27.0425 11.5977C26.7534 12.9375 23.9448 16.8906 23.9409 16.8945C23.6987 17.2852 23.6011 17.4805 23.9409 17.918C23.9664 17.954 24.0961 18.0865 24.292 18.2868C25.1165 19.1295 27.1148 21.172 27.4683 22.2734C27.6597 22.9219 27.3276 23.25 26.6714 23.25H24.3706C23.7561 23.25 23.446 22.9052 22.7747 22.1587C22.4901 21.8422 22.1405 21.4535 21.6753 20.9883C20.3081 19.6719 19.7222 19.5 19.3823 19.5C18.7588 19.5 18.7604 19.6774 18.7751 21.3277C18.7777 21.6213 18.7808 21.9614 18.7808 22.3555C18.7808 22.9219 18.6011 23.25 17.1362 23.25C14.6987 23.25 12.019 21.7695 10.1167 19.0391C7.26123 15.0391 6.47998 12.0117 6.47998 11.4023C6.47998 11.0586 6.61279 10.75 7.26904 10.75H9.56982C10.1597 10.75 10.3823 11.0078 10.6089 11.6445C11.7339 14.9258 13.6323 17.793 14.4136 17.793C14.7065 17.793 14.8394 17.6562 14.8394 16.9141V13.5234C14.7862 12.5573 14.4493 12.1393 14.1999 11.8298C14.0459 11.6387 13.9253 11.489 13.9253 11.2773C13.9253 11.0234 14.144 10.75 14.5112 10.75H18.1284C18.6128 10.75 18.7769 11.0117 18.7769 11.5977V16.1562C18.7769 16.6445 18.9995 16.8164 19.144 16.8164C19.437 16.8164 19.6831 16.6445 20.2183 16.1094C21.8745 14.2578 23.0464 11.4023 23.0464 11.4023C23.1909 11.0586 23.4604 10.75 24.0464 10.75H26.3472Z" fill="white"/>
</svg>
