<svg width="34" height="34" viewBox="0 0 34 34" fill="none" xmlns="http://www.w3.org/2000/svg">
<path fill-rule="evenodd" clip-rule="evenodd" d="M34 17C34 26.3888 26.3888 34 17 34C7.61116 34 0 26.3888 0 17C0 7.61116 7.61116 0 17 0C26.3888 0 34 7.61116 34 17ZM22.1625 10.3203H20.2797C18.8031 10.3203 18.518 11.0234 18.518 12.0508V14.5H21.85L21.393 18.0547H18.518V27H14.8461V18.0547H11.85V14.5H14.8461V11.6992C14.8461 8.65625 16.7055 7 19.4203 7C20.7211 7 21.8383 7.09766 22.1625 7.14062V10.3203Z" fill="white"/>
</svg>
