<svg width="34" height="34" viewBox="0 0 34 34" fill="none" xmlns="http://www.w3.org/2000/svg">
<path fill-rule="evenodd" clip-rule="evenodd" d="M17 34C26.3888 34 34 26.3888 34 17C34 7.61116 26.3888 0 17 0C7.61116 0 0 7.61116 0 17C0 26.3888 7.61116 34 17 34ZM24.9568 13.4612C24.9568 13.2836 24.9568 13.1059 24.9441 12.9282C25.7436 12.3444 26.4416 11.6211 26.9999 10.8089C26.2639 11.1262 25.4644 11.3546 24.6395 11.4434C25.4898 10.9359 26.137 10.1364 26.4416 9.18457C25.6547 9.6541 24.7664 9.99676 23.84 10.1744C23.0913 9.37492 22.0253 8.88 20.8451 8.88C18.5736 8.88 16.7461 10.7201 16.7461 12.979C16.7461 13.2963 16.7842 13.6135 16.8477 13.918C13.4467 13.7404 10.4137 12.116 8.3959 9.62871C8.04055 10.2379 7.83754 10.9358 7.83754 11.6972C7.83754 13.1186 8.56086 14.3749 9.66492 15.1109C8.99238 15.0856 8.35781 14.8952 7.81215 14.5907V14.6414C7.81215 16.6338 9.22082 18.2835 11.099 18.6643C10.7564 18.753 10.3883 18.8038 10.0203 18.8038C9.75379 18.8038 9.5 18.7784 9.24617 18.7404C9.76648 20.3648 11.2766 21.545 13.0787 21.583C11.67 22.6871 9.90605 23.3343 7.98984 23.3343C7.64719 23.3343 7.32996 23.3216 7 23.2836C8.81473 24.451 10.9721 25.1236 13.2944 25.1236C20.8325 25.1236 24.9568 18.88 24.9568 13.4612Z" fill="white"/>
</svg>
