<svg width="16" height="17" viewBox="0 0 16 17" fill="none" xmlns="http://www.w3.org/2000/svg">
<path d="M15.965 12.4369C15.9197 12.3005 15.6318 12.0995 15.1014 11.8345C14.9577 11.751 14.753 11.6375 14.4881 11.4935C14.2229 11.3495 13.9823 11.2168 13.7665 11.0955C13.5503 10.9742 13.3477 10.8568 13.1585 10.7433C13.1282 10.7205 13.0336 10.6543 12.8745 10.5442C12.7152 10.4344 12.5809 10.3529 12.4709 10.2997C12.3611 10.2469 12.2531 10.2203 12.147 10.2203C11.9955 10.2203 11.8063 10.3284 11.5791 10.5442C11.3519 10.7603 11.1435 10.9951 10.9542 11.2492C10.7649 11.5031 10.5641 11.7379 10.3522 11.9539C10.14 12.17 9.96561 12.2779 9.82941 12.2779C9.76103 12.2779 9.67577 12.2588 9.57361 12.2212C9.47148 12.1833 9.39378 12.1509 9.34045 12.1247C9.28759 12.098 9.19689 12.0452 9.06801 11.9653C8.9389 11.8857 8.86709 11.8421 8.85197 11.8345C7.81416 11.2584 6.92408 10.5991 6.18159 9.85668C5.43934 9.11381 4.78016 8.22351 4.20443 7.18522C4.19687 7.17005 4.15321 7.09802 4.07373 6.96926C3.99412 6.84038 3.94107 6.74956 3.91456 6.69637C3.88805 6.64337 3.85585 6.56565 3.81804 6.46337C3.78023 6.36109 3.76125 6.27588 3.76125 6.2076C3.76125 6.07127 3.86923 5.89688 4.08515 5.68467C4.30103 5.47257 4.53594 5.27167 4.78963 5.08235C5.04352 4.89303 5.27819 4.68456 5.49415 4.45729C5.71003 4.22991 5.81797 4.04055 5.81797 3.88901C5.81797 3.78299 5.79146 3.67489 5.73849 3.56504C5.68547 3.45495 5.60404 3.32062 5.49415 3.1614C5.38422 3.00226 5.31795 2.90761 5.29518 2.87716C5.18167 2.68784 5.06438 2.48514 4.94302 2.26914C4.82167 2.05319 4.68921 1.81246 4.54521 1.54726C4.40133 1.28217 4.28778 1.07748 4.20435 0.933509C3.93936 0.403134 3.73864 0.115033 3.60224 0.0697235C3.54919 0.0469892 3.46958 0.0355225 3.36363 0.0355225C3.15898 0.0355225 2.89199 0.0733467 2.56248 0.149234C2.23284 0.225002 1.97346 0.304473 1.78405 0.387965C1.40526 0.547025 1.00378 1.00928 0.579504 1.77456C0.193155 2.48677 0 3.19169 0 3.88881C0 4.09327 0.0132538 4.29218 0.0397613 4.4856C0.0662689 4.67882 0.113632 4.89673 0.181891 5.13928C0.250031 5.38176 0.304996 5.56188 0.346548 5.67917C0.388141 5.79655 0.465793 6.00681 0.579465 6.31004C0.692977 6.61319 0.761236 6.79877 0.783963 6.86697C1.04908 7.60968 1.36347 8.27272 1.72705 8.85629C2.32526 9.82626 3.14162 10.8287 4.17566 11.8632C5.20973 12.8975 6.2116 13.7142 7.18132 14.3128C7.7646 14.6765 8.42765 14.9909 9.16998 15.2563C9.2382 15.279 9.42371 15.3471 9.72664 15.461C10.0297 15.5747 10.24 15.6523 10.3573 15.694C10.4747 15.7358 10.6548 15.7908 10.897 15.8591C11.1397 15.9273 11.3573 15.9747 11.5504 16.0014C11.7437 16.0276 11.9426 16.0411 12.147 16.0411C12.8439 16.0411 13.5486 15.8478 14.2607 15.4613C15.0256 15.037 15.4876 14.6354 15.6467 14.2562C15.7303 14.0669 15.8096 13.8073 15.8853 13.4776C15.9613 13.148 15.999 12.8809 15.999 12.6763C15.9993 12.5698 15.9878 12.4904 15.965 12.4369Z" fill="white"/>
</svg>
