<svg width="215" height="44" viewBox="0 0 215 44" fill="none" xmlns="http://www.w3.org/2000/svg">
<path d="M59.6802 19H62.7602V14.8H65.1002C68.2402 14.8 70.7602 13.12 70.7602 9.88001C70.7602 6.98001 68.7402 5.00001 65.4002 5.00001H59.6802V19ZM62.7602 12.06V7.78001H65.1402C66.6802 7.78001 67.6402 8.52001 67.6402 9.90001C67.6402 11.14 66.7402 12.06 65.2002 12.06H62.7602Z" fill="#5DB9E0"/>
<path d="M79.8396 19.24C84.1595 19.24 87.2996 15.98 87.2996 12C87.2996 7.98001 84.1996 4.76001 79.8796 4.76001C75.5596 4.76001 72.4196 8.02001 72.4196 12C72.4196 16.02 75.5195 19.24 79.8396 19.24ZM79.8796 16.4C77.3996 16.4 75.6396 14.4 75.6396 12C75.6396 9.56001 77.3596 7.60001 79.8396 7.60001C82.3195 7.60001 84.0796 9.60001 84.0796 12C84.0796 14.44 82.3596 16.4 79.8796 16.4Z" fill="#5DB9E0"/>
<path d="M90.0317 19H93.0517V9.92001L96.9517 15.84H97.0317L100.972 9.86001V19H104.032V5.00001H100.712L97.0317 10.92L93.3517 5.00001H90.0317V19Z" fill="#5DB9E0"/>
<path d="M114.195 19.24C118.515 19.24 121.655 15.98 121.655 12C121.655 7.98001 118.555 4.76001 114.235 4.76001C109.915 4.76001 106.775 8.02001 106.775 12C106.775 16.02 109.875 19.24 114.195 19.24ZM114.235 16.4C111.755 16.4 109.995 14.4 109.995 12C109.995 9.56001 111.715 7.60001 114.195 7.60001C116.675 7.60001 118.435 9.60001 118.435 12C118.435 14.44 116.715 16.4 114.235 16.4Z" fill="#5DB9E0"/>
<path d="M131.127 19.24C133.687 19.24 135.667 18.24 137.107 17.02V10.94H131.027V13.6H134.127V15.6C133.347 16.16 132.347 16.44 131.227 16.44C128.747 16.44 126.987 14.56 126.987 12C126.987 9.58001 128.767 7.60001 131.007 7.60001C132.627 7.60001 133.587 8.12001 134.667 9.02001L136.607 6.68001C135.147 5.44001 133.627 4.76001 131.107 4.76001C126.867 4.76001 123.767 8.02001 123.767 12C123.767 16.18 126.767 19.24 131.127 19.24Z" fill="#5DB9E0"/>
<path d="M145.911 19.22C149.671 19.22 152.051 17.14 152.051 12.9V5.00001H148.971V13.02C148.971 15.24 147.831 16.38 145.951 16.38C144.071 16.38 142.931 15.2 142.931 12.92V5.00001H139.851V13C139.851 17.12 142.151 19.22 145.911 19.22Z" fill="#5DB9E0"/>
<path d="M158.448 19H161.528V7.84001H165.788V5.00001H154.188V7.84001H158.448V19Z" fill="#5DB9E0"/>
<path d="M165.725 19H168.965V15.8H165.725V19Z" fill="#5DB9E0"/>
<path d="M171.887 19H178.547C181.707 19 183.787 17.72 183.787 15.16C183.787 13.24 182.787 12.3 181.167 11.68C182.167 11.12 183.007 10.24 183.007 8.66001C183.007 7.66001 182.687 6.88001 182.047 6.24001C181.247 5.44001 179.987 5.00001 178.387 5.00001H171.887V19ZM174.887 10.66V7.70001H177.927C179.227 7.70001 179.947 8.22001 179.947 9.14001C179.947 10.22 179.087 10.66 177.727 10.66H174.887ZM174.887 16.3V13.22H178.447C180.027 13.22 180.727 13.8 180.727 14.74C180.727 15.82 179.907 16.3 178.547 16.3H174.887Z" fill="#5DB9E0"/>
<path d="M189.655 19H192.735V13.42L198.115 5.00001H194.615L191.215 10.62L187.875 5.00001H184.275L189.655 13.48V19Z" fill="#5DB9E0"/>
<path d="M62.9349 40.18C65.2299 40.18 66.9099 38.35 66.9099 36.19C66.9099 34.06 65.2149 32.335 63.1899 32.335C61.5399 32.335 60.5199 33.1 59.9799 34.015C60.0999 32.53 60.6399 31.66 62.2449 31.255L66.4449 30.22L66.2199 29.245L61.8999 30.265C59.1999 30.91 59.0049 33.31 59.0049 35.815C59.0049 38.515 60.5799 40.18 62.9349 40.18ZM62.9649 39.145C61.4049 39.145 60.1899 37.84 60.1899 36.22C60.1899 34.6 61.3299 33.295 62.9349 33.295C64.4949 33.295 65.7099 34.6 65.7099 36.22C65.7099 37.84 64.5699 39.145 62.9649 39.145Z" fill="#5DB9E0"/>
<path d="M72.3918 40.18C73.8618 40.18 74.8068 39.595 75.5868 38.725L74.8668 38.08C74.2368 38.74 73.4868 39.175 72.4218 39.175C71.0568 39.175 69.8568 38.23 69.6918 36.595H75.8418C75.8568 36.415 75.8568 36.295 75.8568 36.19C75.8568 33.91 74.5368 32.08 72.2418 32.08C70.0968 32.08 68.5218 33.88 68.5218 36.13C68.5218 38.545 70.2618 40.18 72.3918 40.18ZM69.6918 35.665C69.8568 34.165 70.8768 33.055 72.2118 33.055C73.7418 33.055 74.5518 34.255 74.6868 35.665H69.6918Z" fill="#5DB9E0"/>
<path d="M80.3388 40.18C82.2588 40.18 83.4138 39.085 83.4138 37.84C83.4138 36.82 82.8288 36.235 81.9738 35.935C82.6338 35.665 83.2188 35.11 83.2188 34.15C83.2188 32.95 82.1538 32.08 80.4138 32.08C79.2738 32.08 78.2238 32.425 77.4138 33.055L77.9838 33.865C78.6588 33.325 79.5738 33.085 80.3388 33.085C81.2988 33.085 82.0188 33.52 82.0188 34.24C82.0188 35.05 81.3138 35.575 80.2938 35.575H79.2438V36.52H80.2788C81.5388 36.52 82.2288 37.015 82.2288 37.795C82.2288 38.695 81.3138 39.175 80.3088 39.175C79.3787 39.175 78.4938 38.83 77.7138 38.17L77.1288 39.025C78.0738 39.79 79.1088 40.18 80.3388 40.18Z" fill="#5DB9E0"/>
<path d="M89.0945 40.18C91.4345 40.18 93.1595 38.32 93.1595 36.13C93.1595 33.91 91.4495 32.08 89.1245 32.08C86.7845 32.08 85.0745 33.94 85.0745 36.13C85.0745 38.35 86.7695 40.18 89.0945 40.18ZM89.1245 39.145C87.4895 39.145 86.2595 37.795 86.2595 36.13C86.2595 34.465 87.4145 33.1 89.0945 33.1C90.7295 33.1 91.9745 34.465 91.9745 36.13C91.9745 37.795 90.8045 39.145 89.1245 39.145Z" fill="#5DB9E0"/>
<path d="M95.2518 40H96.4068V33.265H100.817V40H101.972V32.245H95.2518V40Z" fill="#5DB9E0"/>
<path d="M106.864 40.165C108.229 40.165 109.114 39.535 109.654 38.845V40H110.794V35.26C110.794 34.27 110.524 33.52 109.984 32.98C109.429 32.425 108.574 32.125 107.479 32.125C106.339 32.125 105.514 32.395 104.659 32.785L105.004 33.73C105.724 33.4 106.444 33.175 107.359 33.175C108.814 33.175 109.654 33.895 109.654 35.275V35.515C108.964 35.32 108.274 35.185 107.284 35.185C105.319 35.185 103.969 36.055 103.969 37.72C103.969 39.34 105.409 40.165 106.864 40.165ZM107.089 39.235C106.039 39.235 105.139 38.665 105.139 37.69C105.139 36.73 105.964 36.1 107.404 36.1C108.349 36.1 109.099 36.265 109.669 36.43V37.15C109.669 38.38 108.514 39.235 107.089 39.235Z" fill="#5DB9E0"/>
<path d="M116.735 40.18C118.19 40.18 119.12 39.55 119.9 38.68L119.135 37.975C118.52 38.635 117.785 39.145 116.795 39.145C115.175 39.145 113.945 37.81 113.945 36.13C113.945 34.435 115.145 33.1 116.72 33.1C117.77 33.1 118.49 33.595 119.105 34.24L119.84 33.46C119.12 32.695 118.205 32.08 116.735 32.08C114.47 32.08 112.76 33.94 112.76 36.13C112.76 38.335 114.47 40.18 116.735 40.18Z" fill="#5DB9E0"/>
<path d="M121.809 40H122.964V36.61H127.434V40H128.589V32.245H127.434V35.59H122.964V32.245H121.809V40Z" fill="#5DB9E0"/>
<path d="M134.71 40.18C137.05 40.18 138.775 38.32 138.775 36.13C138.775 33.91 137.065 32.08 134.74 32.08C132.4 32.08 130.69 33.94 130.69 36.13C130.69 38.35 132.385 40.18 134.71 40.18ZM134.74 39.145C133.105 39.145 131.875 37.795 131.875 36.13C131.875 34.465 133.03 33.1 134.71 33.1C136.345 33.1 137.59 34.465 137.59 36.13C137.59 37.795 136.42 39.145 134.74 39.145Z" fill="#5DB9E0"/>
<path d="M144.362 40.18C145.817 40.18 146.747 39.55 147.527 38.68L146.762 37.975C146.147 38.635 145.412 39.145 144.422 39.145C142.802 39.145 141.572 37.81 141.572 36.13C141.572 34.435 142.772 33.1 144.347 33.1C145.397 33.1 146.117 33.595 146.732 34.24L147.467 33.46C146.747 32.695 145.832 32.08 144.362 32.08C142.097 32.08 140.387 33.94 140.387 36.13C140.387 38.335 142.097 40.18 144.362 40.18Z" fill="#5DB9E0"/>
<path d="M151.311 40H152.481V33.265H155.256V32.245H148.536V33.265H151.311V40Z" fill="#5DB9E0"/>
<path d="M156.936 40H160.296C162.066 40 163.221 39.025 163.221 37.48C163.221 35.845 161.841 35.155 160.161 35.155H158.091V32.245H156.936V40ZM158.091 38.98V36.145H160.146C161.331 36.145 162.051 36.61 162.051 37.51C162.051 38.485 161.346 38.98 160.191 38.98H158.091Z" fill="#5DB9E0"/>
<path d="M169.505 40H173.39C175.1 40 176.21 39.19 176.21 37.885C176.21 36.79 175.43 36.22 174.5 35.965C175.145 35.695 175.79 35.2 175.79 34.18C175.79 33.01 174.8 32.245 173.255 32.245H169.505V40ZM170.66 39.01V36.505H173.09C174.35 36.505 175.025 36.955 175.025 37.705C175.025 38.515 174.35 39.01 173.24 39.01H170.66ZM170.66 35.575V33.235H173.075C174.08 33.235 174.62 33.685 174.62 34.33C174.62 35.14 173.975 35.575 173.045 35.575H170.66Z" fill="#5DB9E0"/>
<path d="M186.286 40.18C187.741 40.18 188.671 39.55 189.451 38.68L188.686 37.975C188.071 38.635 187.336 39.145 186.346 39.145C184.726 39.145 183.496 37.81 183.496 36.13C183.496 34.435 184.696 33.1 186.271 33.1C187.321 33.1 188.041 33.595 188.656 34.24L189.391 33.46C188.671 32.695 187.756 32.08 186.286 32.08C184.021 32.08 182.311 33.94 182.311 36.13C182.311 38.335 184.021 40.18 186.286 40.18Z" fill="#5DB9E0"/>
<path d="M194.75 40.18C196.22 40.18 197.165 39.595 197.945 38.725L197.225 38.08C196.595 38.74 195.845 39.175 194.78 39.175C193.415 39.175 192.215 38.23 192.05 36.595H198.2C198.215 36.415 198.215 36.295 198.215 36.19C198.215 33.91 196.895 32.08 194.6 32.08C192.455 32.08 190.88 33.88 190.88 36.13C190.88 38.545 192.62 40.18 194.75 40.18ZM192.05 35.665C192.215 34.165 193.235 33.055 194.57 33.055C196.1 33.055 196.91 34.255 197.045 35.665H192.05Z" fill="#5DB9E0"/>
<path d="M202.112 40H203.282V33.265H206.057V32.245H199.337V33.265H202.112V40Z" fill="#5DB9E0"/>
<path d="M207.737 40H208.847L213.467 33.865V40H214.622V32.245H213.497L208.892 38.38V32.245H207.737V40Z" fill="#5DB9E0"/>
<path opacity="0.7" d="M27 30.5C27 37.9558 20.9558 44 13.5 44C6.04416 44 0 37.9558 0 30.5C0 23.0442 6.04416 17 13.5 17C20.9558 17 27 23.0442 27 30.5Z" fill="white"/>
<path opacity="0.7" d="M47 30.5C47 37.9558 40.9558 44 33.5 44C26.0442 44 20 37.9558 20 30.5C20 23.0442 26.0442 17 33.5 17C40.9558 17 47 23.0442 47 30.5Z" fill="white"/>
<path opacity="0.7" d="M37 13.5C37 20.9558 30.9558 27 23.5 27C16.0442 27 10 20.9558 10 13.5C10 6.04416 16.0442 0 23.5 0C30.9558 0 37 6.04416 37 13.5Z" fill="white"/>
<path opacity="0.7" d="M27 30.5C27 37.9558 20.9558 44 13.5 44C6.04416 44 0 37.9558 0 30.5C0 23.0442 6.04416 17 13.5 17C20.9558 17 27 23.0442 27 30.5Z" fill="#2FBFC3"/>
<path opacity="0.7" d="M47 30.5C47 37.9558 40.9558 44 33.5 44C26.0442 44 20 37.9558 20 30.5C20 23.0442 26.0442 17 33.5 17C40.9558 17 47 23.0442 47 30.5Z" fill="#5DB9E0"/>
<path opacity="0.7" d="M37 13.5C37 20.9558 30.9558 27 23.5 27C16.0442 27 10 20.9558 10 13.5C10 6.04416 16.0442 0 23.5 0C30.9558 0 37 6.04416 37 13.5Z" fill="#B2D66E"/>
</svg>
