<svg width="428" height="44" viewBox="0 0 428 44" fill="none" xmlns="http://www.w3.org/2000/svg">
<path d="M58.68 38H61.76V33.8H64.1C67.24 33.8 69.76 32.12 69.76 28.88C69.76 25.98 67.74 24 64.4 24H58.68V38ZM61.76 31.06V26.78H64.14C65.68 26.78 66.64 27.52 66.64 28.9C66.64 30.14 65.74 31.06 64.2 31.06H61.76Z" fill="#5DB9E0"/>
<path d="M78.8394 38.24C83.1594 38.24 86.2994 34.98 86.2994 31C86.2994 26.98 83.1994 23.76 78.8794 23.76C74.5594 23.76 71.4194 27.02 71.4194 31C71.4194 35.02 74.5194 38.24 78.8394 38.24ZM78.8794 35.4C76.3994 35.4 74.6394 33.4 74.6394 31C74.6394 28.56 76.3594 26.6 78.8394 26.6C81.3194 26.6 83.0794 28.6 83.0794 31C83.0794 33.44 81.3594 35.4 78.8794 35.4Z" fill="#5DB9E0"/>
<path d="M89.0316 38H92.0516V28.92L95.9516 34.84H96.0316L99.9716 28.86V38H103.032V24H99.7116L96.0316 29.92L92.3516 24H89.0316V38Z" fill="#5DB9E0"/>
<path d="M113.195 38.24C117.515 38.24 120.655 34.98 120.655 31C120.655 26.98 117.555 23.76 113.235 23.76C108.915 23.76 105.775 27.02 105.775 31C105.775 35.02 108.875 38.24 113.195 38.24ZM113.235 35.4C110.755 35.4 108.995 33.4 108.995 31C108.995 28.56 110.715 26.6 113.195 26.6C115.675 26.6 117.435 28.6 117.435 31C117.435 33.44 115.715 35.4 113.235 35.4Z" fill="#5DB9E0"/>
<path d="M130.127 38.24C132.687 38.24 134.667 37.24 136.107 36.02V29.94H130.027V32.6H133.127V34.6C132.347 35.16 131.347 35.44 130.227 35.44C127.747 35.44 125.987 33.56 125.987 31C125.987 28.58 127.767 26.6 130.007 26.6C131.627 26.6 132.587 27.12 133.667 28.02L135.607 25.68C134.147 24.44 132.627 23.76 130.107 23.76C125.867 23.76 122.767 27.02 122.767 31C122.767 35.18 125.767 38.24 130.127 38.24Z" fill="#5DB9E0"/>
<path d="M144.911 38.22C148.671 38.22 151.051 36.14 151.051 31.9V24H147.971V32.02C147.971 34.24 146.831 35.38 144.951 35.38C143.071 35.38 141.931 34.2 141.931 31.92V24H138.851V32C138.851 36.12 141.151 38.22 144.911 38.22Z" fill="#5DB9E0"/>
<path d="M157.448 38H160.528V26.84H164.788V24H153.188V26.84H157.448V38Z" fill="#5DB9E0"/>
<path d="M164.724 38H167.964V34.8H164.724V38Z" fill="#5DB9E0"/>
<path d="M170.887 38H177.547C180.707 38 182.787 36.72 182.787 34.16C182.787 32.24 181.787 31.3 180.167 30.68C181.167 30.12 182.007 29.24 182.007 27.66C182.007 26.66 181.687 25.88 181.047 25.24C180.247 24.44 178.987 24 177.387 24H170.887V38ZM173.887 29.66V26.7H176.927C178.227 26.7 178.947 27.22 178.947 28.14C178.947 29.22 178.087 29.66 176.727 29.66H173.887ZM173.887 35.3V32.22H177.447C179.027 32.22 179.727 32.8 179.727 33.74C179.727 34.82 178.907 35.3 177.547 35.3H173.887Z" fill="#5DB9E0"/>
<path d="M188.655 38H191.735V32.42L197.115 24H193.615L190.215 29.62L186.875 24H183.275L188.655 32.48V38Z" fill="#5DB9E0"/>
<path d="M225.58 38.24C228.64 38.24 230.88 35.8 230.88 32.92C230.88 30.08 228.62 27.78 225.92 27.78C223.72 27.78 222.36 28.8 221.64 30.02C221.8 28.04 222.52 26.88 224.66 26.34L230.26 24.96L229.96 23.66L224.2 25.02C220.6 25.88 220.34 29.08 220.34 32.42C220.34 36.02 222.44 38.24 225.58 38.24ZM225.62 36.86C223.54 36.86 221.92 35.12 221.92 32.96C221.92 30.8 223.44 29.06 225.58 29.06C227.66 29.06 229.28 30.8 229.28 32.96C229.28 35.12 227.76 36.86 225.62 36.86Z" fill="#5DB9E0"/>
<path d="M238.189 38.24C240.149 38.24 241.409 37.46 242.449 36.3L241.489 35.44C240.649 36.32 239.649 36.9 238.229 36.9C236.409 36.9 234.809 35.64 234.589 33.46H242.789C242.809 33.22 242.809 33.06 242.809 32.92C242.809 29.88 241.049 27.44 237.989 27.44C235.129 27.44 233.029 29.84 233.029 32.84C233.029 36.06 235.349 38.24 238.189 38.24ZM234.589 32.22C234.809 30.22 236.169 28.74 237.949 28.74C239.989 28.74 241.069 30.34 241.249 32.22H234.589Z" fill="#5DB9E0"/>
<path d="M248.785 38.24C251.345 38.24 252.885 36.78 252.885 35.12C252.885 33.76 252.105 32.98 250.965 32.58C251.845 32.22 252.625 31.48 252.625 30.2C252.625 28.6 251.205 27.44 248.885 27.44C247.365 27.44 245.965 27.9 244.885 28.74L245.645 29.82C246.545 29.1 247.765 28.78 248.785 28.78C250.065 28.78 251.025 29.36 251.025 30.32C251.025 31.4 250.085 32.1 248.725 32.1H247.325V33.36H248.705C250.385 33.36 251.305 34.02 251.305 35.06C251.305 36.26 250.085 36.9 248.745 36.9C247.505 36.9 246.325 36.44 245.285 35.56L244.505 36.7C245.765 37.72 247.145 38.24 248.785 38.24Z" fill="#5DB9E0"/>
<path d="M260.46 38.24C263.58 38.24 265.88 35.76 265.88 32.84C265.88 29.88 263.6 27.44 260.5 27.44C257.38 27.44 255.1 29.92 255.1 32.84C255.1 35.8 257.36 38.24 260.46 38.24ZM260.5 36.86C258.32 36.86 256.68 35.06 256.68 32.84C256.68 30.62 258.22 28.8 260.46 28.8C262.64 28.8 264.3 30.62 264.3 32.84C264.3 35.06 262.74 36.86 260.5 36.86Z" fill="#5DB9E0"/>
<path d="M268.669 38H270.209V29.02H276.089V38H277.629V27.66H268.669V38Z" fill="#5DB9E0"/>
<path d="M284.152 38.22C285.972 38.22 287.152 37.38 287.872 36.46V38H289.392V31.68C289.392 30.36 289.032 29.36 288.312 28.64C287.572 27.9 286.432 27.5 284.972 27.5C283.452 27.5 282.352 27.86 281.212 28.38L281.672 29.64C282.632 29.2 283.592 28.9 284.812 28.9C286.752 28.9 287.872 29.86 287.872 31.7V32.02C286.952 31.76 286.032 31.58 284.712 31.58C282.092 31.58 280.292 32.74 280.292 34.96C280.292 37.12 282.212 38.22 284.152 38.22ZM284.452 36.98C283.052 36.98 281.852 36.22 281.852 34.92C281.852 33.64 282.952 32.8 284.872 32.8C286.132 32.8 287.132 33.02 287.892 33.24V34.2C287.892 35.84 286.352 36.98 284.452 36.98Z" fill="#5DB9E0"/>
<path d="M297.314 38.24C299.254 38.24 300.494 37.4 301.534 36.24L300.514 35.3C299.694 36.18 298.714 36.86 297.394 36.86C295.234 36.86 293.594 35.08 293.594 32.84C293.594 30.58 295.194 28.8 297.294 28.8C298.694 28.8 299.654 29.46 300.474 30.32L301.454 29.28C300.494 28.26 299.274 27.44 297.314 27.44C294.294 27.44 292.014 29.92 292.014 32.84C292.014 35.78 294.294 38.24 297.314 38.24Z" fill="#5DB9E0"/>
<path d="M304.079 38H305.619V33.48H311.579V38H313.119V27.66H311.579V32.12H305.619V27.66H304.079V38Z" fill="#5DB9E0"/>
<path d="M321.28 38.24C324.4 38.24 326.7 35.76 326.7 32.84C326.7 29.88 324.42 27.44 321.32 27.44C318.2 27.44 315.92 29.92 315.92 32.84C315.92 35.8 318.18 38.24 321.28 38.24ZM321.32 36.86C319.14 36.86 317.5 35.06 317.5 32.84C317.5 30.62 319.04 28.8 321.28 28.8C323.46 28.8 325.12 30.62 325.12 32.84C325.12 35.06 323.56 36.86 321.32 36.86Z" fill="#5DB9E0"/>
<path d="M334.15 38.24C336.09 38.24 337.33 37.4 338.37 36.24L337.35 35.3C336.53 36.18 335.55 36.86 334.23 36.86C332.07 36.86 330.43 35.08 330.43 32.84C330.43 30.58 332.03 28.8 334.13 28.8C335.53 28.8 336.49 29.46 337.31 30.32L338.29 29.28C337.33 28.26 336.11 27.44 334.15 27.44C331.13 27.44 328.85 29.92 328.85 32.84C328.85 35.78 331.13 38.24 334.15 38.24Z" fill="#5DB9E0"/>
<path d="M343.415 38H344.975V29.02H348.675V27.66H339.715V29.02H343.415V38Z" fill="#5DB9E0"/>
<path d="M350.915 38H355.395C357.755 38 359.295 36.7 359.295 34.64C359.295 32.46 357.455 31.54 355.215 31.54H352.455V27.66H350.915V38ZM352.455 36.64V32.86H355.195C356.775 32.86 357.735 33.48 357.735 34.68C357.735 35.98 356.795 36.64 355.255 36.64H352.455Z" fill="#5DB9E0"/>
<path d="M367.673 38H372.853C375.133 38 376.613 36.92 376.613 35.18C376.613 33.72 375.573 32.96 374.333 32.62C375.193 32.26 376.053 31.6 376.053 30.24C376.053 28.68 374.733 27.66 372.673 27.66H367.673V38ZM369.213 36.68V33.34H372.453C374.133 33.34 375.033 33.94 375.033 34.94C375.033 36.02 374.133 36.68 372.653 36.68H369.213ZM369.213 32.1V28.98H372.433C373.773 28.98 374.493 29.58 374.493 30.44C374.493 31.52 373.633 32.1 372.393 32.1H369.213Z" fill="#5DB9E0"/>
<path d="M390.048 38.24C391.988 38.24 393.228 37.4 394.268 36.24L393.248 35.3C392.428 36.18 391.448 36.86 390.128 36.86C387.968 36.86 386.328 35.08 386.328 32.84C386.328 30.58 387.928 28.8 390.028 28.8C391.428 28.8 392.388 29.46 393.208 30.32L394.188 29.28C393.228 28.26 392.008 27.44 390.048 27.44C387.028 27.44 384.748 29.92 384.748 32.84C384.748 35.78 387.028 38.24 390.048 38.24Z" fill="#5DB9E0"/>
<path d="M401.334 38.24C403.294 38.24 404.554 37.46 405.594 36.3L404.634 35.44C403.794 36.32 402.794 36.9 401.374 36.9C399.554 36.9 397.954 35.64 397.734 33.46H405.934C405.954 33.22 405.954 33.06 405.954 32.92C405.954 29.88 404.194 27.44 401.134 27.44C398.274 27.44 396.174 29.84 396.174 32.84C396.174 36.06 398.494 38.24 401.334 38.24ZM397.734 32.22C397.954 30.22 399.314 28.74 401.094 28.74C403.134 28.74 404.214 30.34 404.394 32.22H397.734Z" fill="#5DB9E0"/>
<path d="M411.15 38H412.71V29.02H416.41V27.66H407.45V29.02H411.15V38Z" fill="#5DB9E0"/>
<path d="M418.65 38H420.13L426.29 29.82V38H427.83V27.66H426.33L420.19 35.84V27.66H418.65V38Z" fill="#5DB9E0"/>
<path d="M208 24H209V38H208V24Z" fill="#5DB9E0"/>
<path opacity="0.7" d="M27 30.5C27 37.9558 20.9558 44 13.5 44C6.04416 44 0 37.9558 0 30.5C0 23.0442 6.04416 17 13.5 17C20.9558 17 27 23.0442 27 30.5Z" fill="white"/>
<path opacity="0.7" d="M47 30.5C47 37.9558 40.9558 44 33.5 44C26.0442 44 20 37.9558 20 30.5C20 23.0442 26.0442 17 33.5 17C40.9558 17 47 23.0442 47 30.5Z" fill="white"/>
<path opacity="0.7" d="M37 13.5C37 20.9558 30.9558 27 23.5 27C16.0442 27 10 20.9558 10 13.5C10 6.04416 16.0442 0 23.5 0C30.9558 0 37 6.04416 37 13.5Z" fill="white"/>
<path opacity="0.7" d="M27 30.5C27 37.9558 20.9558 44 13.5 44C6.04416 44 0 37.9558 0 30.5C0 23.0442 6.04416 17 13.5 17C20.9558 17 27 23.0442 27 30.5Z" fill="#2FBFC3"/>
<path opacity="0.7" d="M47 30.5C47 37.9558 40.9558 44 33.5 44C26.0442 44 20 37.9558 20 30.5C20 23.0442 26.0442 17 33.5 17C40.9558 17 47 23.0442 47 30.5Z" fill="#5DB9E0"/>
<path opacity="0.7" d="M37 13.5C37 20.9558 30.9558 27 23.5 27C16.0442 27 10 20.9558 10 13.5C10 6.04416 16.0442 0 23.5 0C30.9558 0 37 6.04416 37 13.5Z" fill="#B2D66E"/>
</svg>
