<svg width="1456" height="15" viewBox="0 0 1456 15" fill="none" xmlns="http://www.w3.org/2000/svg">
<path d="M12.9999 14.9998L0 0.000972748L25.9999 0.000972748L12.9999 14.9998Z" fill="#F2F2F2"/>
<path d="M38.9999 14.9998L25.9999 0.000972748L51.9999 0.000977516L38.9999 14.9998Z" fill="#F2F2F2"/>
<path d="M65 14.9999L51.9999 0.000977516L77.9999 0.00101948L65 14.9999Z" fill="#F2F2F2"/>
<path d="M90.9999 14.9999L77.9999 0.00101948L104 0.00102425L90.9999 14.9999Z" fill="#F2F2F2"/>
<path d="M117 15L104 0.00102425L130 0.00113392L117 15Z" fill="#F2F2F2"/>
<path d="M143 15L130 0.00113392L156 0.00108719L143 15Z" fill="#F2F2F2"/>
<path d="M169 14.9999L156 0.00108719L182 0.00104046L169 14.9999Z" fill="#F2F2F2"/>
<path d="M194.999 14.9999L182 0.00104046L207.999 0.000993729L194.999 14.9999Z" fill="#F2F2F2"/>
<path d="M221 14.9998L207.999 0.000993729L234 0.000905037L221 14.9998Z" fill="#F2F2F2"/>
<path d="M247 14.9997L234 0.000905037L260 0.000868797L247 14.9997Z" fill="#F2F2F2"/>
<path d="M273 14.9997L260 0.000868797L286 0.000873566L273 14.9997Z" fill="#F2F2F2"/>
<path d="M299 14.9998L286 0.000873566L312 0.000915527L299 14.9998Z" fill="#F2F2F2"/>
<path d="M325 14.9998L312 0.000915527L338 0.000920296L325 14.9998Z" fill="#F2F2F2"/>
<path d="M351 14.9999L338 0.000920296L364 0.00102997L351 14.9999Z" fill="#F2F2F2"/>
<path d="M377 14.9998L364 0.00102997L390 0.000983238L377 14.9998Z" fill="#F2F2F2"/>
<path d="M403 14.9998L390 0.000983238L416 0.000936508L403 14.9998Z" fill="#F2F2F2"/>
<path d="M429 14.9998L416 0.000936508L442 0.000889778L429 14.9998Z" fill="#F2F2F2"/>
<path d="M454.999 14.9997L442 0.000889778L467.999 0.000801086L454.999 14.9997Z" fill="#F2F2F2"/>
<path d="M481 14.9996L467.999 0.000801086L494 0.000701904L481 14.9996Z" fill="#F2F2F2"/>
<path d="M507 14.9996L494 0.000701904L520 0.000707626L507 14.9996Z" fill="#F2F2F2"/>
<path d="M533 14.9996L520 0.000707626L546 0.000748634L533 14.9996Z" fill="#F2F2F2"/>
<path d="M559 14.9996L546 0.000748634L572 0.000754356L559 14.9996Z" fill="#F2F2F2"/>
<path d="M585 14.9997L572 0.000754356L598 0.000863075L585 14.9997Z" fill="#F2F2F2"/>
<path d="M611 14.9997L598 0.000863075L624 0.000816345L611 14.9997Z" fill="#F2F2F2"/>
<path d="M637 14.9996L624 0.000816345L650 0.000769615L637 14.9996Z" fill="#F2F2F2"/>
<path d="M663 14.9996L650 0.000769615L676 0.000722885L663 14.9996Z" fill="#F2F2F2"/>
<path d="M688.999 14.9995L676 0.000722885L701.999 0.000634193L688.999 14.9995Z" fill="#F2F2F2"/>
<path d="M715 14.9995L701.999 0.000634193L728 0.000618935L715 14.9995Z" fill="#F2F2F2"/>
<path d="M741 14.9995L728 0.000618935L754 0.000623703L741 14.9995Z" fill="#F2F2F2"/>
<path d="M767 14.9995L754 0.000623703L780 0.000665665L767 14.9995Z" fill="#F2F2F2"/>
<path d="M793 14.9995L780 0.000665665L806 0.000671387L793 14.9995Z" fill="#F2F2F2"/>
<path d="M819 14.9996L806 0.000671387L832 0.000780106L819 14.9996Z" fill="#F2F2F2"/>
<path d="M845 14.9996L832 0.000780106L858 0.000733376L845 14.9996Z" fill="#F2F2F2"/>
<path d="M871 14.9996L858 0.000733376L884 0.000686646L871 14.9996Z" fill="#F2F2F2"/>
<path d="M897 14.9995L884 0.000686646L910 0.000639915L897 14.9995Z" fill="#F2F2F2"/>
<path d="M922.999 14.9994L910 0.000639915L935.999 0.000551224L922.999 14.9994Z" fill="#F2F2F2"/>
<path d="M949 14.9995L935.999 0.000551224L962 0.000618935L949 14.9995Z" fill="#F2F2F2"/>
<path d="M975 14.9995L962 0.000618935L988 0.000623703L975 14.9995Z" fill="#F2F2F2"/>
<path d="M1001 14.9995L988 0.000623703L1014 0.000665665L1001 14.9995Z" fill="#F2F2F2"/>
<path d="M1027 14.9995L1014 0.000665665L1040 0.000671387L1027 14.9995Z" fill="#F2F2F2"/>
<path d="M1053 14.9996L1040 0.000671387L1066 0.000780106L1053 14.9996Z" fill="#F2F2F2"/>
<path d="M1079 14.9996L1066 0.000780106L1092 0.000733376L1079 14.9996Z" fill="#F2F2F2"/>
<path d="M1105 14.9996L1092 0.000733376L1118 0.000686646L1105 14.9996Z" fill="#F2F2F2"/>
<path d="M1131 14.9995L1118 0.000686646L1144 0.000639915L1131 14.9995Z" fill="#F2F2F2"/>
<path d="M1157 14.9994L1144 0.000639915L1170 0.000551224L1157 14.9994Z" fill="#F2F2F2"/>
<path d="M1183 14.9992L1170 0.000551224L1196 0.000369072L1183 14.9992Z" fill="#F2F2F2"/>
<path d="M1209 14.9992L1196 0.000369072L1222 0.000374794L1209 14.9992Z" fill="#F2F2F2"/>
<path d="M1235 14.9993L1222 0.000374794L1248 0.000415802L1235 14.9993Z" fill="#F2F2F2"/>
<path d="M1261 14.9993L1248 0.000415802L1274 0.000421524L1261 14.9993Z" fill="#F2F2F2"/>
<path d="M1287 14.9994L1274 0.000421524L1300 0.000530243L1287 14.9994Z" fill="#F2F2F2"/>
<path d="M1313 14.9993L1300 0.000530243L1326 0.000483513L1313 14.9993Z" fill="#F2F2F2"/>
<path d="M1339 14.9993L1326 0.000483513L1352 0.000436783L1339 14.9993Z" fill="#F2F2F2"/>
<path d="M1365 14.9993L1352 0.000436783L1378 0.000390053L1365 14.9993Z" fill="#F2F2F2"/>
<path d="M1391 14.9992L1378 0.000390053L1404 0.000301361L1391 14.9992Z" fill="#F2F2F2"/>
<path d="M1417 14.999L1404 0.000301361L1430 0.000171661L1417 14.999Z" fill="#F2F2F2"/>
<path d="M1443 14.9989L1430 0.000171661L1456 0L1443 14.9989Z" fill="#F2F2F2"/>
</svg>
