<svg width="38" height="39" viewBox="0 0 38 39" fill="none" xmlns="http://www.w3.org/2000/svg">
<path fill-rule="evenodd" clip-rule="evenodd" d="M19 38.54C29.4934 38.54 38 30.0334 38 19.54C38 9.04663 29.4934 0.540039 19 0.540039C8.50659 0.540039 0 9.04663 0 19.54C0 30.0334 8.50659 38.54 19 38.54ZM19.4114 8.37934C24.4146 8.40117 26.6586 10.0296 27.2131 10.5404C29.0555 12.1427 30.0771 15.6877 29.3873 21.3021C28.7832 26.2537 25.3324 27.1322 24.1712 27.4278C24.0567 27.4569 23.9645 27.4804 23.8994 27.5016C23.5851 27.602 20.8303 28.2918 17.2416 27.9906C16.8443 28.449 16.3204 29.0514 15.9406 29.4618C15.8255 29.5855 15.7178 29.7078 15.6148 29.8247C15.0964 30.4132 14.6985 30.8649 14.0938 30.6755C13.4913 30.4922 13.5263 29.5797 13.5263 29.5797L13.5306 27.327H13.5263C8.28293 25.8513 8.35715 20.4115 8.41827 17.5082C8.4794 14.605 9.04259 12.2605 10.6405 10.6627C13.5132 8.02571 19.4114 8.37934 19.4114 8.37934ZM23.5807 25.8513C24.5682 25.6209 27.3128 24.9804 27.8199 20.8918C28.4006 16.2072 27.606 13.0115 26.0474 11.6755C25.5759 11.2477 23.5502 9.97286 19.3197 9.9554C19.3197 9.9554 14.3121 9.62796 11.8804 11.8327C10.527 13.1686 10.0686 15.1551 10.0205 17.5781C10.0189 17.6614 10.017 17.7474 10.015 17.8358C9.96005 20.3158 9.86343 24.6756 14.1549 25.8644C14.1549 25.8644 14.1375 29.3047 14.1375 29.6059C14.1331 30.0643 14.3863 30.0861 14.6177 29.8548C15.325 29.1431 17.5952 26.4058 17.5952 26.4058C20.6382 26.6022 23.0612 25.9997 23.3231 25.9168C23.384 25.8972 23.4716 25.8768 23.5807 25.8513ZM21.1883 17.3904C21.2057 17.7658 21.7689 17.7396 21.7515 17.3642C21.6903 16.1112 21.0136 15.4127 19.7956 15.3472C19.4245 15.3253 19.3896 15.8885 19.765 15.9104C20.6906 15.9628 21.1402 16.4299 21.1883 17.3904ZM19.3284 14.3954C21.5244 14.557 22.6814 16.0064 22.6377 17.8575C22.629 18.2286 23.1965 18.2461 23.2009 17.8706C23.2489 15.7576 21.8999 14.0156 19.3677 13.8322C18.9966 13.806 18.9573 14.3692 19.3284 14.3954ZM24.1265 18.4469C24.1265 18.8224 24.694 18.818 24.6896 18.4425C24.6591 14.6094 22.0702 12.3872 18.8526 12.3653C18.4815 12.3653 18.4815 12.9241 18.8526 12.9285C21.7296 12.9503 24.1003 14.8888 24.1265 18.4469ZM24.1963 22.7341V22.7254C24.4059 22.3237 24.336 21.9439 24.0304 21.6951C23.489 21.1843 22.6726 20.6211 22.0309 20.2587C21.555 19.9924 21.0704 20.1583 20.8696 20.4202L20.4504 20.9441C20.2365 21.2105 19.8392 21.1755 19.8392 21.1755C16.936 20.4333 16.1589 17.4952 16.1589 17.4952C16.1589 17.4952 16.1239 17.0979 16.3902 16.8839L16.9141 16.4648C17.1761 16.264 17.342 15.7794 17.0757 15.3035C16.9229 15.0372 16.6304 14.5613 16.4121 14.2645C16.1807 13.9457 15.6393 13.2996 15.6393 13.2996C15.3817 12.9896 14.9975 12.9198 14.5959 13.1293H14.5872C13.7533 13.6008 12.8408 14.4827 13.1333 15.3908C13.1333 15.3908 13.3385 16.1418 14.2685 17.8226C14.7094 18.6259 15.1635 19.2939 15.6131 19.8571C16.1108 20.4901 16.757 21.1493 17.4642 21.7082C18.8351 22.7996 21.0049 23.9173 21.9261 24.1748L21.9348 24.1879C22.8429 24.4804 23.7248 23.5636 24.1963 22.7341Z" fill="white"/>
</svg>
