<svg width="38" height="39" viewBox="0 0 38 39" fill="none" xmlns="http://www.w3.org/2000/svg">
<path fill-rule="evenodd" clip-rule="evenodd" d="M19 38.54C29.4934 38.54 38 30.0334 38 19.54C38 9.04663 29.4934 0.540039 19 0.540039C8.50659 0.540039 0 9.04663 0 19.54C0 30.0334 8.50659 38.54 19 38.54ZM29.4469 12.5549C30.224 12.5549 30.3855 12.9566 30.224 13.5023C29.9009 14.9998 26.7619 19.418 26.7575 19.4223C26.4869 19.8589 26.3777 20.0772 26.7575 20.5662C26.786 20.6064 26.9309 20.7545 27.15 20.9784C28.0714 21.9203 30.3048 24.203 30.6999 25.4341C30.9138 26.1588 30.5427 26.5255 29.8092 26.5255H27.2378C26.551 26.5255 26.2044 26.1401 25.4542 25.3059C25.136 24.9521 24.7453 24.5177 24.2254 23.9977C22.6973 22.5264 22.0425 22.3343 21.6626 22.3343C20.9658 22.3343 20.9676 22.5326 20.984 24.3771C20.9869 24.7052 20.9903 25.0854 20.9903 25.5257C20.9903 26.1588 20.7895 26.5255 19.1523 26.5255C16.428 26.5255 13.4331 24.8709 11.3069 21.8192C8.11553 17.3486 7.24237 13.9651 7.24237 13.284C7.24237 12.8998 7.39081 12.5549 8.12426 12.5549H10.6957C11.355 12.5549 11.6038 12.8431 11.857 13.5547C13.1144 17.222 15.2362 20.4265 16.1093 20.4265C16.4368 20.4265 16.5852 20.2737 16.5852 19.4442V15.6547C16.5258 14.5748 16.1493 14.1076 15.8705 13.7617C15.6984 13.5482 15.5636 13.3809 15.5636 13.1443C15.5636 12.8605 15.8081 12.5549 16.2185 12.5549H20.2612C20.8026 12.5549 20.9859 12.8474 20.9859 13.5023V18.5972C20.9859 19.1429 21.2348 19.335 21.3963 19.335C21.7238 19.335 21.9988 19.1429 22.5969 18.5448C24.448 16.4754 25.7578 13.284 25.7578 13.284C25.9193 12.8998 26.2205 12.5549 26.8754 12.5549H29.4469Z" fill="white"/>
</svg>
