<svg width="38" height="39" viewBox="0 0 38 39" fill="none" xmlns="http://www.w3.org/2000/svg">
<path fill-rule="evenodd" clip-rule="evenodd" d="M38 19.54C38 30.0334 29.4934 38.54 19 38.54C8.50659 38.54 0 30.0334 0 19.54C0 9.04663 8.50659 0.540039 19 0.540039C29.4934 0.540039 38 9.04663 38 19.54ZM24.7698 12.0745H22.6654C21.0152 12.0745 20.6965 12.8603 20.6965 14.0085V16.7459H24.4205L23.9097 20.7188H20.6965V30.7165H16.5926V20.7188H13.244V16.7459H16.5926V13.6156C16.5926 10.2146 18.6707 8.36353 21.705 8.36353C23.1588 8.36353 24.4074 8.47267 24.7698 8.52069V12.0745Z" fill="white"/>
</svg>
