<svg width="38" height="39" viewBox="0 0 38 39" fill="none" xmlns="http://www.w3.org/2000/svg">
<path fill-rule="evenodd" clip-rule="evenodd" d="M19 38.54C29.4934 38.54 38 30.0334 38 19.54C38 9.04663 29.4934 0.540039 19 0.540039C8.50659 0.540039 0 9.04663 0 19.54C0 30.0334 8.50659 38.54 19 38.54ZM27.8929 15.5848C27.8929 15.3862 27.8929 15.1876 27.8787 14.9891C28.7723 14.3366 29.5524 13.5282 30.1764 12.6205C29.3538 12.975 28.4602 13.2304 27.5383 13.3296C28.4885 12.7623 29.2119 11.8688 29.5523 10.805C28.6729 11.3298 27.6801 11.7127 26.6447 11.9113C25.8079 11.0177 24.6165 10.4646 23.2975 10.4646C20.7587 10.4646 18.7163 12.5212 18.7163 15.0458C18.7163 15.4004 18.7588 15.755 18.8297 16.0954C15.0286 15.8968 11.6388 14.0813 9.38364 11.3014C8.98648 11.9822 8.75959 12.7623 8.75959 13.6133C8.75959 15.2018 9.56801 16.6059 10.802 17.4286C10.0503 17.4003 9.34107 17.1875 8.73121 16.8471V16.9038C8.73121 19.1306 10.3056 20.9744 12.4047 21.3999C12.0218 21.4992 11.6105 21.5559 11.1992 21.5559C10.9013 21.5559 10.6176 21.5276 10.3339 21.485C10.9155 23.3005 12.6033 24.6196 14.6173 24.6621C13.043 25.8961 11.0715 26.6194 8.92981 26.6194C8.54684 26.6194 8.1923 26.6052 7.82352 26.5627C9.85174 27.8675 12.2629 28.6192 14.8584 28.6192C23.2834 28.6192 27.8929 21.641 27.8929 15.5848Z" fill="white"/>
</svg>
