<svg width="264" height="274" viewBox="0 0 264 274" fill="none" xmlns="http://www.w3.org/2000/svg">
<path d="M180.888 264.409C143.632 276.611 103.049 278.101 67.7302 263.448C32.4111 248.795 2.53833 217.913 0.157356 186.215C-2.22359 154.517 22.9066 122.069 42.5712 91.1681C62.2357 60.2673 76.3094 30.9808 102.606 14.4639C128.902 -2.05308 167.191 -5.71391 191.983 10.2553C216.776 26.2246 228.006 61.9392 241.386 97.9613C254.765 133.983 270.42 170.294 261.262 199.83C252.105 229.367 218.106 252.263 180.888 264.409Z" fill="#00AEEF"/>
<path d="M172.74 243.019C141.693 253.173 107.874 254.412 78.4418 242.219C49.0092 230.026 24.1152 204.329 22.1311 177.953C20.147 151.576 41.0888 124.576 57.4759 98.8625C73.8631 73.1494 85.5911 48.7796 107.505 35.0356C129.419 21.2916 161.325 18.2453 181.986 31.5336C202.647 44.8219 212.005 74.5406 223.155 104.515C234.304 134.49 247.35 164.704 239.719 189.282C232.087 213.86 203.755 232.913 172.74 243.019Z" fill="white"/>
</svg>
