<svg width="56" height="56" viewBox="0 0 56 56" fill="none" xmlns="http://www.w3.org/2000/svg">
<circle cx="28" cy="28" r="28" transform="rotate(-90 28 28)" fill="#00AEEF"/>
<path d="M25.6424 37.5019C24.8613 38.2829 23.595 38.2829 22.8139 37.5019C22.0329 36.7208 22.0329 35.4545 22.8139 34.6734L39.0732 18.4142C39.8542 17.6331 41.1206 17.6331 41.9016 18.4142C42.6827 19.1952 42.6827 20.4616 41.9016 21.2426L25.6424 37.5019Z" fill="white"/>
<path d="M25.6141 34.7018C26.3952 35.4829 26.3952 36.7492 25.6141 37.5302C24.8331 38.3113 23.5667 38.3113 22.7857 37.5302L14.4142 29.1587C13.6331 28.3777 13.6331 27.1113 14.4142 26.3303C15.1952 25.5492 16.4615 25.5492 17.2426 26.3303L25.6141 34.7018Z" fill="white"/>
</svg>
