<svg id="Слой_1" data-name="Слой 1" xmlns="http://www.w3.org/2000/svg" viewBox="0 0 264 274"><defs><style>.cls-1{fill:#00aeef;}</style></defs><title>blue</title><path class="cls-1" d="M241.39,98C228,61.94,216.78,26.22,192,10.26S128.9-2,102.61,14.46s-40.37,45.81-60,76.71-44.79,63.35-42.41,95,32.25,62.58,67.57,77.24,75.9,13.16,113.16,1,71.21-35,80.37-64.58S254.77,134,241.39,98Zm-1.67,91.32c-7.63,24.58-36,43.63-67,53.74s-64.87,11.39-94.3-.8S24.12,204.33,22.13,178s19-53.37,35.35-79.09,28.11-50.08,50-63.82S161.33,18.25,182,31.53s30,43,41.17,73S247.35,164.7,239.72,189.28Z" transform="translate(0 0)"/></svg>