<svg id="Слой_1" data-name="Слой 1" xmlns="http://www.w3.org/2000/svg" viewBox="0 0 264 232"><defs><style>.cls-1{fill:#29d3b8;}</style></defs><title>green</title><path class="cls-1" d="M263.77,135.19c-2.28-35.35-20.25-68.42-45.84-94.33S159.27-3.86,130.68.68,78.09,33.14,53.49,59.05,3.54,109,.35,136.1s15.77,57.46,40.38,72.47,55,14.7,89,18.31S201.36,238,226.89,223,266,170.47,263.77,135.19Zm-52.7,69.34c-21.27,12.49-52.61,6.22-80.94,3.21S76.49,205,55.94,192.51,19.63,154.8,22.29,132.23,46,89.68,66.57,68.12s40.55-44.79,64.33-48.56S182.34,31.43,203.61,53s36.3,49.07,38.19,78.47S232.4,192.05,211.07,204.53Z" transform="translate(0 0)"/></svg>