<svg id="Слой_1" data-name="Слой 1" xmlns="http://www.w3.org/2000/svg" viewBox="0 0 264 260"><defs><style>.cls-1{fill:#eb3450;}</style></defs><title>red</title><path class="cls-1" d="M252.85,23.17C234.33-.14,189.05-1.38,145.78.7S61.32,8.12,34.55,31.5s-39,64.6-33.07,99.89,30.21,64.59,57,88,56,41,84.78,40.57,57.11-19,75.63-42.39,27.22-51.83,35.73-88.75S271.36,46.54,252.85,23.17ZM234.17,129c-7.09,30.68-14.35,54.26-29.78,73.74s-39,34.83-63,35.21S93,223.77,70.72,204.29s-42.51-43.82-47.49-73.14,5.31-63.61,27.56-83,56.63-23.86,92.69-25.59,73.8-.7,89.23,18.67S241.26,98.37,234.17,129Z" transform="translate(0 0)"/></svg>