<svg width="264" height="274" viewBox="0 0 264 274" fill="none" xmlns="http://www.w3.org/2000/svg">
<path d="M83.1118 9.59141C120.368 -2.61133 160.951 -4.10064 196.27 10.5523C231.589 25.2052 261.462 56.0867 263.843 87.785C266.224 119.483 241.093 151.931 221.429 182.832C201.764 213.733 187.691 243.019 161.394 259.536C135.098 276.053 96.8095 279.714 72.0167 263.745C47.2239 247.775 35.9939 212.061 22.6143 176.039C9.23466 140.017 -6.41988 103.706 2.73764 74.1698C11.8952 44.6335 45.8937 21.7365 83.1118 9.59141Z" fill="#F842A0"/>
<path d="M91.2598 30.9812C122.307 20.8271 156.126 19.5878 185.558 31.7807C214.991 43.9736 239.885 69.6707 241.869 96.0474C243.853 122.424 222.911 149.424 206.524 175.137C190.137 200.851 178.409 225.22 156.495 238.964C134.581 252.708 102.675 255.755 82.0139 242.466C61.3533 229.178 51.9949 199.459 40.8452 169.485C29.6956 139.51 16.6501 109.296 24.2814 84.718C31.9126 60.1402 60.2447 41.0873 91.2598 30.9812Z" fill="white"/>
</svg>
