<svg width="100" height="108" viewBox="0 0 100 108" fill="none" xmlns="http://www.w3.org/2000/svg">
<path fill-rule="evenodd" clip-rule="evenodd" d="M46.9287 69.751C43.2627 67.6663 41.9655 60.7063 44.0714 53.3399C46.1772 45.9735 50.9543 40.7606 55.1646 40.9414L46.9287 69.751ZM57.3178 41.5589C60.9886 43.6392 62.2885 50.6029 60.1815 57.9735C58.0744 65.3441 53.293 70.5588 49.081 70.3718L57.3178 41.5589ZM43.1272 69.2854C38.7328 66.3591 35.8364 61.3538 35.8364 55.6705C35.8364 46.7547 42.9648 39.5072 51.8224 39.3381C47.8139 41.2301 43.9993 46.2821 42.1264 52.8333C40.2778 59.2998 40.8054 65.5332 43.1272 69.2854ZM60.9144 41.901C65.4412 44.8035 68.4419 49.8859 68.4419 55.6705C68.4419 64.5819 61.3207 71.8266 52.4693 72.0028C56.4351 70.0686 60.1942 65.0512 62.0489 58.5634C63.9325 51.9745 63.3491 45.6278 60.9144 41.901ZM46.8518 20.4671C46.2579 21.5844 45.6439 22.7607 45.0141 23.9926C43.7342 26.496 42.5708 29.0434 41.5073 31.536C45.6632 29.2036 50.4554 27.8738 55.5575 27.8738C71.4593 27.8738 84.3503 40.7907 84.3503 56.7244C84.3503 62.0858 82.8909 67.1055 80.3483 71.4066C79.2931 73.7781 76.9198 75.4312 74.1611 75.4312C70.4216 75.4312 67.3902 72.3937 67.3902 68.6467C67.3902 67.5216 67.6635 66.4604 68.1473 65.5262C68.194 65.3306 68.274 65.1331 68.3902 64.9339C70.0111 62.1559 70.94 58.9231 70.94 55.4729C70.94 45.1051 62.552 36.7003 52.2049 36.7003C44.1348 36.7003 37.2564 41.813 34.6199 48.9822C34.1829 50.1704 29.7124 61.3762 27.61 70.9225C27.1554 72.5783 26.7592 74.0306 26.4861 75.2321C24.9128 82.1523 21.2675 101.742 21.2675 101.742C21.2675 101.742 21.2579 101.741 21.2392 101.737C20.6199 104.768 17.9431 107.048 14.7348 107.048C11.0679 107.048 8.09534 104.07 8.09534 100.396C8.09534 99.8057 8.17196 99.2337 8.31579 98.6891C8.82748 96.0471 12.2391 82.4549 13.4685 78.0105C14.8268 73.1002 16.4131 68.4684 17.2978 65.6014C19.0591 59.8938 22.3888 51.4063 23.5427 48.6753C24.6966 45.9442 25.9074 43.411 26.9161 41.1149C29.518 35.1923 32.9075 28.8502 36.1814 23.3034C33.5538 24.1079 31.2121 24.9058 29.4397 25.5849C16.8839 30.3962 6.74945 36.8455 5.53612 37.6299C5.51144 37.6464 5.48651 37.6626 5.46133 37.6784C5.43015 37.6987 5.41433 37.7091 5.41433 37.7091C5.41433 37.7091 5.41404 37.7087 5.41346 37.7079C4.94873 37.9882 4.40437 38.1494 3.82243 38.1494C2.11607 38.1494 0.732788 36.7633 0.732788 35.0535C0.732788 33.9656 1.29283 33.0088 2.13979 32.4567C2.80078 31.7844 9.43596 27.2992 12.5788 25.3935C15.8509 23.4093 19.4142 21.6069 22.0471 20.2091C28.2259 16.929 35.9267 14.0798 43.5223 11.9028C45.7288 8.81183 47.8741 5.86923 49.4972 3.82788C50.5339 2.52418 51.5679 1.26248 52.1015 0.857026C52.6351 0.451574 53.2978 0.208862 53.7826 0.208862C55.4163 0.208862 56.7408 1.53594 56.7408 3.17297C56.7408 4.81 55.81 5.44258 54.5031 7.3455C54.1689 7.83203 53.679 8.58357 53.0598 9.57966C61.5449 7.92424 70.2392 7.27496 78.0252 7.286C87.802 7.29986 93.7545 8.36092 94.4477 8.43039C97.3885 8.43039 99.7328 10.8971 99.7328 13.8437C99.7328 16.7904 97.3488 19.1791 94.4081 19.1791C93.2658 19.1791 90.7298 18.7336 89.4851 18.5435C88.2404 18.3535 85.8202 17.9645 80.5999 17.6443C77.2402 17.4383 74.0603 17.3237 70.8577 17.4342C70.1865 17.4574 66.8944 17.5964 64.5814 17.7779C62.2685 17.9594 59.9098 18.2542 58.5905 18.4104C55.6523 18.7583 52.6463 19.3193 50.1192 19.7941C49.0506 19.9949 47.9562 20.2213 46.8518 20.4671ZM39.2901 18.099C36.7907 18.8978 34.0391 19.8548 31.0474 20.9999C16.3316 26.6325 5.06011 34.5377 3.82191 35.4214C3.66472 35.5303 3.49374 35.6889 3.49374 35.9098C3.49374 36.2009 3.7292 36.4368 4.01964 36.4368C4.1652 36.4368 4.28941 36.3654 4.39217 36.2818C5.32893 35.646 18.0006 27.6045 30.3956 23.3334C32.7846 22.5103 35.0687 21.7243 37.5307 20.9999L39.2901 18.099ZM47.9622 18.4003C49.9376 17.9465 51.8904 17.5478 53.7695 17.2335C57.008 16.6918 59.5699 16.4638 61.8376 16.2614C64.1054 16.059 67.6495 15.8416 71.5951 15.8094C74.7949 15.7833 79.1908 15.8424 83.1919 16.1403C87.193 16.4381 91.6726 17.0835 93.0395 17.2737C93.2426 17.3051 93.3785 17.3348 93.5535 17.3348C94.4248 17.3348 95.1312 16.627 95.1312 15.7539C95.1312 14.947 94.5278 14.2813 93.7485 14.185C91.1318 13.4651 82.548 12.7801 74.8296 12.7538C65.5903 12.7224 57.5161 14.0403 56.5435 14.1731C55.5709 14.3059 53.8365 14.5681 49.7299 15.3113L47.9622 18.4003Z" fill="#C0C3CE"/>
<path fill-rule="evenodd" clip-rule="evenodd" d="M31.9876 80.315L31.7674 81.4406H33.2476C33.929 81.4468 34.4224 81.6127 34.7279 81.9382C35.0333 82.2638 35.1861 82.7336 35.1861 83.3475C35.1861 83.9676 34.9482 84.4917 34.4724 84.9196C33.9966 85.3475 33.3181 85.5614 32.437 85.5614H29.4853L30.7893 79.0499H35.5914L35.3358 80.315H31.9876ZM31.5118 82.7057L31.1946 84.2963H32.6044C32.9275 84.2963 33.1815 84.2095 33.3666 84.0359C33.5516 83.8622 33.6441 83.67 33.6441 83.4591C33.6382 83.2297 33.5663 83.0467 33.4282 82.9103C33.2902 82.7739 33.0567 82.7057 32.7278 82.7057H31.5118ZM37.9615 81.608H40.9749L40.737 82.8731H37.706L37.4241 84.2963H40.9221L40.6753 85.5614H35.7147L37.0188 79.0499H41.9001L41.6534 80.315H38.2171L37.9615 81.608ZM40.9485 85.5614L41.2128 84.2963C41.2598 84.3025 41.3024 84.3072 41.3406 84.3103C41.3788 84.3134 41.4184 84.3149 41.4595 84.3149C41.906 84.3149 42.2525 84.1351 42.4992 83.7754C42.7459 83.4157 42.9398 82.8762 43.0808 82.1568L43.6887 79.0499H48.2969L46.9929 85.5614H45.5391L46.5876 80.315H44.8254L44.3584 82.5847C44.141 83.6266 43.7842 84.3893 43.2878 84.873C42.7915 85.3567 42.1556 85.5986 41.3802 85.5986C41.3215 85.5986 41.2569 85.5955 41.1864 85.5893C41.1159 85.5831 41.0366 85.5738 40.9485 85.5614ZM50.6583 80.315H48.7991L49.0547 79.0499H54.2268L53.9712 80.315H52.1121L51.0636 85.5614H49.6098L50.6583 80.315ZM55.8832 81.608H58.8966L58.6587 82.8731H55.6277L55.3458 84.2963H58.8438L58.5971 85.5614H53.6364L54.9405 79.0499H59.8218L59.5751 80.315H56.1388L55.8832 81.608ZM58.8702 85.5614L59.1345 84.2963C59.1815 84.3025 59.2241 84.3072 59.2623 84.3103C59.3005 84.3134 59.3401 84.3149 59.3812 84.3149C59.8277 84.3149 60.1742 84.1351 60.4209 83.7754C60.6677 83.4157 60.8615 82.8762 61.0025 82.1568L61.6104 79.0499H66.2186L64.9146 85.5614H63.4608L64.5093 80.315H62.7471L62.2801 82.5847C62.0627 83.6266 61.7059 84.3893 61.2095 84.873C60.7132 85.3567 60.0773 85.5986 59.3019 85.5986C59.2432 85.5986 59.1786 85.5955 59.1081 85.5893C59.0376 85.5831 58.9583 85.5738 58.8702 85.5614ZM68.4478 81.608H71.4612L71.2233 82.8731H68.1923L67.9104 84.2963H71.4084L71.1616 85.5614H66.201L67.505 79.0499H72.3864L72.1397 80.315H68.7034L68.4478 81.608ZM74.1838 81.822L76.7038 79.0499H78.466L75.4879 82.1754L77.3206 85.5614H75.6289L74.0517 82.3429L73.4261 85.5614H71.9723L73.2763 79.0499H74.7301L74.1574 81.822H74.1838ZM80.9155 85.7474C80.0344 85.7474 79.3559 85.5087 78.8801 85.0312C78.4043 84.5537 78.1664 83.8963 78.1664 83.0591C78.1664 81.9243 78.5042 80.9414 79.1797 80.1104C79.8552 79.2794 80.7569 78.8639 81.8847 78.8639C82.7365 78.8639 83.4002 79.1011 83.876 79.5755C84.3518 80.0499 84.5897 80.7088 84.5897 81.5522C84.5838 82.7057 84.2505 83.6932 83.5896 84.5149C82.9288 85.3366 82.0374 85.7474 80.9155 85.7474ZM81.03 84.4824C81.6409 84.4886 82.1255 84.2203 82.4839 83.6777C82.8422 83.1351 83.0213 82.4979 83.0213 81.7661C83.0213 81.1956 82.9068 80.7801 82.6777 80.5197C82.4486 80.2592 82.1285 80.129 81.7173 80.129C81.1005 80.129 80.6159 80.3987 80.2635 80.9383C79.911 81.4778 79.7348 82.1134 79.7348 82.8452C79.7289 83.4033 79.8405 83.8157 80.0696 84.0824C80.2987 84.349 80.6189 84.4824 81.03 84.4824ZM87.8322 85.5614L87.2506 80.8359L86.3167 85.5614H84.8629L86.1669 79.0499H88.2727L88.8102 83.5242L91.0306 79.0499H93.1981L91.8941 85.5614H90.4403L91.4095 80.8359H91.383L89.0217 85.5614H87.8322Z" fill="#C0C3CE"/>
</svg>
