<svg width="550" height="550" viewBox="0 0 550 550" fill="none" xmlns="http://www.w3.org/2000/svg">
<path d="M332.9 46.96L317.65 32.65" stroke="#0FAEE9" stroke-width="5" stroke-linecap="round" stroke-linejoin="round"/>
<path d="M318.12 47.43L332.42 32.18" stroke="#0FAEE9" stroke-width="5" stroke-linecap="round" stroke-linejoin="round"/>
<path d="M60.5698 356.83L45.3198 342.5" stroke="#0FAEE9" stroke-width="5" stroke-linecap="round" stroke-linejoin="round"/>
<path d="M45.79 357.31L60.1 342.06" stroke="#0FAEE9" stroke-width="5" stroke-linecap="round" stroke-linejoin="round"/>
<path d="M443.5 316.5L433 298.33L422.5 316.5L412.02 334.67H433.02H454.02L443.5 316.5Z" stroke="#0FAEE9" stroke-width="5" stroke-linecap="round" stroke-linejoin="round"/>
<path d="M156.42 48.33L161.84 28.06L141.59 33.5L121.32 38.94L136.17 53.76L151.01 68.6L156.42 48.33Z" stroke="#0FAEE9" stroke-width="5" stroke-linecap="round" stroke-linejoin="round"/>
<path d="M498.75 72.06L504.17 51.79L483.92 57.24L463.65 62.68L478.5 77.5L493.34 92.33L498.75 72.06Z" stroke="#0FAEE9" stroke-width="5" stroke-linecap="round" stroke-linejoin="round"/>
<path d="M265.7 439.15L271.12 418.88L250.86 424.33L230.6 429.77L245.44 444.59L260.28 459.42L265.7 439.15Z" stroke="#0FAEE9" stroke-width="5" stroke-linecap="round" stroke-linejoin="round"/>
<path d="M323.56 203.09L341.73 192.59L323.55 182.12L305.38 171.64V192.64V213.64L323.56 203.09Z" stroke="#0FAEE9" stroke-width="5" stroke-linecap="round" stroke-linejoin="round"/>
<path d="M62.18 104.65C62.1756 108.581 60.7096 112.37 58.0671 115.28C55.4245 118.19 51.7943 120.014 47.882 120.397C43.9696 120.779 40.0548 119.694 36.8985 117.351C33.7421 115.007 31.5698 111.574 30.8037 107.719C30.0377 103.863 30.7326 99.8605 32.7535 96.4888C34.7744 93.117 37.9768 90.6172 41.7383 89.4752C45.4997 88.3332 49.5514 88.6306 53.1057 90.3096C56.6601 91.9886 59.4632 94.9293 60.97 98.56C61.7689 100.491 62.18 102.56 62.18 104.65V104.65Z" stroke="#0FAEE9" stroke-width="5" stroke-linecap="round" stroke-linejoin="round"/>
<path d="M414.19 445.66C414.188 449.604 412.719 453.407 410.069 456.328C407.419 459.25 403.777 461.081 399.852 461.466C395.927 461.851 391.998 460.763 388.831 458.412C385.663 456.062 383.483 452.617 382.715 448.749C381.946 444.88 382.644 440.864 384.672 437.481C386.7 434.098 389.914 431.591 393.689 430.446C397.463 429.301 401.528 429.601 405.094 431.288C408.66 432.974 411.471 435.926 412.98 439.57C413.777 441.502 414.188 443.571 414.19 445.66Z" stroke="#0FAEE9" stroke-width="5" stroke-linecap="round" stroke-linejoin="round"/>
<path d="M213.32 205.21C213.32 209.168 211.849 212.984 209.191 215.916C206.533 218.849 202.88 220.687 198.942 221.075C195.003 221.463 191.061 220.372 187.883 218.014C184.704 215.656 182.517 212.2 181.746 208.318C180.974 204.437 181.675 200.407 183.71 197.013C185.746 193.619 188.971 191.104 192.759 189.956C196.546 188.809 200.625 189.112 204.202 190.805C207.779 192.499 210.598 195.463 212.11 199.12C212.91 201.051 213.321 203.12 213.32 205.21V205.21Z" stroke="#0FAEE9" stroke-width="5" stroke-linecap="round" stroke-linejoin="round"/>
<path d="M52.3998 504.57C52.3037 500.826 53.5306 497.168 55.8648 494.239C58.1991 491.311 61.4911 489.298 65.1621 488.557C68.8331 487.815 72.6481 488.392 75.9362 490.185C79.2242 491.978 81.7749 494.872 83.1398 498.36C83.9101 500.338 84.2806 502.448 84.2298 504.57" stroke="#0FAEE9" stroke-width="5" stroke-linecap="round" stroke-linejoin="round"/>
<path d="M490.22 202.62C486.019 202.62 481.99 200.951 479.019 197.981C476.049 195.01 474.38 190.981 474.38 186.78C474.38 182.579 476.049 178.55 479.019 175.579C481.99 172.609 486.019 170.94 490.22 170.94" stroke="#0FAEE9" stroke-width="5" stroke-linecap="round" stroke-linejoin="round"/>
<path d="M81.9698 237.06H50.3198V268.71H81.9698V237.06Z" stroke="#0FAEE9" stroke-width="5" stroke-linecap="round" stroke-linejoin="round"/>
<path d="M209.86 119.31C202.95 119.31 204.14 107.06 195.32 107.06" stroke="#0FAEE9" stroke-width="5" stroke-linecap="round" stroke-linejoin="round"/>
<path d="M238.93 119.31C232.02 119.31 233.21 107.06 224.39 107.06" stroke="#0FAEE9" stroke-width="5" stroke-linecap="round" stroke-linejoin="round"/>
<path d="M209.86 119.31C216.77 119.31 215.58 107.06 224.39 107.06" stroke="#0FAEE9" stroke-width="5" stroke-linecap="round" stroke-linejoin="round"/>
<path d="M238.93 119.31C245.84 119.31 244.65 107.06 253.47 107.06" stroke="#0FAEE9" stroke-width="5" stroke-linecap="round" stroke-linejoin="round"/>
<path d="M350.01 513.1C350.01 520.01 337.76 518.81 337.76 527.63" stroke="#0FAEE9" stroke-width="5" stroke-linecap="round" stroke-linejoin="round"/>
<path d="M350.01 513.1C350.01 506.19 337.76 507.38 337.76 498.56" stroke="#0FAEE9" stroke-width="5" stroke-linecap="round" stroke-linejoin="round"/>
<path d="M512.87 461.24C512.87 468.15 500.62 466.96 500.62 475.78" stroke="#0FAEE9" stroke-width="5" stroke-linecap="round" stroke-linejoin="round"/>
<path d="M512.87 432.17C512.87 439.08 500.62 437.89 500.62 446.7" stroke="#0FAEE9" stroke-width="5" stroke-linecap="round" stroke-linejoin="round"/>
<path d="M512.87 461.24C512.87 454.33 500.62 455.52 500.62 446.7" stroke="#0FAEE9" stroke-width="5" stroke-linecap="round" stroke-linejoin="round"/>
<path d="M512.87 432.17C512.87 425.26 500.62 426.45 500.62 417.63" stroke="#0FAEE9" stroke-width="5" stroke-linecap="round" stroke-linejoin="round"/>
<path d="M185.25 348.01C185.25 354.92 172.99 353.73 172.99 362.55" stroke="#0FAEE9" stroke-width="5" stroke-linecap="round" stroke-linejoin="round"/>
<path d="M185.25 318.94C185.25 325.85 172.99 324.65 172.99 333.47" stroke="#0FAEE9" stroke-width="5" stroke-linecap="round" stroke-linejoin="round"/>
<path d="M185.25 348.01C185.25 341.1 172.99 342.29 172.99 333.47" stroke="#0FAEE9" stroke-width="5" stroke-linecap="round" stroke-linejoin="round"/>
<path d="M185.25 318.94C185.25 312.03 172.99 313.22 172.99 304.4" stroke="#0FAEE9" stroke-width="5" stroke-linecap="round" stroke-linejoin="round"/>
<path d="M400.5 134.5C400.5 141.41 388.25 140.22 388.25 149.03" stroke="#0FAEE9" stroke-width="5" stroke-linecap="round" stroke-linejoin="round"/>
<path d="M400.5 105.43C400.5 112.34 388.25 111.14 388.25 119.96" stroke="#0FAEE9" stroke-width="5" stroke-linecap="round" stroke-linejoin="round"/>
<path d="M400.5 134.5C400.5 127.59 388.25 128.78 388.25 119.96" stroke="#0FAEE9" stroke-width="5" stroke-linecap="round" stroke-linejoin="round"/>
<path d="M400.5 105.43C400.5 98.52 388.25 99.71 388.25 90.89" stroke="#0FAEE9" stroke-width="5" stroke-linecap="round" stroke-linejoin="round"/>
<path d="M322.15 381.86H358.02" stroke="#0FAEE9" stroke-width="5" stroke-linecap="round" stroke-linejoin="round"/>
<path d="M100.96 168.7L126.32 143.34" stroke="#0FAEE9" stroke-width="5" stroke-linecap="round" stroke-linejoin="round"/>
<path d="M381.11 263.39C380.061 264.05 378.839 264.381 377.6 264.34C376.673 264.309 375.765 264.073 374.939 263.65C374.114 263.226 373.393 262.625 372.827 261.891C372.262 261.156 371.865 260.305 371.667 259.399C371.469 258.493 371.473 257.554 371.68 256.65C371.969 255.446 372.601 254.352 373.5 253.5C374.175 252.864 374.983 252.386 375.865 252.1C376.747 251.814 377.682 251.728 378.601 251.848C379.521 251.967 380.402 252.29 381.182 252.792C381.962 253.294 382.62 253.963 383.11 254.75C383.548 255.447 383.844 256.224 383.979 257.036C384.115 257.848 384.088 258.679 383.9 259.48C383.717 260.282 383.377 261.04 382.9 261.71C382.418 262.381 381.81 262.951 381.11 263.39V263.39Z" stroke="#0FAEE9" stroke-width="5" stroke-linecap="round" stroke-linejoin="round"/>
<path d="M189.96 506.7C188.91 507.359 187.688 507.689 186.45 507.65C185.523 507.622 184.614 507.389 183.788 506.967C182.962 506.545 182.24 505.945 181.675 505.21C181.109 504.476 180.714 503.624 180.518 502.718C180.322 501.812 180.329 500.873 180.54 499.97C180.819 498.763 181.449 497.665 182.352 496.816C183.254 495.967 184.387 495.405 185.609 495.199C186.831 494.994 188.086 495.155 189.216 495.662C190.347 496.17 191.301 497 191.96 498.05C192.399 498.748 192.695 499.527 192.83 500.341C192.966 501.154 192.938 501.987 192.75 502.79C192.571 503.596 192.231 504.358 191.75 505.03C191.27 505.7 190.662 506.268 189.96 506.7V506.7Z" stroke="#0FAEE9" stroke-width="5" stroke-linecap="round" stroke-linejoin="round"/>
<path d="M284.5 288.63H252.84V320.28H284.5V288.63Z" stroke="#0FAEE9" stroke-width="5" stroke-linecap="round" stroke-linejoin="round"/>
<path d="M125.19 416.66C125.188 420.604 123.719 424.407 121.069 427.328C118.419 430.25 114.777 432.081 110.852 432.466C106.927 432.851 102.998 431.763 99.8308 429.412C96.6635 427.062 94.4835 423.617 93.7148 419.749C92.9462 415.88 93.6438 411.864 95.6721 408.481C97.7003 405.098 100.914 402.591 104.689 401.446C108.463 400.301 112.528 400.601 116.094 402.288C119.66 403.974 122.471 406.926 123.98 410.57C124.777 412.502 125.188 414.571 125.19 416.66Z" stroke="#0FAEE9" stroke-width="5" stroke-linecap="round" stroke-linejoin="round"/>
</svg>
