<svg width="1440" height="15" viewBox="0 0 1440 15" fill="none" xmlns="http://www.w3.org/2000/svg">
<path d="M4.99988 14.9998L-8 0.000972748L17.9999 0.000972748L4.99988 14.9998Z" fill="#F2F2F2"/>
<path d="M30.9999 14.9998L17.9999 0.000972748L43.9999 0.000977516L30.9999 14.9998Z" fill="#F2F2F2"/>
<path d="M57 14.9999L43.9999 0.000977516L69.9999 0.00101948L57 14.9999Z" fill="#F2F2F2"/>
<path d="M82.9999 14.9999L69.9999 0.00101948L95.9998 0.00102425L82.9999 14.9999Z" fill="#F2F2F2"/>
<path d="M109 15L95.9998 0.00102425L122 0.00113392L109 15Z" fill="#F2F2F2"/>
<path d="M135 15L122 0.00113392L148 0.00108719L135 15Z" fill="#F2F2F2"/>
<path d="M161 14.9999L148 0.00108719L174 0.00104046L161 14.9999Z" fill="#F2F2F2"/>
<path d="M186.999 14.9999L174 0.00104046L199.999 0.000993729L186.999 14.9999Z" fill="#F2F2F2"/>
<path d="M213 14.9998L199.999 0.000993729L226 0.000905037L213 14.9998Z" fill="#F2F2F2"/>
<path d="M239 14.9997L226 0.000905037L252 0.000868797L239 14.9997Z" fill="#F2F2F2"/>
<path d="M265 14.9997L252 0.000868797L278 0.000873566L265 14.9997Z" fill="#F2F2F2"/>
<path d="M291 14.9998L278 0.000873566L304 0.000915527L291 14.9998Z" fill="#F2F2F2"/>
<path d="M317 14.9998L304 0.000915527L330 0.000920296L317 14.9998Z" fill="#F2F2F2"/>
<path d="M343 14.9999L330 0.000920296L356 0.00102997L343 14.9999Z" fill="#F2F2F2"/>
<path d="M369 14.9998L356 0.00102997L382 0.000983238L369 14.9998Z" fill="#F2F2F2"/>
<path d="M395 14.9998L382 0.000983238L408 0.000936508L395 14.9998Z" fill="#F2F2F2"/>
<path d="M421 14.9998L408 0.000936508L434 0.000889778L421 14.9998Z" fill="#F2F2F2"/>
<path d="M446.999 14.9997L434 0.000889778L459.999 0.000801086L446.999 14.9997Z" fill="#F2F2F2"/>
<path d="M473 14.9996L459.999 0.000801086L486 0.000701904L473 14.9996Z" fill="#F2F2F2"/>
<path d="M499 14.9996L486 0.000701904L512 0.000707626L499 14.9996Z" fill="#F2F2F2"/>
<path d="M525 14.9996L512 0.000707626L538 0.000748634L525 14.9996Z" fill="#F2F2F2"/>
<path d="M551 14.9996L538 0.000748634L564 0.000754356L551 14.9996Z" fill="#F2F2F2"/>
<path d="M577 14.9997L564 0.000754356L590 0.000863075L577 14.9997Z" fill="#F2F2F2"/>
<path d="M603 14.9997L590 0.000863075L616 0.000816345L603 14.9997Z" fill="#F2F2F2"/>
<path d="M629 14.9996L616 0.000816345L642 0.000769615L629 14.9996Z" fill="#F2F2F2"/>
<path d="M655 14.9996L642 0.000769615L668 0.000722885L655 14.9996Z" fill="#F2F2F2"/>
<path d="M680.999 14.9995L668 0.000722885L693.999 0.000634193L680.999 14.9995Z" fill="#F2F2F2"/>
<path d="M707 14.9995L693.999 0.000634193L720 0.000618935L707 14.9995Z" fill="#F2F2F2"/>
<path d="M733 14.9995L720 0.000618935L746 0.000623703L733 14.9995Z" fill="#F2F2F2"/>
<path d="M759 14.9995L746 0.000623703L772 0.000665665L759 14.9995Z" fill="#F2F2F2"/>
<path d="M785 14.9995L772 0.000665665L798 0.000671387L785 14.9995Z" fill="#F2F2F2"/>
<path d="M811 14.9996L798 0.000671387L824 0.000780106L811 14.9996Z" fill="#F2F2F2"/>
<path d="M837 14.9996L824 0.000780106L850 0.000733376L837 14.9996Z" fill="#F2F2F2"/>
<path d="M863 14.9996L850 0.000733376L876 0.000686646L863 14.9996Z" fill="#F2F2F2"/>
<path d="M889 14.9995L876 0.000686646L902 0.000639915L889 14.9995Z" fill="#F2F2F2"/>
<path d="M914.999 14.9994L902 0.000639915L927.999 0.000551224L914.999 14.9994Z" fill="#F2F2F2"/>
<path d="M941 14.9995L927.999 0.000551224L954 0.000618935L941 14.9995Z" fill="#F2F2F2"/>
<path d="M967 14.9995L954 0.000618935L980 0.000623703L967 14.9995Z" fill="#F2F2F2"/>
<path d="M993 14.9995L980 0.000623703L1006 0.000665665L993 14.9995Z" fill="#F2F2F2"/>
<path d="M1019 14.9995L1006 0.000665665L1032 0.000671387L1019 14.9995Z" fill="#F2F2F2"/>
<path d="M1045 14.9996L1032 0.000671387L1058 0.000780106L1045 14.9996Z" fill="#F2F2F2"/>
<path d="M1071 14.9996L1058 0.000780106L1084 0.000733376L1071 14.9996Z" fill="#F2F2F2"/>
<path d="M1097 14.9996L1084 0.000733376L1110 0.000686646L1097 14.9996Z" fill="#F2F2F2"/>
<path d="M1123 14.9995L1110 0.000686646L1136 0.000639915L1123 14.9995Z" fill="#F2F2F2"/>
<path d="M1149 14.9994L1136 0.000639915L1162 0.000551224L1149 14.9994Z" fill="#F2F2F2"/>
<path d="M1175 14.9992L1162 0.000551224L1188 0.000369072L1175 14.9992Z" fill="#F2F2F2"/>
<path d="M1201 14.9992L1188 0.000369072L1214 0.000374794L1201 14.9992Z" fill="#F2F2F2"/>
<path d="M1227 14.9993L1214 0.000374794L1240 0.000415802L1227 14.9993Z" fill="#F2F2F2"/>
<path d="M1253 14.9993L1240 0.000415802L1266 0.000421524L1253 14.9993Z" fill="#F2F2F2"/>
<path d="M1279 14.9994L1266 0.000421524L1292 0.000530243L1279 14.9994Z" fill="#F2F2F2"/>
<path d="M1305 14.9993L1292 0.000530243L1318 0.000483513L1305 14.9993Z" fill="#F2F2F2"/>
<path d="M1331 14.9993L1318 0.000483513L1344 0.000436783L1331 14.9993Z" fill="#F2F2F2"/>
<path d="M1357 14.9993L1344 0.000436783L1370 0.000390053L1357 14.9993Z" fill="#F2F2F2"/>
<path d="M1383 14.9992L1370 0.000390053L1396 0.000301361L1383 14.9992Z" fill="#F2F2F2"/>
<path d="M1409 14.999L1396 0.000301361L1422 0.000171661L1409 14.999Z" fill="#F2F2F2"/>
<path d="M1435 14.9989L1422 0.000171661L1448 0L1435 14.9989Z" fill="#F2F2F2"/>
</svg>
