<svg width="43" height="40" viewBox="0 0 43 40" fill="none" xmlns="http://www.w3.org/2000/svg">
<path d="M18.6554 1.71653C19.8189 -0.572177 23.1811 -0.572177 24.3446 1.71653L28.531 9.95073C28.9931 10.8595 29.8863 11.4895 30.9195 11.6352L40.2804 12.9557C42.8824 13.3226 43.9213 16.4265 42.0386 18.2081L35.2649 24.6174C34.5173 25.3248 34.1761 26.3441 34.3525 27.343L35.9516 36.3932C36.3961 38.9088 33.6761 40.8271 31.3489 39.6395L22.9761 35.3665C22.0521 34.8949 20.9479 34.8949 20.0239 35.3665L11.6511 39.6395C9.32388 40.8271 6.60393 38.9088 7.04839 36.3932L8.64744 27.343C8.82394 26.3441 8.48277 25.3248 7.73512 24.6174L0.96144 18.2081C-0.921323 16.4265 0.1176 13.3226 2.71952 12.9557L12.0805 11.6352C13.1137 11.4895 14.0069 10.8595 14.469 9.95073L18.6554 1.71653Z" fill="#FFC005"/>
</svg>
