<svg width="60" height="60" viewBox="0 0 60 60" fill="none" xmlns="http://www.w3.org/2000/svg">
<circle cx="30" cy="30" r="30" fill="#4DC6F4"/>
<circle cx="30" cy="30" r="25" fill="#00AEEF"/>
<path d="M29.2929 22.7071C29.6834 22.3166 30.3166 22.3166 30.7071 22.7071L33 25L22.5 35.5C21.6716 36.3284 20.3284 36.3284 19.5 35.5C18.6716 34.6716 18.6716 33.3284 19.5 32.5L29.2929 22.7071Z" fill="white"/>
<path d="M27 25L29.2929 22.7071C29.6834 22.3166 30.3166 22.3166 30.7071 22.7071L40.5 32.5C41.3284 33.3284 41.3284 34.6716 40.5 35.5C39.6716 36.3284 38.3284 36.3284 37.5 35.5L27 25Z" fill="white"/>
</svg>
