<svg width="264" height="232" viewBox="0 0 264 232" fill="none" xmlns="http://www.w3.org/2000/svg">
<path d="M217.93 40.8576C243.517 66.7674 261.495 99.8438 263.766 135.186C265.975 170.468 252.476 208.016 226.889 223.023C201.364 238.029 163.75 230.495 129.757 226.882C95.7645 223.268 65.3918 223.574 40.7254 208.567C16.1204 193.56 -2.83955 163.24 0.351128 136.105C3.5418 108.97 28.8217 84.9594 53.4881 59.0496C78.0931 33.1398 102.146 5.20864 130.678 0.675948C159.271 -3.85674 192.405 14.9478 217.93 40.8576Z" fill="#29D3B8"/>
<path d="M203.609 52.9893C224.931 74.5436 239.913 102.06 241.805 131.461C243.646 160.812 232.396 192.048 211.074 204.532C189.803 217.016 158.459 210.748 130.131 207.742C101.804 204.736 76.4931 204.99 55.9378 192.506C35.4337 180.022 19.6337 154.799 22.2926 132.226C24.9515 109.652 46.0181 89.6775 66.5734 68.1232C87.0776 46.5689 107.122 23.333 130.898 19.5623C154.726 15.7916 182.338 31.435 203.609 52.9893Z" fill="white"/>
</svg>
