<svg width="34" height="34" viewBox="0 0 34 34" fill="none" xmlns="http://www.w3.org/2000/svg">
<path fill-rule="evenodd" clip-rule="evenodd" d="M17 34C26.3888 34 34 26.3888 34 17C34 7.61116 26.3888 0 17 0C7.61116 0 0 7.61116 0 17C0 26.3888 7.61116 34 17 34ZM17.3681 7.01415C21.8446 7.03368 23.8524 8.49072 24.3485 8.94775C25.997 10.3813 26.911 13.5532 26.2938 18.5767C25.7534 23.007 22.6658 23.793 21.6269 24.0575C21.5244 24.0836 21.4419 24.1046 21.3837 24.1235C21.1024 24.2134 18.6376 24.8306 15.4267 24.561C15.0712 24.9712 14.6024 25.5102 14.2626 25.8774C14.1597 25.9881 14.0633 26.0975 13.9712 26.2021C13.5073 26.7286 13.1512 27.1328 12.6102 26.9634C12.0712 26.7993 12.1024 25.9829 12.1024 25.9829L12.1063 23.9673H12.1024C7.41103 22.647 7.47744 17.7798 7.53212 15.1821C7.58681 12.5845 8.09072 10.4868 9.52041 9.05712C12.0907 6.69775 17.3681 7.01415 17.3681 7.01415ZM21.0985 22.647C21.9821 22.4408 24.4377 21.8677 24.8915 18.2095C25.411 14.0181 24.7001 11.1587 23.3056 9.96337C22.8837 9.58056 21.0712 8.43993 17.286 8.42431C17.286 8.42431 12.8056 8.13134 10.6298 10.104C9.41884 11.2993 9.00869 13.0767 8.96572 15.2446C8.96424 15.3192 8.96254 15.3961 8.96078 15.4752C8.91161 17.6941 8.82516 21.595 12.6649 22.6587C12.6649 22.6587 12.6493 25.7368 12.6493 26.0063C12.6454 26.4165 12.872 26.436 13.079 26.229C13.7118 25.5923 15.7431 23.1431 15.7431 23.1431C18.4657 23.3188 20.6337 22.7798 20.8681 22.7056C20.9225 22.6881 21.0009 22.6698 21.0985 22.647ZM18.9579 15.0767C18.9735 15.4126 19.4774 15.3892 19.4618 15.0532C19.4071 13.9321 18.8017 13.3071 17.7118 13.2485C17.3798 13.229 17.3485 13.7329 17.6845 13.7524C18.5126 13.7993 18.9149 14.2173 18.9579 15.0767ZM17.2938 12.397C19.2587 12.5415 20.2938 13.8384 20.2548 15.4946C20.247 15.8267 20.7548 15.8423 20.7587 15.5063C20.8017 13.6157 19.5946 12.0571 17.329 11.8931C16.997 11.8696 16.9618 12.3735 17.2938 12.397ZM21.5868 16.022C21.5868 16.3579 22.0946 16.354 22.0907 16.0181C22.0634 12.5884 19.747 10.6001 16.8681 10.5806C16.536 10.5806 16.536 11.0806 16.8681 11.0845C19.4423 11.104 21.5634 12.8384 21.5868 16.022ZM21.6493 19.8579V19.8501C21.8368 19.4907 21.7743 19.1509 21.5009 18.9282C21.0165 18.4712 20.286 17.9673 19.7118 17.6431C19.286 17.4048 18.8524 17.5532 18.6728 17.7876L18.2978 18.2563C18.1063 18.4946 17.7509 18.4634 17.7509 18.4634C15.1532 17.7993 14.4579 15.1704 14.4579 15.1704C14.4579 15.1704 14.4267 14.8149 14.6649 14.6235L15.1337 14.2485C15.3681 14.0688 15.5165 13.6352 15.2782 13.2095C15.1415 12.9712 14.8798 12.5454 14.6845 12.2798C14.4774 11.9946 13.9931 11.4165 13.9931 11.4165C13.7626 11.1392 13.4188 11.0767 13.0595 11.2642H13.0517C12.3056 11.686 11.4892 12.4751 11.7509 13.2876C11.7509 13.2876 11.9345 13.9595 12.7665 15.4634C13.161 16.1821 13.5673 16.7798 13.9696 17.2837C14.4149 17.8501 14.9931 18.4399 15.6259 18.9399C16.8524 19.9165 18.7938 20.9165 19.6181 21.147L19.6259 21.1587C20.4384 21.4204 21.2274 20.6001 21.6493 19.8579Z" fill="white"/>
</svg>
