<svg width="416" height="222" viewBox="0 0 416 222" fill="none" xmlns="http://www.w3.org/2000/svg">
<circle cx="179" cy="90" r="40" fill="white"/>
<circle cx="239" cy="90" r="40" fill="white"/>
<circle cx="209" cy="40" r="40" fill="white"/>
<circle opacity="0.7" cx="179" cy="90" r="40" fill="#2FBFC3"/>
<circle opacity="0.7" cx="239" cy="90" r="40" fill="#5DB9E0"/>
<circle opacity="0.7" cx="209" cy="40" r="40" fill="#B2D66E"/>
<path d="M0.512634 221V179H17.6726C22.6326 179 26.5526 180.34 29.4326 183.02C32.3126 185.7 33.7526 189.24 33.7526 193.64C33.7526 198.32 32.1526 201.96 28.9526 204.56C25.7526 207.12 21.6926 208.4 16.7726 208.4H9.75263V221H0.512634ZM9.75263 200.18H17.0726C19.3526 200.18 21.1326 199.58 22.4126 198.38C23.7326 197.18 24.3926 195.62 24.3926 193.7C24.3926 191.66 23.7326 190.1 22.4126 189.02C21.0926 187.9 19.2526 187.34 16.8926 187.34H9.75263V200.18Z" fill="#5DB9E0"/>
<path d="M76.9508 215.42C72.7108 219.62 67.3908 221.72 60.9908 221.72C54.5908 221.72 49.2708 219.62 45.0308 215.42C40.8308 211.22 38.7308 206.08 38.7308 200C38.7308 193.96 40.8508 188.84 45.0908 184.64C49.3708 180.4 54.7108 178.28 61.1108 178.28C67.5108 178.28 72.8108 180.38 77.0108 184.58C81.2508 188.78 83.3708 193.92 83.3708 200C83.3708 206.04 81.2308 211.18 76.9508 215.42ZM51.9908 209.36C54.3908 211.92 57.4308 213.2 61.1108 213.2C64.7908 213.2 67.8108 211.94 70.1708 209.42C72.5308 206.86 73.7108 203.72 73.7108 200C73.7108 196.32 72.5108 193.2 70.1108 190.64C67.7108 188.08 64.6708 186.8 60.9908 186.8C57.3108 186.8 54.2908 188.08 51.9308 190.64C49.5708 193.16 48.3908 196.28 48.3908 200C48.3908 203.68 49.5908 206.8 51.9908 209.36Z" fill="#5DB9E0"/>
<path d="M91.5673 221V179H101.527L112.567 196.76L123.607 179H133.567V221H124.387V193.58L112.567 211.52H112.327L100.627 193.76V221H91.5673Z" fill="#5DB9E0"/>
<path d="M180.017 215.42C175.777 219.62 170.457 221.72 164.057 221.72C157.657 221.72 152.337 219.62 148.097 215.42C143.897 211.22 141.797 206.08 141.797 200C141.797 193.96 143.917 188.84 148.157 184.64C152.437 180.4 157.777 178.28 164.177 178.28C170.577 178.28 175.877 180.38 180.077 184.58C184.317 188.78 186.437 193.92 186.437 200C186.437 206.04 184.297 211.18 180.017 215.42ZM155.057 209.36C157.457 211.92 160.497 213.2 164.177 213.2C167.857 213.2 170.877 211.94 173.237 209.42C175.597 206.86 176.777 203.72 176.777 200C176.777 196.32 175.577 193.2 173.177 190.64C170.777 188.08 167.737 186.8 164.057 186.8C160.377 186.8 157.357 188.08 154.997 190.64C152.637 193.16 151.457 196.28 151.457 200C151.457 203.68 152.657 206.8 155.057 209.36Z" fill="#5DB9E0"/>
<path d="M214.854 221.72C208.334 221.72 203.014 219.68 198.894 215.6C194.814 211.52 192.774 206.32 192.774 200C192.774 193.96 194.874 188.84 199.074 184.64C203.274 180.4 208.514 178.28 214.794 178.28C218.434 178.28 221.514 178.76 224.034 179.72C226.554 180.64 228.974 182.08 231.294 184.04L225.474 191.06C223.714 189.58 222.014 188.5 220.374 187.82C218.734 187.14 216.774 186.8 214.494 186.8C211.134 186.8 208.274 188.1 205.914 190.7C203.594 193.26 202.434 196.36 202.434 200C202.434 203.84 203.614 207.02 205.974 209.54C208.374 212.06 211.434 213.32 215.154 213.32C218.594 213.32 221.494 212.48 223.854 210.8V204.8H214.554V196.82H232.794V215.06C227.554 219.5 221.574 221.72 214.854 221.72Z" fill="#5DB9E0"/>
<path d="M259.204 221.66C253.484 221.66 249.025 220.08 245.825 216.92C242.625 213.72 241.025 209.08 241.025 203V179H250.265V202.76C250.265 206.12 251.045 208.7 252.605 210.5C254.205 212.26 256.444 213.14 259.324 213.14C262.204 213.14 264.424 212.28 265.984 210.56C267.584 208.84 268.384 206.34 268.384 203.06V179H277.625V202.7C277.625 208.94 275.984 213.66 272.704 216.86C269.464 220.06 264.964 221.66 259.204 221.66Z" fill="#5DB9E0"/>
<path d="M296.816 221V187.52H284.036V179H318.836V187.52H306.056V221H296.816Z" fill="#5DB9E0"/>
<path d="M318.646 221V211.4H328.366V221H318.646Z" fill="#5DB9E0"/>
<path d="M337.134 221V179H356.634C361.474 179 365.134 180.24 367.614 182.72C369.534 184.64 370.494 187.06 370.494 189.98C370.494 193.94 368.654 196.96 364.974 199.04C367.574 200.04 369.534 201.36 370.854 203C372.174 204.6 372.834 206.76 372.834 209.48C372.834 213.24 371.434 216.1 368.634 218.06C365.834 220.02 361.994 221 357.114 221H337.134ZM346.134 195.98H354.654C359.094 195.98 361.314 194.46 361.314 191.42C361.314 190.02 360.794 188.96 359.754 188.24C358.714 187.48 357.214 187.1 355.254 187.1H346.134V195.98ZM346.134 212.9H357.114C361.474 212.9 363.654 211.34 363.654 208.22C363.654 205.18 361.374 203.66 356.814 203.66H346.134V212.9Z" fill="#5DB9E0"/>
<path d="M390.438 221V204.44L374.298 179H385.098L395.118 195.86L405.318 179H415.818L399.678 204.26V221H390.438Z" fill="#5DB9E0"/>
</svg>
