<svg width="558" height="400" viewBox="0 0 558 400" fill="none" xmlns="http://www.w3.org/2000/svg">
<path d="M442.451 3.94223C482.895 16.3029 511.697 61.9053 532.459 113.028C553.1 164.151 565.701 220.794 552.74 271.916C539.659 322.919 501.136 368.161 454.332 381.362C407.528 394.563 352.444 375.722 294.959 379.082C237.474 382.442 177.589 408.244 123.585 397.323C69.4605 386.522 21.4565 339.12 11.2556 284.757C1.0548 230.514 28.8971 169.311 60.9397 121.428C92.9824 73.6659 129.225 39.2241 169.429 26.6234C209.512 14.1428 253.556 23.3833 301.56 17.743C349.684 12.1027 401.888 -8.53843 442.451 3.94223Z" fill="#E0F5FD"/>
<g style="mix-blend-mode:multiply">
<path d="M157.486 202.833C167.942 202.833 173.171 207.208 173.171 215.957C173.171 224.705 167.942 229.08 157.486 229.08H137V260.768C137 266.102 135.506 270.263 132.519 273.251C129.531 276.025 125.583 277.412 120.675 277.412C115.981 277.412 112.139 276.025 109.152 273.251C106.164 270.263 104.671 266.102 104.671 260.768V229.08H14.7243C10.0296 229.08 6.40187 227.799 3.84112 225.239C1.28037 222.678 0 219.371 0 215.316C0 211.049 1.38707 206.888 4.16122 202.833L106.271 55.917C109.685 51.0091 114.487 48.5552 120.675 48.5552C125.157 48.5552 128.998 50.0489 132.199 53.0363C135.4 55.8103 137 59.8647 137 65.1993V202.833H157.486ZM104.671 202.833V102.969L35.5304 202.833H104.671Z" fill="#D8F3FD"/>
<path d="M276.116 278.372C249.868 278.372 229.809 268.556 215.938 248.925C202.281 229.293 195.452 200.699 195.452 163.144C195.452 125.374 202.281 96.6738 215.938 77.0422C229.809 57.4107 249.868 47.595 276.116 47.595C302.363 47.595 322.316 57.4107 335.973 77.0422C349.844 96.4604 356.779 125.054 356.779 162.823C356.779 200.593 349.844 229.293 335.973 248.925C322.316 268.556 302.363 278.372 276.116 278.372ZM276.116 251.805C292.547 251.805 304.604 244.657 312.286 230.36C319.969 216.063 323.81 193.551 323.81 162.823C323.81 132.096 319.969 109.69 312.286 95.6068C304.604 81.31 292.547 74.1615 276.116 74.1615C259.684 74.1615 247.627 81.31 239.945 95.6068C232.263 109.69 228.422 132.096 228.422 162.823C228.422 193.338 232.263 215.85 239.945 230.36C247.627 244.657 259.684 251.805 276.116 251.805Z" fill="#D8F3FD"/>
<path d="M541.348 202.833C551.805 202.833 557.033 207.208 557.033 215.957C557.033 224.705 551.805 229.08 541.348 229.08H520.862V260.768C520.862 266.102 519.369 270.263 516.381 273.251C513.393 276.025 509.446 277.412 504.538 277.412C499.843 277.412 496.002 276.025 493.014 273.251C490.027 270.263 488.533 266.102 488.533 260.768V229.08H398.587C393.892 229.08 390.264 227.799 387.703 225.239C385.143 222.678 383.862 219.371 383.862 215.316C383.862 211.049 385.249 206.888 388.023 202.833L490.133 55.917C493.548 51.0091 498.349 48.5552 504.538 48.5552C509.019 48.5552 512.86 50.0489 516.061 53.0363C519.262 55.8103 520.862 59.8647 520.862 65.1993V202.833H541.348ZM488.533 202.833V102.969L419.393 202.833H488.533Z" fill="#D8F3FD"/>
</g>
<path d="M235.576 356.444H316.478C317.257 356.496 318.039 356.387 318.774 356.125C319.509 355.862 320.183 355.452 320.753 354.918C321.323 354.385 321.777 353.74 322.088 353.024C322.399 352.308 322.559 351.536 322.559 350.755C322.559 349.974 322.399 349.202 322.088 348.486C321.777 347.77 321.323 347.125 320.753 346.592C320.183 346.058 319.509 345.648 318.774 345.386C318.039 345.123 317.257 345.015 316.478 345.067C289.515 345.067 262.577 342.652 235.576 345.067C227.599 345.787 228.408 356.444 235.576 356.444Z" fill="#C5EBFB"/>
<path d="M174.16 218.333H164.047V338.847H174.16V218.333Z" fill="#D4D4D4"/>
<path d="M411.394 218.333H401.281V338.847H411.394V218.333Z" fill="#D4D4D4"/>
<path d="M420.774 247.533H143.948V267.758H420.774V247.533Z" fill="#AD8067"/>
<path d="M420.774 293.544H143.948V306.817H420.774V293.544Z" fill="#AD8067"/>
<path d="M143.935 226.764V246.99H420.774V226.764H226.936L225.28 228.206L223.928 226.764H143.935Z" fill="#AD8067"/>
<path d="M168.257 239.24C168.855 239.197 169.415 238.928 169.824 238.488C170.233 238.049 170.46 237.471 170.46 236.87C170.46 236.27 170.233 235.692 169.824 235.253C169.415 234.813 168.855 234.544 168.257 234.5C167.658 234.544 167.098 234.813 166.689 235.253C166.281 235.692 166.053 236.27 166.053 236.87C166.053 237.471 166.281 238.049 166.689 238.488C167.098 238.928 167.658 239.197 168.257 239.24Z" fill="#263137"/>
<path d="M167.839 260.312C168.438 260.268 168.998 260 169.407 259.56C169.815 259.12 170.042 258.542 170.042 257.942C170.042 257.342 169.815 256.764 169.407 256.324C168.998 255.884 168.438 255.616 167.839 255.572C167.241 255.616 166.681 255.884 166.272 256.324C165.863 256.764 165.636 257.342 165.636 257.942C165.636 258.542 165.863 259.12 166.272 259.56C166.681 260 167.241 260.268 167.839 260.312Z" fill="#263137"/>
<path d="M406.755 239.24C407.354 239.197 407.913 238.928 408.322 238.488C408.731 238.049 408.958 237.471 408.958 236.87C408.958 236.27 408.731 235.692 408.322 235.253C407.913 234.813 407.354 234.544 406.755 234.5C406.156 234.544 405.596 234.813 405.188 235.253C404.779 235.692 404.552 236.27 404.552 236.87C404.552 237.471 404.779 238.049 405.188 238.488C405.596 238.928 406.156 239.197 406.755 239.24Z" fill="#263137"/>
<path d="M406.338 260.312C406.937 260.268 407.496 260 407.905 259.56C408.314 259.12 408.541 258.542 408.541 257.942C408.541 257.342 408.314 256.764 407.905 256.324C407.496 255.884 406.937 255.616 406.338 255.572C405.739 255.616 405.179 255.884 404.771 256.324C404.362 256.764 404.135 257.342 404.135 257.942C404.135 258.542 404.362 259.12 404.771 259.56C405.179 260 405.739 260.268 406.338 260.312Z" fill="#263137"/>
<path d="M179.849 307.347H158.359V315.349H179.849V307.347Z" fill="#C6C6C6"/>
<path d="M417.5 307.347H396.01V315.349H417.5V307.347Z" fill="#C6C6C6"/>
<path d="M154.352 240.517C154.9 240.434 155.461 240.523 155.957 240.77C156.399 240.998 156.778 240.34 156.349 240.126C155.67 239.782 154.9 239.662 154.149 239.784C153.669 239.784 153.871 240.581 154.352 240.517Z" fill="#9E7059"/>
<path d="M165.286 230.772C174.628 230.847 183.388 234.564 192.502 236.22C200.428 237.605 208.483 238.114 216.52 237.737C217.001 237.737 217.001 236.953 216.52 236.978C207.03 237.424 197.523 236.621 188.242 234.589C180.582 232.87 173.263 230.076 165.311 230.013C164.831 230.013 164.831 230.759 165.311 230.772H165.286Z" fill="#9E7059"/>
<path d="M189.013 242.3C205.333 245.498 221.071 240.644 237.049 237.85C255.783 234.589 274.757 235.739 293.605 236.991C294.098 236.991 294.098 236.258 293.605 236.232C276.704 235.107 259.664 233.995 242.801 236.232C224.914 238.571 207.406 245.169 189.203 241.617C188.735 241.516 188.52 242.249 189.001 242.338L189.013 242.3Z" fill="#9E7059"/>
<path d="M243.37 242.123C267.577 242.73 292.442 247.18 316.372 241.441C328.735 238.495 341.034 230.557 354.131 232.971C360.451 234.121 365.798 237.851 371.828 239.861C377.407 241.668 383.22 242.656 389.083 242.793C389.184 242.793 389.28 242.753 389.351 242.682C389.422 242.611 389.462 242.515 389.462 242.414C389.462 242.313 389.422 242.217 389.351 242.146C389.28 242.075 389.184 242.035 389.083 242.035C381.367 241.84 373.763 240.144 366.696 237.042C362.575 235.221 358.719 232.921 354.219 232.112C342.501 230.001 331.465 236.283 320.644 239.519C295.577 246.977 268.993 242.047 243.395 241.365C243.295 241.365 243.198 241.405 243.127 241.476C243.056 241.547 243.016 241.643 243.016 241.744C243.016 241.845 243.056 241.941 243.127 242.012C243.198 242.083 243.295 242.123 243.395 242.123H243.37Z" fill="#9E7059"/>
<path d="M227.922 233.818C243.307 232.819 258.729 232.453 274.151 232.857C289.067 233.236 304.262 235.6 319.153 233.982C319.633 233.982 319.633 233.173 319.153 233.224C304.262 234.842 289.067 232.478 274.151 232.099C258.729 231.694 243.307 232.099 227.922 233.059C227.429 233.059 227.429 233.856 227.922 233.818Z" fill="#9E7059"/>
<path d="M378.427 232.592C381.309 234.21 385.809 236.7 389.222 235.12C390.789 234.412 391.409 232.124 389.45 231.505C388.982 231.353 388.78 232.086 389.247 232.225C389.399 233.957 388.855 234.753 387.642 234.665C387.147 234.728 386.645 234.728 386.15 234.665C385.254 234.584 384.371 234.393 383.521 234.096C381.884 233.502 380.305 232.757 378.806 231.871C378.719 231.821 378.615 231.807 378.518 231.833C378.421 231.859 378.338 231.923 378.287 232.01C378.237 232.097 378.224 232.201 378.25 232.298C378.276 232.395 378.339 232.478 378.427 232.529V232.592Z" fill="#9E7059"/>
<path d="M349.668 240.606C350.199 238.28 353.801 239.038 355.28 239.342C356.152 239.547 356.999 239.843 357.808 240.226C357.985 240.315 361.221 242.325 359.072 242.565C358.592 242.565 358.579 243.374 359.072 243.323C359.288 243.322 359.501 243.272 359.694 243.176C359.888 243.081 360.057 242.943 360.19 242.772C360.323 242.602 360.415 242.404 360.46 242.193C360.505 241.982 360.502 241.763 360.45 241.554C360.197 240.29 358.503 239.658 357.505 239.253C355.305 238.356 349.757 236.864 348.96 240.353C348.846 240.833 349.58 241.035 349.681 240.555L349.668 240.606Z" fill="#9E7059"/>
<path d="M375.039 243.753C381.161 245.217 387.459 245.817 393.747 245.536C400.46 245.169 406.983 243.627 413.746 244.133C414.239 244.133 414.239 243.412 413.746 243.374C407.754 242.932 402.027 244.095 396.048 244.638C389.056 245.208 382.017 244.675 375.19 243.058C374.723 242.957 374.52 243.69 375.001 243.791L375.039 243.753Z" fill="#9E7059"/>
<path d="M401.32 228.521C404.619 229.419 407.918 230.367 411.23 231.227C413.286 231.918 415.486 232.062 417.614 231.644C418.094 231.53 417.892 230.797 417.412 230.911C414.517 231.606 411.723 230.569 408.955 229.811L401.522 227.788C401.425 227.761 401.321 227.774 401.233 227.824C401.145 227.874 401.081 227.956 401.054 228.054C401.027 228.151 401.04 228.255 401.09 228.343C401.14 228.43 401.222 228.495 401.32 228.521Z" fill="#9E7059"/>
<path d="M208.038 229.558C210.339 232.617 215.989 235.726 219.085 231.934C219.389 231.555 218.858 231.012 218.542 231.391C215.786 234.791 210.718 231.871 208.695 229.179C208.405 228.787 207.747 229.179 208.038 229.558Z" fill="#9E7059"/>
<path d="M172.466 241.124C173.439 240.7 174.502 240.523 175.56 240.607C176.618 240.69 177.639 241.033 178.533 241.604C179.418 242.161 180.67 243.109 180.265 244.132C179.861 245.156 177.737 245.169 176.688 245.093C176.208 245.093 176.208 245.814 176.688 245.851C177.952 245.94 180.265 246.003 181.137 244.929C182.009 243.854 180.948 242.729 180.252 241.996C179.213 240.934 177.874 240.215 176.415 239.935C174.956 239.655 173.446 239.827 172.087 240.429C171.632 240.618 172.024 241.276 172.466 241.086V241.124Z" fill="#9E7059"/>
<path d="M149.346 230.632C152.532 232.301 156.177 232.878 159.723 232.276C160.203 232.2 160.001 231.467 159.521 231.555C156.171 232.104 152.733 231.55 149.725 229.975C149.295 229.748 148.916 230.405 149.346 230.632Z" fill="#9E7059"/>
<path d="M148.549 260.274C149.902 259.971 151.153 261.538 152.215 262.145C153.009 262.665 153.898 263.022 154.831 263.194C155.502 263.324 156.195 263.295 156.853 263.111C157.511 262.927 158.117 262.592 158.623 262.132C159.013 261.756 159.285 261.275 159.404 260.746C159.524 260.218 159.487 259.667 159.298 259.159C159.109 258.652 158.775 258.211 158.339 257.89C157.902 257.57 157.382 257.383 156.841 257.354C156.741 257.354 156.644 257.394 156.573 257.465C156.502 257.537 156.462 257.633 156.462 257.734C156.462 257.834 156.502 257.931 156.573 258.002C156.644 258.073 156.741 258.113 156.841 258.113L158.396 258.947C158.625 259.21 158.752 259.546 158.752 259.895C158.752 260.244 158.625 260.58 158.396 260.843C158.247 261.216 158.011 261.549 157.707 261.812C157.404 262.076 157.042 262.264 156.652 262.36C155.895 262.509 155.115 262.491 154.366 262.308C153.618 262.125 152.918 261.78 152.316 261.298C151.052 260.451 150.016 259.175 148.36 259.554C147.879 259.655 148.082 260.388 148.562 260.274H148.549Z" fill="#9E7059"/>
<path d="M160.002 251.363C161.734 248.266 170.76 251.666 173.478 252.235C177.839 253.158 182.212 254.081 186.586 254.953C194.588 256.533 202.615 257.936 210.718 258.897C228.501 260.964 246.455 261.091 264.265 259.276C264.758 259.276 264.758 258.467 264.265 258.518C243.244 260.644 222.037 260.07 201.161 256.811C191.542 255.294 182.01 253.272 172.479 251.262C169.394 250.605 161.519 247.103 159.345 250.984C159.295 251.071 159.281 251.175 159.307 251.272C159.333 251.369 159.397 251.452 159.484 251.502C159.571 251.552 159.675 251.566 159.772 251.54C159.869 251.514 159.952 251.45 160.002 251.363Z" fill="#9E7059"/>
<path d="M177.093 260.413C185.082 259.023 193.653 263.245 201.667 264.029C202.147 264.029 202.147 263.308 201.667 263.27C193.539 262.474 185.082 258.214 176.891 259.68C176.41 259.769 176.612 260.502 177.093 260.413Z" fill="#9E7059"/>
<path d="M207.28 250.579C217.215 254.194 227.73 255.951 238.301 255.762C249.943 255.497 261.952 250.39 273.405 253.6C273.502 253.627 273.606 253.614 273.694 253.565C273.781 253.515 273.846 253.432 273.873 253.335C273.899 253.238 273.886 253.134 273.837 253.046C273.787 252.958 273.704 252.894 273.607 252.867C263.305 249.972 253.116 253.967 242.801 254.776C230.813 255.639 218.778 253.963 207.482 249.859C207.027 249.694 206.825 250.415 207.28 250.579Z" fill="#9E7059"/>
<path d="M276.793 258.088C280.015 258.935 283.38 259.085 286.665 258.53C288.385 258.176 292.417 257.077 292.607 254.738C292.796 252.399 289.396 252.538 288.081 252.336C285.389 251.906 281.862 250.996 279.447 252.652C279.055 252.93 279.447 253.588 279.827 253.309C281.697 252.045 284.289 252.589 286.387 252.854C287.415 252.876 288.435 253.033 289.421 253.322C290.348 253.204 290.828 253.626 290.862 254.586C291.646 255.56 291.343 256.217 289.952 256.52C286.033 258.72 281.192 258.24 276.995 257.317C276.527 257.216 276.325 257.936 276.793 258.05V258.088Z" fill="#9E7059"/>
<path d="M289.838 261.311C298.181 261.88 306.272 260.515 314.577 259.744C323.129 259.055 331.723 259.055 340.276 259.744C355.521 260.793 371.575 264.56 386.732 261.387C387.212 261.286 387.01 260.553 386.53 260.654C370.716 263.966 353.739 259.781 337.824 258.821C330.082 258.288 322.31 258.343 314.577 258.985C306.297 259.756 298.143 261.121 289.838 260.553C289.345 260.553 289.345 261.273 289.838 261.311Z" fill="#9E7059"/>
<path d="M311.341 250.718L355.976 254.827C369.628 256.091 383.357 257.924 397.009 255.939C397.489 255.863 397.287 255.13 396.807 255.206C382.434 257.292 367.859 255.206 353.498 253.841L311.341 249.96C310.848 249.96 310.86 250.668 311.341 250.718Z" fill="#9E7059"/>
<path d="M399.487 263.27C403.698 263.309 407.9 263.686 412.052 264.395C412.532 264.471 412.734 263.738 412.254 263.662C408.036 262.938 403.766 262.554 399.487 262.512C399.386 262.512 399.29 262.552 399.218 262.623C399.147 262.694 399.107 262.79 399.107 262.891C399.107 262.991 399.147 263.088 399.218 263.159C399.29 263.23 399.386 263.27 399.487 263.27Z" fill="#9E7059"/>
<path d="M304.413 264.623C304.337 264.496 304.274 264.357 304.186 264.231C294.439 249.062 275.402 246.749 261.067 249.062C252.547 250.453 248.426 256.735 246.897 264.724C246.303 265.018 245.733 265.356 245.19 265.735C245.053 265.831 244.926 265.941 244.811 266.064C244.305 263.068 240.424 263.207 240.551 266.557L243.079 333.551C243.256 338.177 242.333 347.456 246.302 350.401C248.553 352.095 250.967 350.704 252.13 348.012C253.293 345.319 252.888 341.3 252.952 338.43L253.293 322.68C253.402 317.135 253.52 311.586 253.647 306.033C255.492 293.304 256.466 286.213 265.112 283.28C269.891 281.675 275.086 282.825 280.029 282.61C286.261 282.345 290.887 282.117 295.817 287.527C298.839 290.839 298.434 298.904 299.319 306.184L300.343 333.538C300.52 338.165 299.597 347.443 303.566 350.388C305.816 352.082 308.231 350.692 309.394 347.999C310.557 345.307 310.152 341.287 310.216 338.418L310.557 322.668C310.768 312.168 310.991 301.663 311.227 291.155C311.429 283.014 314.918 259.68 304.413 264.623Z" fill="#263137"/>
<path d="M265.479 184.76C265.705 191.2 265.354 197.647 264.43 204.024C264.31 204.398 264.279 204.794 264.339 205.182C264.398 205.57 264.548 205.938 264.775 206.258C265.001 206.578 265.3 206.841 265.646 207.026C265.992 207.211 266.376 207.313 266.768 207.324C270.342 208.407 274.036 209.048 277.766 209.232C279.751 209.321 281.95 209.232 283.366 207.804C285.629 205.567 284.428 201.812 283.467 198.779C281.854 193.743 281.311 188.425 281.874 183.168" fill="#E29881"/>
<path d="M264.822 184.76C264.569 188.944 264.442 193.141 264.088 197.3C263.874 199.828 262.306 203.86 263.482 206.312C265.378 210.256 274.859 210.471 278.525 210.433C282.57 210.433 285.755 208.625 285.894 204.264C285.983 201.736 284.82 199.208 284.188 196.756C283.012 192.205 283.113 187.819 282.987 183.167C282.987 181.903 281.04 181.587 280.787 182.877C280.163 186.569 280.227 190.344 280.977 194.013C281.976 199.625 286.627 206.451 277.766 208.019C274.758 208.286 271.73 207.853 268.917 206.755C265.302 205.2 265.694 203.835 266.073 200.245C266.661 195.119 266.699 189.945 266.187 184.811C266.148 184.673 266.065 184.553 265.951 184.467C265.837 184.38 265.698 184.334 265.555 184.334C265.412 184.334 265.273 184.38 265.159 184.467C265.045 184.553 264.962 184.673 264.923 184.811L264.822 184.76Z" fill="#E29881"/>
<path d="M311.909 244.398C310.645 233.312 310.342 222.909 305.007 212.873C302.277 207.741 295.881 200.232 288.435 198.564C282.443 202.924 280.61 203.291 273.266 203.101H272.558C266.528 202.962 265.403 202.242 260.713 199.398C248.565 204.277 244.28 211.849 239.906 227.333C238.441 233.185 237.665 239.188 237.593 245.219C237.466 248.67 237.479 252.121 237.517 255.572C237.517 257.569 238.174 277.731 239.059 280.183C241.259 286.352 253.647 273.863 287.272 273.863C297.385 273.863 305.551 276.694 311.935 277.516C317.509 278.211 313.161 255.837 311.909 244.398Z" fill="#FFAB27"/>
<path d="M236.72 133.086C234.939 132.293 233.004 131.904 231.054 131.947C229.104 131.991 227.189 132.466 225.445 133.339C224.017 134.326 222.855 135.65 222.061 137.193C221.267 138.737 220.866 140.452 220.894 142.188C220.874 143.844 221.311 145.474 222.156 146.899C223.001 148.323 224.222 149.488 225.685 150.265C228.845 151.871 233.067 151.201 234.786 147.851C235.007 147.422 235.137 146.952 235.169 146.471C235.201 145.99 235.135 145.507 234.974 145.053C234.813 144.598 234.561 144.182 234.233 143.828C233.905 143.474 233.508 143.191 233.067 142.997L233.497 141.214C234.242 141.216 234.985 141.127 235.709 140.949C239.16 139.988 240.007 134.818 236.72 133.086Z" fill="#E29881"/>
<path d="M328.065 133.339C326.32 132.47 324.404 131.996 322.455 131.953C320.506 131.909 318.571 132.296 316.789 133.086C313.515 134.818 314.349 139.988 317.813 140.898C318.53 141.084 319.272 141.161 320.012 141.126L320.455 142.946C320.012 143.139 319.614 143.421 319.285 143.775C318.957 144.128 318.704 144.545 318.543 145C318.381 145.455 318.315 145.939 318.349 146.42C318.382 146.902 318.513 147.372 318.736 147.8C320.442 151.137 324.677 151.82 327.837 150.215C329.3 149.438 330.521 148.273 331.366 146.848C332.211 145.423 332.648 143.793 332.628 142.137C332.615 138.863 330.997 135.045 328.065 133.339Z" fill="#E29881"/>
<path d="M323.122 137.321C322.793 124.302 318.281 110.84 307.017 103.319C296.058 95.9998 281.293 94.4703 268.475 95.2414C255.379 95.9872 240.273 99.122 235.912 112.18C221.463 155.423 239.843 178.542 249.109 184.824C267.881 197.553 299.761 196.643 313.818 178.365C322.187 167.469 323.451 150.594 323.122 137.321Z" fill="#EFA98E"/>
<path d="M246.808 139.04C247.074 137.422 247.971 135.462 249.816 135.248C250.304 135.22 250.793 135.296 251.25 135.47C251.706 135.643 252.122 135.911 252.468 136.255C252.815 136.6 253.086 137.013 253.263 137.469C253.439 137.925 253.518 138.412 253.495 138.9C253.495 139.041 253.551 139.176 253.65 139.276C253.75 139.375 253.885 139.431 254.026 139.431C254.166 139.431 254.301 139.375 254.401 139.276C254.5 139.176 254.556 139.041 254.556 138.9C254.59 137.725 254.175 136.581 253.396 135.7C252.616 134.82 251.531 134.269 250.36 134.16C247.769 134.021 246.163 136.474 245.797 138.761C245.683 139.431 246.707 139.709 246.808 139.04Z" fill="#442017"/>
<path d="M245.177 130.394C246.378 128.005 249.956 125.489 252.674 127.031C253.036 127.243 253.467 127.301 253.872 127.195C254.278 127.088 254.624 126.825 254.835 126.463C255.046 126.1 255.105 125.669 254.998 125.264C254.892 124.859 254.628 124.512 254.266 124.301C250.07 121.924 244.457 124.819 242.447 128.801C241.537 130.609 244.267 132.214 245.177 130.394Z" fill="#442017"/>
<path d="M304.248 138.761C303.882 136.474 302.264 134.021 299.685 134.16C298.514 134.269 297.429 134.82 296.649 135.7C295.87 136.581 295.455 137.725 295.489 138.9C295.489 139.583 296.563 139.583 296.538 138.9C296.514 138.411 296.593 137.922 296.771 137.466C296.948 137.009 297.22 136.595 297.568 136.251C297.916 135.906 298.333 135.639 298.792 135.466C299.25 135.293 299.74 135.219 300.229 135.248C302.062 135.526 302.959 137.384 303.237 139.04C303.338 139.709 304.362 139.431 304.248 138.761Z" fill="#442017"/>
<path d="M307.637 128.801C305.64 124.819 300.052 121.924 295.83 124.301C295.468 124.512 295.205 124.859 295.098 125.264C294.991 125.669 295.05 126.1 295.261 126.463C295.472 126.825 295.819 127.088 296.224 127.195C296.63 127.301 297.061 127.243 297.423 127.031C300.128 125.489 303.743 128.005 304.919 130.394C305.829 132.214 308.56 130.609 307.637 128.801Z" fill="#442017"/>
<path d="M278.297 158.607C277.56 158.288 276.755 158.158 275.956 158.231C275.156 158.304 274.388 158.577 273.721 159.024C273.608 158.979 273.484 158.974 273.368 159.011C273.253 159.048 273.154 159.124 273.089 159.226C272.924 159.479 272.785 159.757 272.634 160.023C272.227 160.534 271.93 161.124 271.761 161.755C271.164 163.11 270.768 164.545 270.586 166.015C270.409 167.645 269.966 170.578 271.85 171.337C274.276 172.071 276.818 172.35 279.346 172.158C281.343 172.158 282.557 171.981 283.012 169.832C283.821 166.027 282.279 160.25 278.297 158.607Z" fill="#F1856B"/>
<path d="M325.549 118.613C324.229 114.681 322.122 111.059 319.355 107.969C319.355 107.767 319.431 107.578 319.456 107.375C319.494 107.23 319.494 107.078 319.456 106.933C320.948 95.9989 311.227 88.8697 300.621 85.1407C296.457 81.4372 291.638 78.5436 286.413 76.6084C277.716 73.916 269.284 75.0915 260.941 78.4033C250.828 82.423 238.086 89.6534 227.986 81.3865C227.733 81.15 227.417 80.9916 227.077 80.9303C226.736 80.869 226.385 80.9074 226.066 81.041C225.747 81.1746 225.473 81.3975 225.278 81.6831C225.082 81.9687 224.973 82.3046 224.965 82.6505C224.56 88.3598 226.315 94.0126 229.882 98.4891C226.318 98.6565 222.757 98.0974 219.415 96.8458C217.443 96.1 216.293 98.8051 217.494 100.145C221.354 104.411 225.802 108.105 230.704 111.117C225.633 112.157 220.445 112.506 215.281 112.153C214.758 112.157 214.251 112.33 213.834 112.646C213.418 112.963 213.116 113.406 212.973 113.91C212.831 114.413 212.855 114.949 213.044 115.437C213.232 115.925 213.574 116.338 214.017 116.615C228.994 124.94 245.907 129.153 263.039 128.826C261.409 129.736 259.753 130.596 257.983 131.354C257.819 131.464 257.692 131.619 257.616 131.801C257.541 131.983 257.521 132.183 257.559 132.376C257.597 132.569 257.691 132.747 257.829 132.886C257.967 133.026 258.144 133.122 258.337 133.162C269.12 134.969 281.508 131.203 291.355 126.842C296.496 124.611 301.203 121.492 305.26 117.627C309.053 126.058 318.104 133.124 320.505 141.884C320.6 142.189 320.78 142.461 321.024 142.667C321.269 142.872 321.567 143.004 321.884 143.045C322.201 143.086 322.523 143.036 322.812 142.899C323.101 142.763 323.345 142.546 323.514 142.276C327.244 134.953 327.974 126.465 325.549 118.613Z" fill="#FFBD54"/>
<path d="M238.629 146.093C241.057 144.993 245.013 143.641 248.161 144.096C251.726 143.653 256.39 144.576 257.983 148.154C259.968 152.616 255.771 156.206 251.789 157.002C246.503 157.693 241.152 156.337 236.834 153.21C233.763 150.593 235.583 147.484 238.629 146.093Z" fill="#F1856B"/>
<path d="M315.904 146.093C313.477 144.993 309.583 143.641 306.385 144.096C302.808 143.653 298.156 144.576 296.551 148.154C294.566 152.616 298.763 156.206 302.745 157.002C308.031 157.693 313.381 156.337 317.699 153.21C320.783 150.593 319.014 147.484 315.904 146.093Z" fill="#F1856B"/>
<path d="M291.09 90.5011C284.238 88.2384 276.869 88.5418 269.84 89.6541C260.739 91.0952 248.275 96.6443 239.615 91.98C239.257 91.7902 238.844 91.7331 238.448 91.8185C238.052 91.904 237.698 92.1266 237.451 92.4471C237.203 92.7675 237.076 93.1653 237.093 93.5702C237.109 93.975 237.269 94.3609 237.542 94.6598C239.462 97.0744 241.848 99.0777 244.558 100.55C245.974 101.296 249.475 101.814 251.612 102.636C246.703 104.768 241.226 105.212 236.038 103.9C235.645 103.821 235.236 103.881 234.882 104.072C234.529 104.262 234.254 104.57 234.103 104.942C233.953 105.314 233.938 105.727 234.061 106.11C234.183 106.492 234.435 106.819 234.774 107.035C238.049 109.331 241.697 111.041 245.557 112.091C242.687 113.019 239.716 113.596 236.708 113.81C236.31 113.823 235.93 113.976 235.635 114.243C235.34 114.509 235.149 114.872 235.096 115.266C235.043 115.66 235.131 116.06 235.345 116.396C235.559 116.731 235.886 116.979 236.266 117.097C247.238 121.559 258.779 122.153 270.396 120.56C279.763 119.296 294.414 118.247 301.266 110.89C301.431 110.73 301.545 110.524 301.593 110.299C301.64 110.074 301.619 109.839 301.531 109.626C310.532 103.205 297.966 92.7131 291.09 90.5011Z" fill="#FFCB80"/>
<path d="M248.742 152.123C246.859 147.395 241.79 148.495 237.618 150.77C237.513 150.708 237.403 150.653 237.289 150.606C236.516 150.43 235.713 150.435 234.941 150.619C234.17 150.803 233.451 151.162 232.84 151.668C231.44 152.894 230.367 154.449 229.717 156.193C229.678 156.276 229.671 156.371 229.699 156.459C229.726 156.547 229.785 156.621 229.865 156.667C229.944 156.713 230.038 156.728 230.128 156.708C230.218 156.688 230.297 156.635 230.35 156.56L230.501 156.319L231.879 156.142C231.882 156.171 231.892 156.197 231.908 156.221C231.924 156.244 231.945 156.264 231.97 156.277C231.994 156.291 232.022 156.298 232.05 156.299C232.078 156.3 232.106 156.294 232.132 156.282L232.638 156.029L233.421 163.853C233.321 163.882 233.236 163.949 233.185 164.041C233.134 164.132 233.121 164.24 233.15 164.34C233.178 164.441 233.245 164.526 233.337 164.577C233.428 164.628 233.536 164.64 233.636 164.612C238.288 164.005 251.473 159.05 248.742 152.123Z" fill="#E29881"/>
<path d="M236.177 191.687C231.525 185.772 228.769 179.236 231.121 172.082C232.17 168.884 235.444 165.964 238.136 163.941C235.573 159.985 233.621 155.663 232.347 151.124C228.303 152.898 224.687 155.518 221.742 158.808C218.797 162.098 216.591 165.98 215.274 170.194C213.956 174.408 213.557 178.856 214.103 183.237C214.65 187.619 216.129 191.832 218.442 195.593C223.346 203.62 231.576 208.979 239.931 213.29C242.548 214.668 245.392 216.02 248.338 215.691C253.293 215.148 256.706 208.992 254.532 204.492C247.529 201.597 240.829 197.628 236.177 191.687Z" fill="#FFBD54"/>
<path d="M302.176 152.123C304.047 147.395 309.128 148.495 313.3 150.77C313.406 150.708 313.515 150.653 313.629 150.606C314.402 150.43 315.206 150.435 315.977 150.619C316.748 150.803 317.467 151.162 318.078 151.668C319.479 152.894 320.552 154.449 321.201 156.193C321.24 156.276 321.247 156.371 321.219 156.459C321.192 156.547 321.133 156.621 321.053 156.667C320.974 156.713 320.88 156.728 320.79 156.708C320.7 156.688 320.621 156.635 320.569 156.56L320.417 156.319L319.039 156.142C319.034 156.171 319.022 156.198 319.005 156.221C318.988 156.244 318.966 156.264 318.94 156.277C318.915 156.29 318.886 156.298 318.857 156.299C318.829 156.299 318.8 156.294 318.774 156.282L318.281 156.029L317.484 163.853H317.56C317.661 163.882 317.746 163.949 317.797 164.041C317.848 164.132 317.86 164.24 317.832 164.34C317.803 164.441 317.736 164.526 317.645 164.577C317.553 164.628 317.446 164.64 317.345 164.612C312.693 164.005 299.445 159.05 302.176 152.123Z" fill="#E29881"/>
<path d="M314.741 191.687C319.393 185.772 322.149 179.236 319.797 172.082C318.748 168.884 315.474 165.964 312.782 163.941C315.345 159.985 317.297 155.663 318.571 151.124C322.616 152.896 326.234 155.516 329.18 158.805C332.126 162.095 334.333 165.978 335.651 170.192C336.969 174.407 337.367 178.855 336.82 183.237C336.272 187.619 334.791 191.832 332.476 195.593C327.584 203.62 319.355 208.979 310.987 213.29C308.37 214.668 305.526 216.02 302.58 215.691C297.612 215.148 294.212 208.992 296.386 204.492C303.389 201.597 310.077 197.628 314.741 191.687Z" fill="#FFBD54"/>
<path d="M259.601 200.801C262.129 204.707 268.159 206.148 272.533 206.224C278.6 206.325 283.417 203.848 288.384 200.649C290.66 199.196 288.549 195.593 286.261 197.009C282.595 199.373 279.081 201.572 274.618 201.939C271.306 202.217 265.201 201.762 263.241 198.677C261.788 196.402 258.185 198.513 259.601 200.801Z" fill="#FFBD54"/>
<path d="M287.234 201.054C287.764 201.013 288.259 200.773 288.62 200.383C288.981 199.993 289.182 199.481 289.182 198.949C289.182 198.418 288.981 197.905 288.62 197.515C288.259 197.125 287.764 196.886 287.234 196.845C286.704 196.886 286.209 197.125 285.848 197.515C285.487 197.905 285.286 198.418 285.286 198.949C285.286 199.481 285.487 199.993 285.848 200.383C286.209 200.773 286.704 201.013 287.234 201.054Z" fill="#FFBD54"/>
<path d="M240.058 283.205C251.22 282.737 261.548 276.227 272.697 274.571C286.198 272.561 297.84 277.39 310.999 278.957C313.679 279.273 313.667 275.064 310.999 274.735C298.358 273.244 287.525 268.642 274.618 270.096C269.447 270.721 264.343 271.822 259.373 273.383C252.977 275.342 246.846 278.705 240.058 278.983C237.353 279.096 237.34 283.319 240.058 283.205Z" fill="#FFBD54"/>
<path d="M311.34 278.995H312.39C312.68 279.017 312.971 278.979 313.246 278.884C313.521 278.788 313.773 278.637 313.987 278.439C314.2 278.242 314.37 278.002 314.487 277.736C314.604 277.469 314.664 277.181 314.664 276.89C314.664 276.599 314.604 276.311 314.487 276.045C314.37 275.778 314.2 275.539 313.987 275.341C313.773 275.143 313.521 274.992 313.246 274.896C312.971 274.801 312.68 274.763 312.39 274.786H311.34C310.784 274.789 310.251 275.011 309.856 275.403C309.461 275.795 309.236 276.327 309.23 276.884C309.239 277.441 309.465 277.972 309.859 278.366C310.252 278.759 310.784 278.985 311.34 278.995Z" fill="#FFBD54"/>
<path d="M312.39 275.127H312.036C311.476 275.127 310.939 275.349 310.543 275.745C310.147 276.141 309.925 276.678 309.925 277.238C309.925 277.798 310.147 278.334 310.543 278.73C310.939 279.126 311.476 279.349 312.036 279.349H312.39C312.949 279.349 313.486 279.126 313.882 278.73C314.278 278.334 314.5 277.798 314.5 277.238C314.5 276.678 314.278 276.141 313.882 275.745C313.486 275.349 312.949 275.127 312.39 275.127Z" fill="#FFBD54"/>
<path d="M241.334 160.187C237.683 161.806 234.166 163.712 230.817 165.888L241.334 160.187Z" fill="#FEFBFC"/>
<path d="M240.981 158.91C238.904 159.401 236.93 160.257 235.153 161.439C233.29 162.447 231.586 163.725 230.097 165.231C229.452 165.901 230.097 167.216 231.058 166.874C233.017 166.143 234.919 165.264 236.746 164.245C238.68 163.411 240.519 162.373 242.232 161.148C243.37 160.2 242.093 158.784 240.968 158.948L240.981 158.91Z" fill="#FEFBFC"/>
<path d="M237.213 152.578C235.188 151.861 233.02 151.644 230.893 151.946L237.213 152.578Z" fill="#FEFBFC"/>
<path d="M237.453 151.693C235.321 150.737 232.916 150.58 230.678 151.25C230.515 151.305 230.376 151.414 230.286 151.56C230.196 151.706 230.159 151.879 230.183 152.049C230.207 152.219 230.29 152.375 230.418 152.49C230.545 152.605 230.709 152.672 230.88 152.679C232.929 152.729 234.967 152.996 236.96 153.475C238.11 153.829 238.553 152.097 237.453 151.693Z" fill="#FEFBFC"/>
<path d="M225.924 161.666C221.577 163.32 217.567 165.753 214.093 168.846L225.924 161.666Z" fill="#FEFBFC"/>
<path d="M225.698 160.844C221.235 162.475 216.685 164.637 213.524 168.29C212.981 168.935 213.689 170.047 214.485 169.554C218.341 167.026 221.867 164.308 226.153 162.513C227.139 162.096 226.747 160.478 225.698 160.87V160.844Z" fill="#FEFBFC"/>
<path d="M311.037 160.187C314.684 161.806 318.196 163.712 321.541 165.888L311.037 160.187Z" fill="#FEFBFC"/>
<path d="M310.165 161.11C311.881 162.337 313.725 163.376 315.664 164.207C317.488 165.224 319.385 166.103 321.34 166.836C322.313 167.178 322.945 165.863 322.3 165.193C320.811 163.687 319.107 162.409 317.244 161.401C315.471 160.219 313.502 159.363 311.429 158.873C310.279 158.708 309.015 160.137 310.165 161.072V161.11Z" fill="#FEFBFC"/>
<path d="M315.221 152.578C317.246 151.86 319.415 151.643 321.541 151.946L315.221 152.578Z" fill="#FEFBFC"/>
<path d="M315.398 153.475C317.395 152.995 319.438 152.728 321.491 152.679C321.661 152.67 321.823 152.601 321.949 152.485C322.074 152.369 322.155 152.213 322.178 152.043C322.2 151.874 322.163 151.702 322.072 151.557C321.981 151.412 321.843 151.304 321.68 151.25C319.446 150.58 317.046 150.737 314.918 151.693C313.818 152.097 314.248 153.829 315.398 153.475Z" fill="#FEFBFC"/>
<path d="M326.447 161.666C330.794 163.32 334.804 165.753 338.278 168.846L326.447 161.666Z" fill="#FEFBFC"/>
<path d="M326.219 162.488C330.504 164.283 334.031 167.026 337.874 169.529C338.671 170.047 339.391 168.935 338.835 168.265C335.687 164.637 331.124 162.45 326.674 160.819C325.612 160.427 325.22 162.083 326.219 162.463V162.488Z" fill="#FEFBFC"/>
</svg>
