<svg width="115" height="141" viewBox="0 0 115 141" fill="none" xmlns="http://www.w3.org/2000/svg">
<path d="M57.4782 137.31C57.2315 138.133 57.2134 139 57.4256 139.831C57.6122 140.473 58.6167 140.636 59.1477 140.663C61.372 140.765 63.2854 140.477 65.5001 140.274C68.3702 140.008 71.5273 139.637 73.5459 137.708C74.1869 137.098 74.6748 136.107 74.1199 135.426C73.7275 135.046 73.1905 134.822 72.6227 134.802C70.6024 134.532 68.5442 134.634 66.5668 135.103C63.6537 135.793 60.9223 137.27 57.9183 137.341L57.4782 137.31Z" fill="#269D9A"/>
<path d="M68.9628 134.579C67.9491 134.579 65.0404 134.776 64.9788 134.435C63.4582 126.052 62.416 117.492 60.9853 109.09C60.958 108.763 60.8488 108.449 60.6679 108.178C60.4424 107.933 60.1479 107.766 59.8247 107.698C59.0427 107.482 58.2204 107.466 57.4305 107.649C56.6406 107.832 55.9074 108.21 55.2959 108.749L54.2632 110.862C54.2916 117.617 56.5039 133.84 56.8687 137.748C56.9397 138.487 57.8161 138.679 58.233 138.674C62.2123 138.617 66.0257 138.093 69.6024 136.226C69.9529 136.043 70.3414 135.746 70.3414 135.366C70.3177 134.776 69.5455 134.589 68.9628 134.579Z" fill="#FBCFAF"/>
<path d="M26.1275 85.2909C25.5029 84.9137 25.5304 83.8402 24.8921 83.4969C24.4328 83.2454 23.8542 83.5597 23.4133 83.874C19.6153 86.6014 16.4143 90.5183 15.2937 95.2138C15.0298 96.0881 15.0028 97.0226 15.2156 97.9122C15.3311 98.353 15.5774 98.7433 15.9187 99.0261C16.26 99.3089 16.6783 99.4693 17.1123 99.4838C17.6856 99.3943 18.2176 99.1168 18.6324 98.6907C19.3152 98.0677 19.9466 97.3851 20.52 96.65C23.0474 93.4849 24.9085 89.7914 25.9805 85.8132" fill="#269D9A"/>
<path d="M43.1292 105.237C42.5112 101.866 39.3555 99.7723 36.7753 97.6538C33.5031 94.9575 30.6973 91.7031 28.4781 88.0302C28.2941 87.7268 28.1007 87.4137 27.8979 87.1055C27.3177 86.0193 26.6903 84.9528 26.0111 83.9204C25.9502 83.797 25.8657 83.6877 25.7627 83.5994C25.6597 83.5111 25.5403 83.4455 25.412 83.4067C25.2318 83.3972 25.0529 83.4432 24.8978 83.5388C21.5252 85.2072 19.9072 87.9421 18.0912 91.3229C17.6884 92.0577 17.3627 92.8352 17.1195 93.6419C17.0627 93.9042 17.0724 94.1773 17.1476 94.4345C17.2228 94.6917 17.361 94.9244 17.5487 95.1097C17.7995 95.3066 18.1024 95.4193 18.4167 95.4326C19.7799 95.5451 20.9544 94.503 21.9214 93.4756C22.0912 93.2995 22.2516 93.1184 22.3931 92.9423L30.8838 106.079C31.8555 107.581 32.8508 109.112 34.2376 110.208C35.6244 111.304 37.497 111.906 39.1433 111.304C40.2495 110.809 41.2144 110.027 41.9452 109.034C42.3898 108.555 42.7448 107.994 42.9924 107.38C43.2249 106.692 43.2722 105.951 43.1292 105.237Z" fill="#FBCFAF"/>
<path d="M40.1702 12.0063C38.9834 8.32574 36.8153 4.90709 33.7267 2.6502C30.6381 0.393316 26.5823 -0.611328 22.9097 0.383796C18.5735 1.55509 15.3681 5.14515 12.0319 8.21147C8.69568 11.2778 4.36887 14.0489 0 13.0443C3.87825 21.1386 13.686 25.7857 22.2695 23.5621C27.5449 22.1956 31.9792 18.6674 36.7546 15.9773C38.3619 15.0631 40.2637 13.8442 40.1936 11.9682" fill="#BD7013"/>
<path d="M33.1611 18.3685C33.3111 18.9632 33.7246 19.2905 33.9473 18.9632C35.8878 16.3033 38.419 13.6941 40.623 11.26C41.3592 10.4395 41.4773 9.38842 40.4685 8.64622C39.7323 8.10686 39.1052 7.37849 37.9554 9.21785C36.1741 12.1129 33.1611 18.3685 33.1611 18.3685Z" fill="#F17288"/>
<path d="M82.982 3.72457L83.4064 4.10926C79.6436 13.112 73.3914 21.9364 68.1073 30.1369C63.3621 37.5023 61.712 48.1798 53.8621 52.2378C47.6623 55.4467 37.3755 50.6709 33.5745 43.7934C32.5788 41.8995 31.9038 39.8586 31.5763 37.7509C30.0788 29.3065 32.6207 20.346 38.0574 13.6608C43.4942 6.97567 51.6969 2.62679 60.3099 1.4305C62.997 1.08244 65.7082 0.947518 68.4173 1.02704C73.5726 1.12087 78.4847 1.45396 83.0583 3.79494" fill="#BD7013"/>
<path d="M103.254 24.1835C101.97 23.1939 98.8387 24.1835 98.8387 24.1835C98.7975 23.081 98.606 21.9891 98.2694 20.9374C96.9726 16.8342 94.8374 13.0393 91.9965 9.78886C89.2992 6.65751 82.5969 3.01462 82.5969 3.01462C82.5969 3.01462 80.4545 7.66623 76.7584 10.9171C72.5206 14.6132 67.1237 16.7445 61.4816 16.9503C61.4705 18.844 61.2929 20.7332 60.9508 22.5963C60.4655 25.0352 59.5613 27.3734 58.2776 29.5092C58.2776 29.5092 57.5635 28.2232 54.6297 26.9276C51.696 25.632 46.4702 25.6177 46.229 31.8995C45.9877 38.1813 55.8216 37.0244 55.8216 37.0244C55.8216 37.0244 56.5357 44.7165 50.6248 53.2501C53.5199 55.2293 58.0991 57.6244 58.0991 57.6244L57.245 66.3778L65.7664 69.3371C65.7664 69.3371 66.7894 58.3415 68.7822 58.1933C75.5294 57.7985 82.0927 55.8612 87.9578 52.533C84.416 50.3052 81.2796 47.3794 80.0395 43.4497C79.3495 41.2745 78.0467 37.0627 79.9961 30.647C81.6979 33.7297 84.0005 36.4471 86.7704 38.6415C89.5402 40.8359 92.7222 42.4637 96.1318 43.4305C98.0954 39.2617 99.3975 34.8175 99.992 30.255C99.992 30.255 102.699 29.9729 103.852 28.4192C104.106 28.1072 104.293 27.7468 104.401 27.3605C104.509 26.9741 104.535 26.5699 104.479 26.1729C104.423 25.7759 104.286 25.3945 104.075 25.0523C103.864 24.7101 103.585 24.4144 103.254 24.1835Z" fill="#FBCFAF"/>
<path d="M70.8213 66.8297C79.7075 65.0879 88.4535 62.6764 96.9869 59.6152C98.7607 58.977 100.781 58.022 101.144 56.1451C101.311 54.9959 101.224 53.8233 100.888 52.7128C100.39 51.1143 99.7677 49.5586 99.0261 48.0607C99.4902 47.9481 99.976 47.969 100.429 48.121C100.882 48.273 101.285 48.55 101.591 48.9211C102.462 49.8667 103.742 52.3204 104.203 52.7364C104.455 50.2579 104.501 47.7624 104.343 45.2761C105.33 44.9451 106.108 46.1412 106.452 47.1388C106.987 48.6989 107.318 50.8973 107.704 52.5047C109.567 51.4363 109.171 47.5974 110.088 46.5336C110.143 46.4459 110.215 46.3708 110.3 46.313C110.385 46.2552 110.481 46.216 110.582 46.198C110.744 46.2078 110.898 46.2766 111.015 46.3918C111.904 47.1246 112.239 49.479 110.936 52.6891C110.493 53.7765 109.827 55.2846 109.422 56.3862C110.548 56.3871 111.673 56.3097 112.789 56.1545C113.464 56.1025 114.185 55.9985 114.469 56.6273C114.753 57.2561 114.297 57.918 113.799 58.3529C111.694 60.1967 109.339 59.9415 106.652 60.6601C105.228 61.0383 104.11 61.7758 102.574 62.4708C92.3296 67.0729 81.5716 70.391 70.5373 72.3517L70.3418 68.0117" fill="#FBCFAF"/>
<path d="M52.254 58.1758C48.107 51.064 43.9453 43.9282 40.8071 36.3219C39.4054 32.9124 38.2025 29.1189 39.352 25.6134C39.8953 23.9375 40.4725 23.3372 40.7635 21.5989C40.8524 21.2479 40.8128 20.877 40.6519 20.5521C40.4925 20.3456 40.2675 20.1983 40.0133 20.1339C39.759 20.0694 39.4902 20.0915 39.2502 20.1967C38.7741 20.424 38.3687 20.774 38.0764 21.21C37.1923 22.3296 36.5471 23.6153 36.1799 24.9891C34.4344 23.402 32.4219 22.1295 30.2333 21.2292C29.4524 20.9026 28.2932 20.3696 27.7208 20.9939C27.1485 21.6181 28.0458 22.5065 28.5551 22.9627C29.9035 24.1632 31.606 25.2773 33.1435 26.3913C31.2477 25.6024 29.2744 25.0102 27.2552 24.6242C26.3385 24.4561 24.7863 24.2688 24.4662 24.701C23.7872 25.5798 25.2423 26.5786 26.2609 26.9772L30.8493 28.7635C29.0153 28.5598 27.17 28.4716 25.3247 28.4994C23.3167 28.5282 24.2868 29.7095 24.8785 30.0312C26.0765 30.6843 28.8704 31.3134 30.2624 31.4094C30.929 31.4131 31.5883 31.5469 32.2026 31.8032C32.7814 32.1279 33.2787 32.5776 33.6577 33.1189C35.7045 35.6928 36.9753 38.7805 38.217 41.8154L44.3819 56.8313C45.0221 58.4015 46.322 61.7341 47.9372 62.2383C49.5524 62.7425 50.8474 60.1686 52.0503 58.9441" fill="#FBCFAF"/>
<path d="M87.8055 19.2169C88.7638 19.3557 89.6387 19.8256 90.2705 20.5409C90.9023 21.2561 91.2487 22.1689 91.2464 23.1124C91.3109 22.9271 91.364 22.7383 91.4056 22.5469C91.4787 22.0375 91.4481 21.5191 91.3156 21.0213C91.183 20.5234 90.951 20.0559 90.6329 19.6453C90.3148 19.2348 89.9167 18.8893 89.4615 18.6285C89.0062 18.3678 88.5027 18.1969 87.9797 18.1257C87.4566 18.0545 86.9243 18.0843 86.4131 18.2134C85.9019 18.3425 85.4218 18.5684 85.0002 18.8782C84.5786 19.188 84.2239 19.5756 83.9561 20.019C83.6884 20.4623 83.5129 20.9526 83.4398 21.462C83.4156 21.6524 83.4041 21.844 83.4054 22.0359C83.6712 21.131 84.2613 20.349 85.0687 19.8318C85.876 19.3145 86.8471 19.0964 87.8055 19.2169Z" fill="#7E4C02"/>
<path d="M57.987 63.3294C58.4583 64.1957 59.0278 65.0062 59.6846 65.7452C61.5761 67.5629 62.8718 67.7451 64.7775 67.5161C66.5225 67.3059 66.1962 66.4414 67.3595 65.6471C69.9792 63.8527 74.6891 64.82 76.5049 65.334C76.3631 67.2031 76.538 68.5441 77.323 71.273C77.4176 71.5954 77.375 71.6001 77.271 71.9225C77.1339 72.3384 74.0602 73.4412 71.1661 74.6794C71.0241 80.4424 70.5378 86.1921 69.7097 91.8984C65.3936 92.7558 60.9351 92.6112 56.6852 91.476C52.4353 90.3408 48.5103 88.246 45.2192 85.3566C49.3475 77.6232 49.1441 68.2498 45.5881 59.8389C47.8785 59.2572 49.9425 58.0163 51.518 56.2736C51.518 56.2736 56.5069 60.7313 57.987 63.3294Z" fill="#7DC4C2"/>
<path d="M45.7177 82.4006C40.653 84.2508 36.0943 86.4287 31.0296 88.2789C30.8819 88.2992 30.7404 88.3519 30.6151 88.4333C30.4897 88.5146 30.3835 88.6227 30.3039 88.7499C30.2243 88.8771 30.1732 89.0203 30.1543 89.1695C30.1353 89.3187 30.149 89.4703 30.1942 89.6136C30.8577 96.5423 31.9699 103.905 36.5859 109.099C41.8368 115.054 50.4291 116.707 58.3723 116.558C61.3989 116.555 64.414 116.181 67.3512 115.445C70.9314 114.403 74.3179 112.775 77.3756 110.626C73.3516 104.521 71.2464 98.0987 69.3132 91.0254C52.7395 88.0091 45.7177 82.4006 45.7177 82.4006Z" fill="#F17288"/>
</svg>
