<svg width="40" height="40" viewBox="0 0 40 40" fill="none" xmlns="http://www.w3.org/2000/svg">
<path fill-rule="evenodd" clip-rule="evenodd" d="M20 40C31.0457 40 40 31.0457 40 20C40 8.9543 31.0457 0 20 0C8.9543 0 0 8.9543 0 20C0 31.0457 8.9543 40 20 40ZM29.3612 15.8366C29.3612 15.6276 29.3612 15.4185 29.3462 15.2095C30.2868 14.5227 31.108 13.6717 31.7648 12.7163C30.8989 13.0895 29.9583 13.3583 28.9879 13.4627C29.9881 12.8656 30.7495 11.925 31.1079 10.8052C30.1822 11.3576 29.1371 11.7608 28.0473 11.9698C27.1664 11.0292 25.9123 10.4469 24.5238 10.4469C21.8514 10.4469 19.7015 12.6117 19.7015 15.2693C19.7015 15.6425 19.7463 16.0157 19.8209 16.374C15.8198 16.165 12.2516 14.254 9.8777 11.3278C9.45964 12.0444 9.22081 12.8655 9.22081 13.7613C9.22081 15.4335 10.0718 16.9115 11.3707 17.7774C10.5794 17.7476 9.83289 17.5237 9.19094 17.1653V17.225C9.19094 19.569 10.8482 21.5099 13.0578 21.9578C12.6547 22.0623 12.2217 22.122 11.7888 22.122C11.4752 22.122 11.1766 22.0921 10.878 22.0474C11.4902 23.9584 13.2668 25.3469 15.3868 25.3917C13.7296 26.6906 11.6544 27.452 9.39999 27.452C8.99686 27.452 8.62366 27.437 8.23547 27.3923C10.3704 28.7658 12.9085 29.5571 15.6407 29.5571C24.509 29.5571 29.3612 22.2116 29.3612 15.8366Z" fill="white"/>
</svg>
