<svg id="Слой_1" data-name="Слой 1" xmlns="http://www.w3.org/2000/svg" viewBox="0 0 264 274"><defs><style>.cls-1{fill:#f842a0;}</style></defs><title>pink</title><path class="cls-1" d="M263.84,87.78c-2.38-31.69-32.25-62.57-67.57-77.23s-75.9-13.16-113.16-1S11.9,44.63,2.74,74.17,9.23,140,22.61,176,47.22,247.77,72,263.74s63.08,12.31,89.37-4.2,40.37-45.81,60-76.71S266.22,119.48,263.84,87.78Zm-57.32,87.36c-16.38,25.71-28.11,50.08-50,63.82s-53.82,16.8-74.48,3.51-30-43-41.16-73S16.65,109.3,24.28,84.72s36-43.63,67-53.74,64.87-11.39,94.3.8,54.33,37.89,56.31,64.27S222.91,149.42,206.52,175.14Z" transform="translate(0 0)"/></svg>